  0
SECTION
  2
HEADER
  9
$ACADVER
  1
AC1014
  9
$ACADMAINTVER
 70
     9
  9
$DWGCODEPAGE
  3
ANSI_1252
  9
$INSBASE
 10
0.0
 20
0.0
 30
0.0
  9
$EXTMIN
 10
1.000000000000000E+20
 20
1.000000000000000E+20
 30
1.000000000000000E+20
  9
$EXTMAX
 10
-1.000000000000000E+20
 20
-1.000000000000000E+20
 30
-1.000000000000000E+20
  9
$LIMMIN
 10
0.0
 20
0.0
  9
$LIMMAX
 10
12.0
 20
9.0
  9
$ORTHOMODE
 70
     0
  9
$REGENMODE
 70
     1
  9
$FILLMODE
 70
     1
  9
$QTEXTMODE
 70
     0
  9
$MIRRTEXT
 70
     1
  9
$DRAGMODE
 70
     2
  9
$LTSCALE
 40
1.0
  9
$OSMODE
 70
    37
  9
$ATTMODE
 70
     1
  9
$TEXTSIZE
 40
0.2
  9
$TRACEWID
 40
0.05
  9
$TEXTSTYLE
  7
STANDARD
  9
$CLAYER
  8
0
  9
$CELTYPE
  6
BYLAYER
  9
$CECOLOR
 62
   256
  9
$CELTSCALE
 40
1.0
  9
$DELOBJ
 70
     1
  9
$DISPSILH
 70
     0
  9
$DIMSCALE
 40
1.0
  9
$DIMASZ
 40
0.18
  9
$DIMEXO
 40
0.0625
  9
$DIMDLI
 40
0.38
  9
$DIMRND
 40
0.0
  9
$DIMDLE
 40
0.0
  9
$DIMEXE
 40
0.18
  9
$DIMTP
 40
0.0
  9
$DIMTM
 40
0.0
  9
$DIMTXT
 40
0.18
  9
$DIMCEN
 40
0.09
  9
$DIMTSZ
 40
0.0
  9
$DIMTOL
 70
     0
  9
$DIMLIM
 70
     0
  9
$DIMTIH
 70
     1
  9
$DIMTOH
 70
     1
  9
$DIMSE1
 70
     0
  9
$DIMSE2
 70
     0
  9
$DIMTAD
 70
     0
  9
$DIMZIN
 70
     0
  9
$DIMBLK
  1

  9
$DIMASO
 70
     1
  9
$DIMSHO
 70
     1
  9
$DIMPOST
  1

  9
$DIMAPOST
  1

  9
$DIMALT
 70
     0
  9
$DIMALTD
 70
     2
  9
$DIMALTF
 40
25.4
  9
$DIMLFAC
 40
1.0
  9
$DIMTOFL
 70
     0
  9
$DIMTVP
 40
0.0
  9
$DIMTIX
 70
     0
  9
$DIMSOXD
 70
     0
  9
$DIMSAH
 70
     0
  9
$DIMBLK1
  1

  9
$DIMBLK2
  1

  9
$DIMSTYLE
  2
STANDARD
  9
$DIMCLRD
 70
     0
  9
$DIMCLRE
 70
     0
  9
$DIMCLRT
 70
     0
  9
$DIMTFAC
 40
1.0
  9
$DIMGAP
 40
0.09
  9
$DIMJUST
 70
     0
  9
$DIMSD1
 70
     0
  9
$DIMSD2
 70
     0
  9
$DIMTOLJ
 70
     1
  9
$DIMTZIN
 70
     0
  9
$DIMALTZ
 70
     0
  9
$DIMALTTZ
 70
     0
  9
$DIMFIT
 70
     3
  9
$DIMUPT
 70
     0
  9
$DIMUNIT
 70
     2
  9
$DIMDEC
 70
     4
  9
$DIMTDEC
 70
     4
  9
$DIMALTU
 70
     2
  9
$DIMALTTD
 70
     2
  9
$DIMTXSTY
  7
STANDARD
  9
$DIMAUNIT
 70
     0
  9
$LUNITS
 70
     2
  9
$LUPREC
 70
     4
  9
$SKETCHINC
 40
0.1
  9
$FILLETRAD
 40
0.5
  9
$AUNITS
 70
     0
  9
$AUPREC
 70
     0
  9
$MENU
  1
.
  9
$ELEVATION
 40
0.0
  9
$PELEVATION
 40
0.0
  9
$THICKNESS
 40
0.0
  9
$LIMCHECK
 70
     0
  9
$BLIPMODE
 70
     0
  9
$CHAMFERA
 40
0.5
  9
$CHAMFERB
 40
0.5
  9
$CHAMFERC
 40
1.0
  9
$CHAMFERD
 40
0.0
  9
$SKPOLY
 70
     0
  9
$TDCREATE
 40
2452964.734852014
  9
$TDUPDATE
 40
2452964.737807419
  9
$TDINDWG
 40
0.0029613194
  9
$TDUSRTIMER
 40
0.0029570255
  9
$USRTIMER
 70
     1
  9
$ANGBASE
 50
0.0
  9
$ANGDIR
 70
     0
  9
$PDMODE
 70
     0
  9
$PDSIZE
 40
0.0
  9
$PLINEWID
 40
0.0
  9
$COORDS
 70
     1
  9
$SPLFRAME
 70
     0
  9
$SPLINETYPE
 70
     6
  9
$SPLINESEGS
 70
     8
  9
$ATTDIA
 70
     0
  9
$ATTREQ
 70
     1
  9
$HANDLING
 70
  4097
  9
$HANDSEED
  5
52
  9
$SURFTAB1
 70
     6
  9
$SURFTAB2
 70
     6
  9
$SURFTYPE
 70
     6
  9
$SURFU
 70
     6
  9
$SURFV
 70
     6
  9
$UCSNAME
  2

  9
$UCSORG
 10
0.0
 20
0.0
 30
0.0
  9
$UCSXDIR
 10
1.0
 20
0.0
 30
0.0
  9
$UCSYDIR
 10
0.0
 20
1.0
 30
0.0
  9
$PUCSNAME
  2

  9
$PUCSORG
 10
0.0
 20
0.0
 30
0.0
  9
$PUCSXDIR
 10
1.0
 20
0.0
 30
0.0
  9
$PUCSYDIR
 10
0.0
 20
1.0
 30
0.0
  9
$USERI1
 70
     0
  9
$USERI2
 70
     0
  9
$USERI3
 70
     0
  9
$USERI4
 70
     0
  9
$USERI5
 70
     0
  9
$USERR1
 40
0.0
  9
$USERR2
 40
0.0
  9
$USERR3
 40
0.0
  9
$USERR4
 40
0.0
  9
$USERR5
 40
0.0
  9
$WORLDVIEW
 70
     1
  9
$SHADEDGE
 70
     3
  9
$SHADEDIF
 70
    70
  9
$TILEMODE
 70
     1
  9
$MAXACTVP
 70
    64
  9
$PINSBASE
 10
0.0
 20
0.0
 30
0.0
  9
$PLIMCHECK
 70
     0
  9
$PEXTMIN
 10
1.000000000000000E+20
 20
1.000000000000000E+20
 30
1.000000000000000E+20
  9
$PEXTMAX
 10
-1.000000000000000E+20
 20
-1.000000000000000E+20
 30
-1.000000000000000E+20
  9
$PLIMMIN
 10
0.0
 20
0.0
  9
$PLIMMAX
 10
12.0
 20
9.0
  9
$UNITMODE
 70
     0
  9
$VISRETAIN
 70
     1
  9
$PLINEGEN
 70
     0
  9
$PSLTSCALE
 70
     1
  9
$TREEDEPTH
 70
  3020
  9
$PICKSTYLE
 70
     1
  9
$CMLSTYLE
  2
STANDARD
  9
$CMLJUST
 70
     0
  9
$CMLSCALE
 40
1.0
  9
$PROXYGRAPHICS
 70
     1
  9
$MEASUREMENT
 70
     0
  0
ENDSEC
  0
SECTION
  2
CLASSES
  0
CLASS
  1
ACDBDICTIONARYWDFLT
  2
AcDbDictionaryWithDefault
  3
AutoCAD 2000
 90
        0
280
     0
281
     0
  0
CLASS
  1
ACDBPLACEHOLDER
  2
AcDbPlaceHolder
  3
AutoCAD 2000
 90
        0
280
     0
281
     0
  0
CLASS
  1
LAYOUT
  2
AcDbLayout
  3
AutoCAD 2000
 90
        0
280
     0
281
     0
  0
CLASS
  1
LONG_TRANSACTION
  2
AcDbLongTransaction
  3
AutoCAD 2000
 90
        0
280
     0
281
     0
  0
CLASS
  1
LWPOLYLINE
  2
AcDbPolyline
  3
AutoCAD 2000
 90
        0
280
     0
281
     1
  0
CLASS
  1
HATCH
  2
AcDbHatch
  3
AutoCAD 2000
 90
        0
280
     0
281
     1
  0
CLASS
  1
XRECORD
  2
AcDbXrecord
  3
AutoCAD 2000
 90
        0
280
     0
281
     0
  0
ENDSEC
  0
SECTION
  2
TABLES
  0
TABLE
  2
VPORT
  5
8
330
0
100
AcDbSymbolTable
 70
     3
  0
VPORT
  5
2B
330
8
100
AcDbSymbolTableRecord
100
AcDbViewportTableRecord
  2
*ACTIVE
 70
     0
 10
0.0
 20
0.0
 11
1.0
 21
1.0
 12
8.841614906832298
 22
4.5
 13
0.0
 23
0.0
 14
0.5
 24
0.5
 15
0.5
 25
0.5
 16
0.0
 26
0.0
 36
1.0
 17
0.0
 27
0.0
 37
0.0
 40
9.0
 41
1.964803312629399
 42
50.0
 43
0.0
 44
0.0
 50
0.0
 51
0.0
 71
     0
 72
   100
 73
     1
 74
     3
 75
     0
 76
     0
 77
     0
 78
     0
  0
ENDTAB
  0
TABLE
  2
LTYPE
  5
5
330
0
100
AcDbSymbolTable
 70
     1
  0
LTYPE
  5
14
330
5
100
AcDbSymbolTableRecord
100
AcDbLinetypeTableRecord
  2
BYBLOCK
 70
     0
  3

 72
    65
 73
     0
 40
0.0
  0
LTYPE
  5
15
330
5
100
AcDbSymbolTableRecord
100
AcDbLinetypeTableRecord
  2
BYLAYER
 70
     0
  3

 72
    65
 73
     0
 40
0.0
  0
LTYPE
  5
16
330
5
100
AcDbSymbolTableRecord
100
AcDbLinetypeTableRecord
  2
CONTINUOUS
 70
     0
  3
Solid line
 72
    65
 73
     0
 40
0.0
  0
ENDTAB
  0
TABLE
  2
LAYER
  5
2
330
0
100
AcDbSymbolTable
 70
     1
  0
LAYER
  5
10
330
2
100
AcDbSymbolTableRecord
100
AcDbLayerTableRecord
  2
0
 70
     0
 62
     7
  6
CONTINUOUS
  0
ENDTAB
  0
TABLE
  2
STYLE
  5
3
330
0
100
AcDbSymbolTable
 70
     1
  0
STYLE
  5
11
330
3
100
AcDbSymbolTableRecord
100
AcDbTextStyleTableRecord
  2
STANDARD
 70
     0
 40
0.0
 41
1.0
 50
0.0
 71
     0
 42
0.2
  3
txt
  4

  0
ENDTAB
  0
TABLE
  2
VIEW
  5
6
330
0
100
AcDbSymbolTable
 70
     0
  0
ENDTAB
  0
TABLE
  2
UCS
  5
7
330
0
100
AcDbSymbolTable
 70
     0
  0
ENDTAB
  0
TABLE
  2
APPID
  5
9
330
0
100
AcDbSymbolTable
 70
     1
  0
APPID
  5
12
330
9
100
AcDbSymbolTableRecord
100
AcDbRegAppTableRecord
  2
ACAD
 70
     0
  0
ENDTAB
  0
TABLE
  2
DIMSTYLE
  5
A
330
0
100
AcDbSymbolTable
 70
     1
  0
DIMSTYLE
105
27
330
A
100
AcDbSymbolTableRecord
100
AcDbDimStyleTableRecord
  2
STANDARD
 70
     0
  3

  4

  5

  6

  7

 40
1.0
 41
0.18
 42
0.0625
 43
0.38
 44
0.18
 45
0.0
 46
0.0
 47
0.0
 48
0.0
140
0.18
141
0.09
142
0.0
143
25.4
144
1.0
145
0.0
146
1.0
147
0.09
 71
     0
 72
     0
 73
     1
 74
     1
 75
     0
 76
     0
 77
     0
 78
     0
170
     0
171
     2
172
     0
173
     0
174
     0
175
     0
176
     0
177
     0
178
     0
270
     2
271
     4
272
     4
273
     2
274
     2
340
11
275
     0
280
     0
281
     0
282
     0
283
     1
284
     0
285
     0
286
     0
287
     3
288
     0
  0
ENDTAB
  0
TABLE
  2
BLOCK_RECORD
  5
1
330
0
100
AcDbSymbolTable
 70
     1
  0
BLOCK_RECORD
  5
1F
102
{ACAD_XDICTIONARY
360
4E
102
}
330
1
100
AcDbSymbolTableRecord
100
AcDbBlockTableRecord
  2
*MODEL_SPACE
  0
BLOCK_RECORD
  5
1B
102
{ACAD_XDICTIONARY
360
4C
102
}
330
1
100
AcDbSymbolTableRecord
100
AcDbBlockTableRecord
  2
*PAPER_SPACE
  0
ENDTAB
  0
ENDSEC
  0
SECTION
  2
BLOCKS
  0
BLOCK
  5
20
330
1F
100
AcDbEntity
  8
0
100
AcDbBlockBegin
  2
*MODEL_SPACE
 70
     0
 10
0.0
 20
0.0
 30
0.0
  3
*MODEL_SPACE
  1

  0
ENDBLK
  5
21
330
1F
100
AcDbEntity
  8
0
100
AcDbBlockEnd
  0
BLOCK
  5
1C
330
1B
100
AcDbEntity
 67
     1
  8
0
100
AcDbBlockBegin
  2
*PAPER_SPACE
 70
     0
 10
0.0
 20
0.0
 30
0.0
  3
*PAPER_SPACE
  1

  0
ENDBLK
  5
1D
330
1B
100
AcDbEntity
 67
     1
  8
0
100
AcDbBlockEnd
  0
ENDSEC
  0
SECTION
  2
ENTITIES
0
LWPOLYLINE
5
1000
100
AcDbEntity
8
0
100
AcDbPolyline
90
38
70
0
43
0.000000
10
-179.070879
20
-108.795166
10
-179.070879
20
-106.636162
10
-179.070879
20
-106.636162
10
-179.070879
20
-104.578164
10
-179.070879
20
-104.578164
10
-178.790879
20
-104.756162
10
-178.790879
20
-104.756162
10
-177.088887
20
-104.756162
10
-177.088887
20
-104.756162
10
-176.911875
20
-104.578164
10
-176.911875
20
-104.578164
10
-176.657891
20
-104.832168
10
-176.657891
20
-104.832168
10
-176.784863
20
-104.934170
10
-176.784863
20
-104.934170
10
-176.784863
20
-108.338164
10
-176.784863
20
-108.338164
10
-176.860879
20
-108.592168
10
-176.860879
20
-108.592168
10
-177.165879
20
-108.795166
10
-177.165879
20
-108.795166
10
-177.698887
20
-108.388174
10
-177.698887
20
-108.388174
10
-177.698887
20
-108.312158
10
-177.698887
20
-108.312158
10
-177.139883
20
-108.363164
10
-177.139883
20
-108.363164
10
-177.063887
20
-108.261172
10
-177.063887
20
-108.261172
10
-177.063887
20
-104.858164
10
-177.063887
20
-104.858164
10
-178.790879
20
-104.858164
10
-178.790879
20
-104.858164
10
-178.790879
20
-108.007158
10
-178.790879
20
-108.007158
10
-178.790879
20
-108.642158
10
-178.790879
20
-108.642158
10
-179.070879
20
-108.795166
0
LWPOLYLINE
5
1001
100
AcDbEntity
8
0
100
AcDbPolyline
90
30
70
0
43
0.000000
10
-178.638867
20
-105.391162
10
-177.901875
20
-106.179160
10
-177.901875
20
-106.179160
10
-177.647871
20
-105.137168
10
-177.647871
20
-105.137168
10
-177.266875
20
-105.366172
10
-177.266875
20
-105.366172
10
-177.393887
20
-105.493154
10
-177.393887
20
-105.493154
10
-177.723887
20
-106.407168
10
-177.723887
20
-106.407168
10
-177.342871
20
-107.017158
10
-177.342871
20
-107.017158
10
-177.215879
20
-107.372168
10
-177.215879
20
-107.372168
10
-177.317871
20
-107.576162
10
-177.317871
20
-107.576162
10
-177.520879
20
-107.372168
10
-177.520879
20
-107.372168
10
-177.850879
20
-106.687158
10
-177.850879
20
-106.687158
10
-178.689883
20
-107.804160
10
-178.689883
20
-107.804160
10
-178.739883
20
-107.753174
10
-178.739883
20
-107.753174
10
-178.003887
20
-106.433164
10
-178.003887
20
-106.433164
10
-178.689883
20
-105.442168
10
-178.689883
20
-105.442168
10
-178.638867
20
-105.391162
0
LWPOLYLINE
5
1002
100
AcDbEntity
8
0
100
AcDbPolyline
90
66
70
0
43
0.000000
10
-180.035879
20
-108.109160
10
-179.197871
20
-107.525166
10
-179.197871
20
-107.525166
10
-179.146895
20
-107.576162
10
-179.146895
20
-107.576162
10
-180.162871
20
-108.617168
10
-180.162871
20
-108.617168
10
-180.390879
20
-108.338164
10
-180.390879
20
-108.338164
10
-180.314883
20
-108.033164
10
-180.314883
20
-108.033164
10
-180.314883
20
-106.991172
10
-180.314883
20
-106.991172
10
-180.467871
20
-106.991172
10
-180.467871
20
-106.991172
10
-180.949883
20
-107.042168
10
-180.949883
20
-107.042168
10
-181.127871
20
-106.864170
10
-181.127871
20
-106.864170
10
-180.314883
20
-106.864170
10
-180.314883
20
-106.864170
10
-180.314883
20
-106.077168
10
-180.314883
20
-106.077168
10
-180.695879
20
-106.077168
10
-180.695879
20
-106.077168
10
-181.127871
20
-106.560166
10
-181.127871
20
-106.560166
10
-181.178887
20
-106.509160
10
-181.178887
20
-106.509160
10
-180.263867
20
-104.324160
10
-180.263867
20
-104.324160
10
-179.882891
20
-104.553164
10
-179.882891
20
-104.553164
10
-180.035879
20
-104.680166
10
-180.035879
20
-104.680166
10
-180.263867
20
-105.188164
10
-180.263867
20
-105.188164
10
-179.628887
20
-105.188164
10
-179.628887
20
-105.188164
10
-179.400879
20
-104.985166
10
-179.400879
20
-104.985166
10
-179.095879
20
-105.315166
10
-179.095879
20
-105.315166
10
-180.289883
20
-105.315166
10
-180.289883
20
-105.315166
10
-180.644883
20
-105.950166
10
-180.644883
20
-105.950166
10
-179.755879
20
-105.950166
10
-179.755879
20
-105.950166
10
-179.578887
20
-105.772168
10
-179.578887
20
-105.772168
10
-179.273867
20
-106.077168
10
-179.273867
20
-106.077168
10
-180.035879
20
-106.077168
10
-180.035879
20
-106.077168
10
-180.035879
20
-106.864170
10
-180.035879
20
-106.864170
10
-179.628887
20
-106.864170
10
-179.628887
20
-106.864170
10
-179.400879
20
-106.636162
10
-179.400879
20
-106.636162
10
-179.095879
20
-106.991172
10
-179.095879
20
-106.991172
10
-180.035879
20
-106.991172
10
-180.035879
20
-106.991172
10
-180.035879
20
-108.109160
0
LWPOLYLINE
5
1003
100
AcDbEntity
8
0
100
AcDbPolyline
90
52
70
0
43
0.000000
10
-174.269863
20
-105.899170
10
-174.294883
20
-106.737168
10
-174.294883
20
-106.737168
10
-172.643867
20
-106.737168
10
-172.643867
20
-106.737168
10
-172.516875
20
-106.534170
10
-172.516875
20
-106.534170
10
-172.186875
20
-106.788154
10
-172.186875
20
-106.788154
10
-172.339863
20
-106.915156
10
-172.339863
20
-106.915156
10
-172.313867
20
-108.719170
10
-172.313867
20
-108.719170
10
-172.643867
20
-108.871162
10
-172.643867
20
-108.871162
10
-172.618887
20
-106.864170
10
-172.618887
20
-106.864170
10
-174.294883
20
-106.864170
10
-174.294883
20
-106.864170
10
-175.463887
20
-108.769160
10
-175.463887
20
-108.769160
10
-175.488867
20
-108.693164
10
-175.488867
20
-108.693164
10
-174.752871
20
-107.576162
10
-174.752871
20
-107.576162
10
-174.548887
20
-106.026172
10
-174.548887
20
-106.026172
10
-174.548887
20
-104.528154
10
-174.548887
20
-104.528154
10
-174.091875
20
-104.756162
10
-174.091875
20
-104.756162
10
-174.269863
20
-104.909170
10
-174.269863
20
-104.909170
10
-174.269863
20
-105.772168
10
-174.269863
20
-105.772168
10
-172.923887
20
-105.772168
10
-172.923887
20
-105.772168
10
-172.948887
20
-104.274170
10
-172.948887
20
-104.274170
10
-172.491875
20
-104.502168
10
-172.491875
20
-104.502168
10
-172.643867
20
-104.655166
10
-172.643867
20
-104.655166
10
-172.643867
20
-105.772168
10
-172.643867
20
-105.772168
10
-171.831875
20
-105.772168
10
-171.831875
20
-105.772168
10
-171.526875
20
-105.493154
10
-171.526875
20
-105.493154
10
-171.196875
20
-105.899170
10
-171.196875
20
-105.899170
10
-174.269863
20
-105.899170
0
LWPOLYLINE
5
1004
100
AcDbEntity
8
0
100
AcDbPolyline
90
2
70
0
43
0.000000
10
-181.771250
20
-112.361357
10
-181.771250
20
-116.111357
0
LWPOLYLINE
5
1005
100
AcDbEntity
8
0
100
AcDbPolyline
90
2
70
0
43
0.000000
10
-181.771250
20
-112.361357
10
-180.342676
20
-116.111357
0
LWPOLYLINE
5
1006
100
AcDbEntity
8
0
100
AcDbPolyline
90
2
70
0
43
0.000000
10
-178.914102
20
-112.361357
10
-180.342676
20
-116.111357
0
LWPOLYLINE
5
1007
100
AcDbEntity
8
0
100
AcDbPolyline
90
2
70
0
43
0.000000
10
-178.914102
20
-112.361357
10
-178.914102
20
-116.111357
0
LWPOLYLINE
5
1008
100
AcDbEntity
8
0
100
AcDbPolyline
90
40
70
0
43
0.000000
10
-176.771230
20
-112.361357
10
-177.128398
20
-112.539932
10
-177.128398
20
-112.539932
10
-177.485527
20
-112.897070
10
-177.485527
20
-112.897070
10
-177.664102
20
-113.254219
10
-177.664102
20
-113.254219
10
-177.842676
20
-113.789932
10
-177.842676
20
-113.789932
10
-177.842676
20
-114.682783
10
-177.842676
20
-114.682783
10
-177.664102
20
-115.218506
10
-177.664102
20
-115.218506
10
-177.485527
20
-115.575645
10
-177.485527
20
-115.575645
10
-177.128398
20
-115.932773
10
-177.128398
20
-115.932773
10
-176.771230
20
-116.111357
10
-176.771230
20
-116.111357
10
-176.056953
20
-116.111357
10
-176.056953
20
-116.111357
10
-175.699824
20
-115.932773
10
-175.699824
20
-115.932773
10
-175.342676
20
-115.575645
10
-175.342676
20
-115.575645
10
-175.164102
20
-115.218506
10
-175.164102
20
-115.218506
10
-174.985527
20
-114.682783
10
-174.985527
20
-114.682783
10
-174.985527
20
-113.789932
10
-174.985527
20
-113.789932
10
-175.164102
20
-113.254219
10
-175.164102
20
-113.254219
10
-175.342676
20
-112.897070
10
-175.342676
20
-112.897070
10
-175.699824
20
-112.539932
10
-175.699824
20
-112.539932
10
-176.056953
20
-112.361357
10
-176.056953
20
-112.361357
10
-176.771230
20
-112.361357
0
LWPOLYLINE
5
1009
100
AcDbEntity
8
0
100
AcDbPolyline
90
2
70
0
43
0.000000
10
-173.914102
20
-112.361357
10
-173.914102
20
-116.111357
0
LWPOLYLINE
5
1010
100
AcDbEntity
8
0
100
AcDbPolyline
90
22
70
0
43
0.000000
10
-173.914102
20
-112.361357
10
-172.664102
20
-112.361357
10
-172.664102
20
-112.361357
10
-172.128379
20
-112.539932
10
-172.128379
20
-112.539932
10
-171.771250
20
-112.897070
10
-171.771250
20
-112.897070
10
-171.592676
20
-113.254219
10
-171.592676
20
-113.254219
10
-171.414102
20
-113.789932
10
-171.414102
20
-113.789932
10
-171.414102
20
-114.682783
10
-171.414102
20
-114.682783
10
-171.592676
20
-115.218506
10
-171.592676
20
-115.218506
10
-171.771250
20
-115.575645
10
-171.771250
20
-115.575645
10
-172.128379
20
-115.932773
10
-172.128379
20
-115.932773
10
-172.664102
20
-116.111357
10
-172.664102
20
-116.111357
10
-173.914102
20
-116.111357
0
LWPOLYLINE
5
1011
100
AcDbEntity
8
0
100
AcDbPolyline
90
2
70
0
43
0.000000
10
-170.342676
20
-112.361357
10
-170.342676
20
-116.111357
0
LWPOLYLINE
5
1012
100
AcDbEntity
8
0
100
AcDbPolyline
90
2
70
0
43
0.000000
10
-170.342676
20
-112.361357
10
-168.021250
20
-112.361357
0
LWPOLYLINE
5
1013
100
AcDbEntity
8
0
100
AcDbPolyline
90
2
70
0
43
0.000000
10
-170.342676
20
-114.147070
10
-168.914102
20
-114.147070
0
LWPOLYLINE
5
1014
100
AcDbEntity
8
0
100
AcDbPolyline
90
2
70
0
43
0.000000
10
-170.342676
20
-116.111357
10
-168.021250
20
-116.111357
0
LWPOLYLINE
5
1015
100
AcDbEntity
8
0
100
AcDbPolyline
90
2
70
0
43
0.000000
10
-166.949805
20
-112.361357
10
-166.949805
20
-116.111357
0
LWPOLYLINE
5
1016
100
AcDbEntity
8
0
100
AcDbPolyline
90
2
70
0
43
0.000000
10
-166.949805
20
-116.111357
10
-164.806953
20
-116.111357
0
LWPOLYLINE
5
1017
100
AcDbEntity
8
0
100
AcDbPolyline
90
8
70
0
43
0.000000
10
-163.556963
20
-113.611357
10
-163.735527
20
-113.789932
10
-163.735527
20
-113.789932
10
-163.556963
20
-113.968496
10
-163.556963
20
-113.968496
10
-163.378389
20
-113.789932
10
-163.378389
20
-113.789932
10
-163.556963
20
-113.611357
0
LWPOLYLINE
5
1018
100
AcDbEntity
8
0
100
AcDbPolyline
90
8
70
0
43
0.000000
10
-163.556963
20
-115.754219
10
-163.735527
20
-115.932773
10
-163.735527
20
-115.932773
10
-163.556963
20
-116.111357
10
-163.556963
20
-116.111357
10
-163.378389
20
-115.932773
10
-163.378389
20
-115.932773
10
-163.556963
20
-115.754219
0
LWPOLYLINE
5
1019
100
AcDbEntity
8
0
100
AcDbPolyline
90
38
70
0
43
0.000000
10
-159.806953
20
-112.897070
10
-160.164102
20
-112.539932
10
-160.164102
20
-112.539932
10
-160.699814
20
-112.361357
10
-160.699814
20
-112.361357
10
-161.414102
20
-112.361357
10
-161.414102
20
-112.361357
10
-161.949814
20
-112.539932
10
-161.949814
20
-112.539932
10
-162.306963
20
-112.897070
10
-162.306963
20
-112.897070
10
-162.306963
20
-113.254219
10
-162.306963
20
-113.254219
10
-162.128389
20
-113.611357
10
-162.128389
20
-113.611357
10
-161.949814
20
-113.789932
10
-161.949814
20
-113.789932
10
-161.592676
20
-113.968496
10
-161.592676
20
-113.968496
10
-160.521240
20
-114.325645
10
-160.521240
20
-114.325645
10
-160.164102
20
-114.504219
10
-160.164102
20
-114.504219
10
-159.985527
20
-114.682783
10
-159.985527
20
-114.682783
10
-159.806953
20
-115.039932
10
-159.806953
20
-115.039932
10
-159.806953
20
-115.575645
10
-159.806953
20
-115.575645
10
-160.164102
20
-115.932773
10
-160.164102
20
-115.932773
10
-160.699814
20
-116.111357
10
-160.699814
20
-116.111357
10
-161.414102
20
-116.111357
10
-161.414102
20
-116.111357
10
-161.949814
20
-115.932773
10
-161.949814
20
-115.932773
10
-162.306963
20
-115.575645
0
LWPOLYLINE
5
1020
100
AcDbEntity
8
0
100
AcDbPolyline
90
4
70
0
43
0.000000
10
-158.735527
20
-112.361357
10
-157.306953
20
-114.147070
10
-157.306953
20
-114.147070
10
-157.306953
20
-116.111357
0
LWPOLYLINE
5
1021
100
AcDbEntity
8
0
100
AcDbPolyline
90
2
70
0
43
0.000000
10
-155.878379
20
-112.361357
10
-157.306953
20
-114.147070
0
LWPOLYLINE
5
1022
100
AcDbEntity
8
0
100
AcDbPolyline
90
2
70
0
43
0.000000
10
-154.806953
20
-112.361357
10
-154.806953
20
-116.111357
0
LWPOLYLINE
5
1023
100
AcDbEntity
8
0
100
AcDbPolyline
90
2
70
0
43
0.000000
10
-154.806953
20
-112.361357
10
-152.306963
20
-116.111357
0
LWPOLYLINE
5
1024
100
AcDbEntity
8
0
100
AcDbPolyline
90
2
70
0
43
0.000000
10
-152.306963
20
-112.361357
10
-152.306963
20
-116.111357
0
LWPOLYLINE
5
1025
100
AcDbEntity
8
0
100
AcDbPolyline
90
2
70
0
43
0.000000
10
-149.806963
20
-112.361357
10
-151.235537
20
-116.111357
0
LWPOLYLINE
5
1026
100
AcDbEntity
8
0
100
AcDbPolyline
90
2
70
0
43
0.000000
10
-149.806963
20
-112.361357
10
-148.378389
20
-116.111357
0
LWPOLYLINE
5
1027
100
AcDbEntity
8
0
100
AcDbPolyline
90
2
70
0
43
0.000000
10
-150.699824
20
-114.861357
10
-148.914102
20
-114.861357
0
LWPOLYLINE
5
1028
100
AcDbEntity
8
0
100
AcDbPolyline
90
2
70
0
43
0.000000
10
-147.306963
20
-112.361357
10
-147.306963
20
-116.111357
0
LWPOLYLINE
5
1029
100
AcDbEntity
8
0
100
AcDbPolyline
90
18
70
0
43
0.000000
10
-147.306963
20
-112.361357
10
-145.699814
20
-112.361357
10
-145.699814
20
-112.361357
10
-145.164102
20
-112.539932
10
-145.164102
20
-112.539932
10
-144.985527
20
-112.718496
10
-144.985527
20
-112.718496
10
-144.806963
20
-113.075645
10
-144.806963
20
-113.075645
10
-144.806963
20
-113.611357
10
-144.806963
20
-113.611357
10
-144.985527
20
-113.968496
10
-144.985527
20
-113.968496
10
-145.164102
20
-114.147070
10
-145.164102
20
-114.147070
10
-145.699814
20
-114.325645
10
-145.699814
20
-114.325645
10
-147.306963
20
-114.325645
0
LWPOLYLINE
5
1030
100
AcDbEntity
8
0
100
AcDbPolyline
90
38
70
0
43
0.000000
10
-141.235527
20
-112.897070
10
-141.592686
20
-112.539932
10
-141.592686
20
-112.539932
10
-142.128389
20
-112.361357
10
-142.128389
20
-112.361357
10
-142.842676
20
-112.361357
10
-142.842676
20
-112.361357
10
-143.378389
20
-112.539932
10
-143.378389
20
-112.539932
10
-143.735527
20
-112.897070
10
-143.735527
20
-112.897070
10
-143.735527
20
-113.254219
10
-143.735527
20
-113.254219
10
-143.556963
20
-113.611357
10
-143.556963
20
-113.611357
10
-143.378389
20
-113.789932
10
-143.378389
20
-113.789932
10
-143.021240
20
-113.968496
10
-143.021240
20
-113.968496
10
-141.949814
20
-114.325645
10
-141.949814
20
-114.325645
10
-141.592686
20
-114.504219
10
-141.592686
20
-114.504219
10
-141.414102
20
-114.682783
10
-141.414102
20
-114.682783
10
-141.235527
20
-115.039932
10
-141.235527
20
-115.039932
10
-141.235527
20
-115.575645
10
-141.235527
20
-115.575645
10
-141.592686
20
-115.932773
10
-141.592686
20
-115.932773
10
-142.128389
20
-116.111357
10
-142.128389
20
-116.111357
10
-142.842676
20
-116.111357
10
-142.842676
20
-116.111357
10
-143.378389
20
-115.932773
10
-143.378389
20
-115.932773
10
-143.735527
20
-115.575645
0
LWPOLYLINE
5
1031
100
AcDbEntity
8
0
100
AcDbPolyline
90
2
70
0
43
0.000000
10
-140.164111
20
-112.361357
10
-140.164111
20
-116.111357
0
LWPOLYLINE
5
1032
100
AcDbEntity
8
0
100
AcDbPolyline
90
2
70
0
43
0.000000
10
-140.164111
20
-112.361357
10
-137.842666
20
-112.361357
0
LWPOLYLINE
5
1033
100
AcDbEntity
8
0
100
AcDbPolyline
90
2
70
0
43
0.000000
10
-140.164111
20
-114.147070
10
-138.735537
20
-114.147070
0
LWPOLYLINE
5
1034
100
AcDbEntity
8
0
100
AcDbPolyline
90
2
70
0
43
0.000000
10
-140.164111
20
-116.111357
10
-137.842666
20
-116.111357
0
LWPOLYLINE
5
1035
100
AcDbEntity
8
0
100
AcDbPolyline
90
2
70
0
43
0.000000
10
-136.771250
20
-117.361348
10
-133.556963
20
-117.361348
0
LWPOLYLINE
5
1036
100
AcDbEntity
8
0
100
AcDbPolyline
90
38
70
0
43
0.000000
10
-129.985527
20
-112.897070
10
-130.342676
20
-112.539932
10
-130.342676
20
-112.539932
10
-130.878389
20
-112.361357
10
-130.878389
20
-112.361357
10
-131.592676
20
-112.361357
10
-131.592676
20
-112.361357
10
-132.128389
20
-112.539932
10
-132.128389
20
-112.539932
10
-132.485537
20
-112.897070
10
-132.485537
20
-112.897070
10
-132.485537
20
-113.254219
10
-132.485537
20
-113.254219
10
-132.306963
20
-113.611357
10
-132.306963
20
-113.611357
10
-132.128389
20
-113.789932
10
-132.128389
20
-113.789932
10
-131.771250
20
-113.968496
10
-131.771250
20
-113.968496
10
-130.699814
20
-114.325645
10
-130.699814
20
-114.325645
10
-130.342676
20
-114.504219
10
-130.342676
20
-114.504219
10
-130.164102
20
-114.682783
10
-130.164102
20
-114.682783
10
-129.985527
20
-115.039932
10
-129.985527
20
-115.039932
10
-129.985527
20
-115.575645
10
-129.985527
20
-115.575645
10
-130.342676
20
-115.932773
10
-130.342676
20
-115.932773
10
-130.878389
20
-116.111357
10
-130.878389
20
-116.111357
10
-131.592676
20
-116.111357
10
-131.592676
20
-116.111357
10
-132.128389
20
-115.932773
10
-132.128389
20
-115.932773
10
-132.485537
20
-115.575645
0
LWPOLYLINE
5
1037
100
AcDbEntity
8
0
100
AcDbPolyline
90
40
70
0
43
0.000000
10
-127.842676
20
-112.361357
10
-128.199814
20
-112.539932
10
-128.199814
20
-112.539932
10
-128.556963
20
-112.897070
10
-128.556963
20
-112.897070
10
-128.735527
20
-113.254219
10
-128.735527
20
-113.254219
10
-128.914102
20
-113.789932
10
-128.914102
20
-113.789932
10
-128.914102
20
-114.682783
10
-128.914102
20
-114.682783
10
-128.735527
20
-115.218506
10
-128.735527
20
-115.218506
10
-128.556963
20
-115.575645
10
-128.556963
20
-115.575645
10
-128.199814
20
-115.932773
10
-128.199814
20
-115.932773
10
-127.842676
20
-116.111357
10
-127.842676
20
-116.111357
10
-127.128389
20
-116.111357
10
-127.128389
20
-116.111357
10
-126.771240
20
-115.932773
10
-126.771240
20
-115.932773
10
-126.414102
20
-115.575645
10
-126.414102
20
-115.575645
10
-126.235527
20
-115.218506
10
-126.235527
20
-115.218506
10
-126.056953
20
-114.682783
10
-126.056953
20
-114.682783
10
-126.056953
20
-113.789932
10
-126.056953
20
-113.789932
10
-126.235527
20
-113.254219
10
-126.235527
20
-113.254219
10
-126.414102
20
-112.897070
10
-126.414102
20
-112.897070
10
-126.771240
20
-112.539932
10
-126.771240
20
-112.539932
10
-127.128389
20
-112.361357
10
-127.128389
20
-112.361357
10
-127.842676
20
-112.361357
0
LWPOLYLINE
5
1038
100
AcDbEntity
8
0
100
AcDbPolyline
90
2
70
0
43
0.000000
10
-124.985537
20
-112.361357
10
-124.985537
20
-116.111357
0
LWPOLYLINE
5
1039
100
AcDbEntity
8
0
100
AcDbPolyline
90
2
70
0
43
0.000000
10
-124.985537
20
-112.361357
10
-122.485537
20
-116.111357
0
LWPOLYLINE
5
1040
100
AcDbEntity
8
0
100
AcDbPolyline
90
2
70
0
43
0.000000
10
-122.485537
20
-112.361357
10
-122.485537
20
-116.111357
0
LWPOLYLINE
5
1041
100
AcDbEntity
8
0
100
AcDbPolyline
90
2
70
0
43
0.000000
10
-121.414111
20
-117.361348
10
-118.199814
20
-117.361348
0
LWPOLYLINE
5
1042
100
AcDbEntity
8
0
100
AcDbPolyline
90
18
70
0
43
0.000000
10
-117.128398
20
-112.361357
10
-117.128398
20
-115.039932
10
-117.128398
20
-115.039932
10
-116.949814
20
-115.575645
10
-116.949814
20
-115.575645
10
-116.592676
20
-115.932773
10
-116.592676
20
-115.932773
10
-116.056963
20
-116.111357
10
-116.056963
20
-116.111357
10
-115.699824
20
-116.111357
10
-115.699824
20
-116.111357
10
-115.164111
20
-115.932773
10
-115.164111
20
-115.932773
10
-114.806963
20
-115.575645
10
-114.806963
20
-115.575645
10
-114.628389
20
-115.039932
10
-114.628389
20
-115.039932
10
-114.628389
20
-112.361357
0
LWPOLYLINE
5
1043
100
AcDbEntity
8
0
100
AcDbPolyline
90
2
70
0
43
0.000000
10
-113.556963
20
-112.361357
10
-113.556963
20
-116.111357
0
LWPOLYLINE
5
1044
100
AcDbEntity
8
0
100
AcDbPolyline
90
18
70
0
43
0.000000
10
-113.556963
20
-112.361357
10
-111.949814
20
-112.361357
10
-111.949814
20
-112.361357
10
-111.414102
20
-112.539932
10
-111.414102
20
-112.539932
10
-111.235537
20
-112.718496
10
-111.235537
20
-112.718496
10
-111.056963
20
-113.075645
10
-111.056963
20
-113.075645
10
-111.056963
20
-113.611357
10
-111.056963
20
-113.611357
10
-111.235537
20
-113.968496
10
-111.235537
20
-113.968496
10
-111.414102
20
-114.147070
10
-111.414102
20
-114.147070
10
-111.949814
20
-114.325645
10
-111.949814
20
-114.325645
10
-113.556963
20
-114.325645
0
LWPOLYLINE
5
1045
100
AcDbEntity
8
0
100
AcDbPolyline
90
2
70
0
43
0.000000
10
-109.985537
20
-112.361357
10
-109.985537
20
-116.111357
0
LWPOLYLINE
5
1046
100
AcDbEntity
8
0
100
AcDbPolyline
90
22
70
0
43
0.000000
10
-109.985537
20
-112.361357
10
-108.735527
20
-112.361357
10
-108.735527
20
-112.361357
10
-108.199824
20
-112.539932
10
-108.199824
20
-112.539932
10
-107.842676
20
-112.897070
10
-107.842676
20
-112.897070
10
-107.664111
20
-113.254219
10
-107.664111
20
-113.254219
10
-107.485537
20
-113.789932
10
-107.485537
20
-113.789932
10
-107.485537
20
-114.682783
10
-107.485537
20
-114.682783
10
-107.664111
20
-115.218506
10
-107.664111
20
-115.218506
10
-107.842676
20
-115.575645
10
-107.842676
20
-115.575645
10
-108.199824
20
-115.932773
10
-108.199824
20
-115.932773
10
-108.735527
20
-116.111357
10
-108.735527
20
-116.111357
10
-109.985537
20
-116.111357
0
LWPOLYLINE
5
1047
100
AcDbEntity
8
0
100
AcDbPolyline
90
2
70
0
43
0.000000
10
-104.985537
20
-112.361357
10
-106.414102
20
-116.111357
0
LWPOLYLINE
5
1048
100
AcDbEntity
8
0
100
AcDbPolyline
90
2
70
0
43
0.000000
10
-104.985537
20
-112.361357
10
-103.556963
20
-116.111357
0
LWPOLYLINE
5
1049
100
AcDbEntity
8
0
100
AcDbPolyline
90
2
70
0
43
0.000000
10
-105.878389
20
-114.861357
10
-104.092676
20
-114.861357
0
LWPOLYLINE
5
1050
100
AcDbEntity
8
0
100
AcDbPolyline
90
2
70
0
43
0.000000
10
-101.235527
20
-112.361357
10
-101.235527
20
-116.111357
0
LWPOLYLINE
5
1051
100
AcDbEntity
8
0
100
AcDbPolyline
90
2
70
0
43
0.000000
10
-102.485537
20
-112.361357
10
-99.985537
20
-112.361357
0
LWPOLYLINE
5
1052
100
AcDbEntity
8
0
100
AcDbPolyline
90
2
70
0
43
0.000000
10
-98.914111
20
-112.361357
10
-98.914111
20
-116.111357
0
LWPOLYLINE
5
1053
100
AcDbEntity
8
0
100
AcDbPolyline
90
2
70
0
43
0.000000
10
-98.914111
20
-112.361357
10
-96.592676
20
-112.361357
0
LWPOLYLINE
5
1054
100
AcDbEntity
8
0
100
AcDbPolyline
90
2
70
0
43
0.000000
10
-98.914111
20
-114.147070
10
-97.485537
20
-114.147070
0
LWPOLYLINE
5
1055
100
AcDbEntity
8
0
100
AcDbPolyline
90
2
70
0
43
0.000000
10
-98.914111
20
-116.111357
10
-96.592676
20
-116.111357
0
LWPOLYLINE
5
1056
100
AcDbEntity
8
0
100
AcDbPolyline
90
2
70
0
43
0.000000
10
-95.521250
20
-117.361348
10
-92.306963
20
-117.361348
0
LWPOLYLINE
5
1057
100
AcDbEntity
8
0
100
AcDbPolyline
90
4
70
0
43
0.000000
10
-91.235537
20
-112.361357
10
-89.806963
20
-114.147070
10
-89.806963
20
-114.147070
10
-89.806963
20
-116.111357
0
LWPOLYLINE
5
1058
100
AcDbEntity
8
0
100
AcDbPolyline
90
2
70
0
43
0.000000
10
-88.378389
20
-112.361357
10
-89.806963
20
-114.147070
0
LWPOLYLINE
5
1059
100
AcDbEntity
8
0
100
AcDbPolyline
90
26
70
0
43
0.000000
10
-87.128389
20
-113.254219
10
-87.128389
20
-113.075645
10
-87.128389
20
-113.075645
10
-86.949814
20
-112.718496
10
-86.949814
20
-112.718496
10
-86.771250
20
-112.539932
10
-86.771250
20
-112.539932
10
-86.414102
20
-112.361357
10
-86.414102
20
-112.361357
10
-85.699814
20
-112.361357
10
-85.699814
20
-112.361357
10
-85.342676
20
-112.539932
10
-85.342676
20
-112.539932
10
-85.164111
20
-112.718496
10
-85.164111
20
-112.718496
10
-84.985527
20
-113.075645
10
-84.985527
20
-113.075645
10
-84.985527
20
-113.432783
10
-84.985527
20
-113.432783
10
-85.164111
20
-113.789932
10
-85.164111
20
-113.789932
10
-85.521250
20
-114.325645
10
-85.521250
20
-114.325645
10
-87.306963
20
-116.111357
10
-87.306963
20
-116.111357
10
-84.806963
20
-116.111357
0
LWPOLYLINE
5
1060
100
AcDbEntity
8
0
100
AcDbPolyline
90
14
70
0
43
0.000000
10
-82.842676
20
-112.361357
10
-83.199824
20
-112.718496
10
-83.199824
20
-112.718496
10
-83.556963
20
-113.254219
10
-83.556963
20
-113.254219
10
-83.735537
20
-113.968496
10
-83.735537
20
-113.968496
10
-83.735537
20
-114.682783
10
-83.735537
20
-114.682783
10
-83.556963
20
-115.397070
10
-83.556963
20
-115.397070
10
-83.199824
20
-115.932773
10
-83.199824
20
-115.932773
10
-82.842676
20
-116.289932
0
LWPOLYLINE
5
1061
100
AcDbEntity
8
0
100
AcDbPolyline
90
2
70
0
43
0.000000
10
-81.414102
20
-113.611357
10
-81.414102
20
-116.111357
0
LWPOLYLINE
5
1062
100
AcDbEntity
8
0
100
AcDbPolyline
90
8
70
0
43
0.000000
10
-81.414102
20
-114.682783
10
-81.235537
20
-114.147070
10
-81.235537
20
-114.147070
10
-80.878394
20
-113.789932
10
-80.878394
20
-113.789932
10
-80.521250
20
-113.611357
10
-80.521250
20
-113.611357
10
-79.985537
20
-113.611357
0
LWPOLYLINE
5
1063
100
AcDbEntity
8
0
100
AcDbPolyline
90
32
70
0
43
0.000000
10
-78.914106
20
-114.682783
10
-76.771250
20
-114.682783
10
-76.771250
20
-114.682783
10
-76.771250
20
-114.325645
10
-76.771250
20
-114.325645
10
-76.949819
20
-113.968496
10
-76.949819
20
-113.968496
10
-77.128389
20
-113.789932
10
-77.128389
20
-113.789932
10
-77.485532
20
-113.611357
10
-77.485532
20
-113.611357
10
-78.021250
20
-113.611357
10
-78.021250
20
-113.611357
10
-78.378394
20
-113.789932
10
-78.378394
20
-113.789932
10
-78.735537
20
-114.147070
10
-78.735537
20
-114.147070
10
-78.914106
20
-114.682783
10
-78.914106
20
-114.682783
10
-78.914106
20
-115.039932
10
-78.914106
20
-115.039932
10
-78.735537
20
-115.575645
10
-78.735537
20
-115.575645
10
-78.378394
20
-115.932773
10
-78.378394
20
-115.932773
10
-78.021250
20
-116.111357
10
-78.021250
20
-116.111357
10
-77.485532
20
-116.111357
10
-77.485532
20
-116.111357
10
-77.128389
20
-115.932773
10
-77.128389
20
-115.932773
10
-76.771250
20
-115.575645
0
LWPOLYLINE
5
1064
100
AcDbEntity
8
0
100
AcDbPolyline
90
2
70
0
43
0.000000
10
-75.699819
20
-113.611357
10
-75.699819
20
-117.361348
0
LWPOLYLINE
5
1065
100
AcDbEntity
8
0
100
AcDbPolyline
90
26
70
0
43
0.000000
10
-75.699819
20
-114.147070
10
-75.342676
20
-113.789932
10
-75.342676
20
-113.789932
10
-74.985532
20
-113.611357
10
-74.985532
20
-113.611357
10
-74.449824
20
-113.611357
10
-74.449824
20
-113.611357
10
-74.092681
20
-113.789932
10
-74.092681
20
-113.789932
10
-73.735537
20
-114.147070
10
-73.735537
20
-114.147070
10
-73.556958
20
-114.682783
10
-73.556958
20
-114.682783
10
-73.556958
20
-115.039932
10
-73.556958
20
-115.039932
10
-73.735537
20
-115.575645
10
-73.735537
20
-115.575645
10
-74.092681
20
-115.932773
10
-74.092681
20
-115.932773
10
-74.449824
20
-116.111357
10
-74.449824
20
-116.111357
10
-74.985532
20
-116.111357
10
-74.985532
20
-116.111357
10
-75.342676
20
-115.932773
10
-75.342676
20
-115.932773
10
-75.699819
20
-115.575645
0
LWPOLYLINE
5
1066
100
AcDbEntity
8
0
100
AcDbPolyline
90
2
70
0
43
0.000000
10
-72.485537
20
-112.361357
10
-72.485537
20
-116.111357
0
LWPOLYLINE
5
1067
100
AcDbEntity
8
0
100
AcDbPolyline
90
2
70
0
43
0.000000
10
-69.271250
20
-113.611357
10
-69.271250
20
-116.111357
0
LWPOLYLINE
5
1068
100
AcDbEntity
8
0
100
AcDbPolyline
90
26
70
0
43
0.000000
10
-69.271250
20
-114.147070
10
-69.628394
20
-113.789932
10
-69.628394
20
-113.789932
10
-69.985532
20
-113.611357
10
-69.985532
20
-113.611357
10
-70.521250
20
-113.611357
10
-70.521250
20
-113.611357
10
-70.878394
20
-113.789932
10
-70.878394
20
-113.789932
10
-71.235537
20
-114.147070
10
-71.235537
20
-114.147070
10
-71.414106
20
-114.682783
10
-71.414106
20
-114.682783
10
-71.414106
20
-115.039932
10
-71.414106
20
-115.039932
10
-71.235537
20
-115.575645
10
-71.235537
20
-115.575645
10
-70.878394
20
-115.932773
10
-70.878394
20
-115.932773
10
-70.521250
20
-116.111357
10
-70.521250
20
-116.111357
10
-69.985532
20
-116.111357
10
-69.985532
20
-116.111357
10
-69.628394
20
-115.932773
10
-69.628394
20
-115.932773
10
-69.271250
20
-115.575645
0
LWPOLYLINE
5
1069
100
AcDbEntity
8
0
100
AcDbPolyline
90
26
70
0
43
0.000000
10
-66.056958
20
-114.147070
10
-66.414102
20
-113.789932
10
-66.414102
20
-113.789932
10
-66.771245
20
-113.611357
10
-66.771245
20
-113.611357
10
-67.306968
20
-113.611357
10
-67.306968
20
-113.611357
10
-67.664111
20
-113.789932
10
-67.664111
20
-113.789932
10
-68.021245
20
-114.147070
10
-68.021245
20
-114.147070
10
-68.199819
20
-114.682783
10
-68.199819
20
-114.682783
10
-68.199819
20
-115.039932
10
-68.199819
20
-115.039932
10
-68.021245
20
-115.575645
10
-68.021245
20
-115.575645
10
-67.664111
20
-115.932773
10
-67.664111
20
-115.932773
10
-67.306968
20
-116.111357
10
-67.306968
20
-116.111357
10
-66.771245
20
-116.111357
10
-66.771245
20
-116.111357
10
-66.414102
20
-115.932773
10
-66.414102
20
-115.932773
10
-66.056958
20
-115.575645
0
LWPOLYLINE
5
1070
100
AcDbEntity
8
0
100
AcDbPolyline
90
32
70
0
43
0.000000
10
-64.985537
20
-114.682783
10
-62.842676
20
-114.682783
10
-62.842676
20
-114.682783
10
-62.842676
20
-114.325645
10
-62.842676
20
-114.325645
10
-63.021250
20
-113.968496
10
-63.021250
20
-113.968496
10
-63.199819
20
-113.789932
10
-63.199819
20
-113.789932
10
-63.556963
20
-113.611357
10
-63.556963
20
-113.611357
10
-64.092681
20
-113.611357
10
-64.092681
20
-113.611357
10
-64.449819
20
-113.789932
10
-64.449819
20
-113.789932
10
-64.806963
20
-114.147070
10
-64.806963
20
-114.147070
10
-64.985537
20
-114.682783
10
-64.985537
20
-114.682783
10
-64.985537
20
-115.039932
10
-64.985537
20
-115.039932
10
-64.806963
20
-115.575645
10
-64.806963
20
-115.575645
10
-64.449819
20
-115.932773
10
-64.449819
20
-115.932773
10
-64.092681
20
-116.111357
10
-64.092681
20
-116.111357
10
-63.556963
20
-116.111357
10
-63.556963
20
-116.111357
10
-63.199819
20
-115.932773
10
-63.199819
20
-115.932773
10
-62.842676
20
-115.575645
0
LWPOLYLINE
5
1071
100
AcDbEntity
8
0
100
AcDbPolyline
90
8
70
0
43
0.000000
10
-60.342681
20
-112.361357
10
-60.699824
20
-112.361357
10
-60.699824
20
-112.361357
10
-61.056968
20
-112.539932
10
-61.056968
20
-112.539932
10
-61.235537
20
-113.075645
10
-61.235537
20
-113.075645
10
-61.235537
20
-116.111357
0
LWPOLYLINE
5
1072
100
AcDbEntity
8
0
100
AcDbPolyline
90
2
70
0
43
0.000000
10
-61.771255
20
-113.611357
10
-60.521250
20
-113.611357
0
LWPOLYLINE
5
1073
100
AcDbEntity
8
0
100
AcDbPolyline
90
8
70
0
43
0.000000
10
-59.271245
20
-112.361357
10
-59.092676
20
-112.539932
10
-59.092676
20
-112.539932
10
-58.914102
20
-112.361357
10
-58.914102
20
-112.361357
10
-59.092676
20
-112.182783
10
-59.092676
20
-112.182783
10
-59.271245
20
-112.361357
0
LWPOLYLINE
5
1074
100
AcDbEntity
8
0
100
AcDbPolyline
90
2
70
0
43
0.000000
10
-59.092676
20
-113.611357
10
-59.092676
20
-116.111357
0
LWPOLYLINE
5
1075
100
AcDbEntity
8
0
100
AcDbPolyline
90
2
70
0
43
0.000000
10
-57.842681
20
-112.361357
10
-57.842681
20
-116.111357
0
LWPOLYLINE
5
1076
100
AcDbEntity
8
0
100
AcDbPolyline
90
32
70
0
43
0.000000
10
-56.771250
20
-114.682783
10
-54.628389
20
-114.682783
10
-54.628389
20
-114.682783
10
-54.628389
20
-114.325645
10
-54.628389
20
-114.325645
10
-54.806963
20
-113.968496
10
-54.806963
20
-113.968496
10
-54.985537
20
-113.789932
10
-54.985537
20
-113.789932
10
-55.342676
20
-113.611357
10
-55.342676
20
-113.611357
10
-55.878384
20
-113.611357
10
-55.878384
20
-113.611357
10
-56.235537
20
-113.789932
10
-56.235537
20
-113.789932
10
-56.592671
20
-114.147070
10
-56.592671
20
-114.147070
10
-56.771250
20
-114.682783
10
-56.771250
20
-114.682783
10
-56.771250
20
-115.039932
10
-56.771250
20
-115.039932
10
-56.592671
20
-115.575645
10
-56.592671
20
-115.575645
10
-56.235537
20
-115.932773
10
-56.235537
20
-115.932773
10
-55.878384
20
-116.111357
10
-55.878384
20
-116.111357
10
-55.342676
20
-116.111357
10
-55.342676
20
-116.111357
10
-54.985537
20
-115.932773
10
-54.985537
20
-115.932773
10
-54.628389
20
-115.575645
0
LWPOLYLINE
5
1077
100
AcDbEntity
8
0
100
AcDbPolyline
90
14
70
0
43
0.000000
10
-53.556963
20
-112.361357
10
-53.199814
20
-112.718496
10
-53.199814
20
-112.718496
10
-52.842676
20
-113.254219
10
-52.842676
20
-113.254219
10
-52.664102
20
-113.968496
10
-52.664102
20
-113.968496
10
-52.664102
20
-114.682783
10
-52.664102
20
-114.682783
10
-52.842676
20
-115.397070
10
-52.842676
20
-115.397070
10
-53.199814
20
-115.932773
10
-53.199814
20
-115.932773
10
-53.556963
20
-116.289932
0
LWPOLYLINE
5
1078
100
AcDbEntity
8
0
100
AcDbPolyline
90
38
70
0
43
0.000000
10
-179.271250
20
-118.254219
10
-179.628379
20
-117.897061
10
-179.628379
20
-117.897061
10
-180.164102
20
-117.718506
10
-180.164102
20
-117.718506
10
-180.878379
20
-117.718506
10
-180.878379
20
-117.718506
10
-181.414102
20
-117.897061
10
-181.414102
20
-117.897061
10
-181.771250
20
-118.254219
10
-181.771250
20
-118.254219
10
-181.771250
20
-118.611348
10
-181.771250
20
-118.611348
10
-181.592676
20
-118.968506
10
-181.592676
20
-118.968506
10
-181.414102
20
-119.147061
10
-181.414102
20
-119.147061
10
-181.056953
20
-119.325635
10
-181.056953
20
-119.325635
10
-179.985527
20
-119.682793
10
-179.985527
20
-119.682793
10
-179.628379
20
-119.861348
10
-179.628379
20
-119.861348
10
-179.449805
20
-120.039922
10
-179.449805
20
-120.039922
10
-179.271250
20
-120.397080
10
-179.271250
20
-120.397080
10
-179.271250
20
-120.932783
10
-179.271250
20
-120.932783
10
-179.628379
20
-121.289922
10
-179.628379
20
-121.289922
10
-180.164102
20
-121.468496
10
-180.164102
20
-121.468496
10
-180.878379
20
-121.468496
10
-180.878379
20
-121.468496
10
-181.414102
20
-121.289922
10
-181.414102
20
-121.289922
10
-181.771250
20
-120.932783
0
LWPOLYLINE
5
1079
100
AcDbEntity
8
0
100
AcDbPolyline
90
2
70
0
43
0.000000
10
-178.199805
20
-117.718506
10
-178.199805
20
-121.468496
0
LWPOLYLINE
5
1080
100
AcDbEntity
8
0
100
AcDbPolyline
90
2
70
0
43
0.000000
10
-174.628398
20
-117.718506
10
-177.128398
20
-121.468496
0
LWPOLYLINE
5
1081
100
AcDbEntity
8
0
100
AcDbPolyline
90
2
70
0
43
0.000000
10
-177.128398
20
-117.718506
10
-174.628398
20
-117.718506
0
LWPOLYLINE
5
1082
100
AcDbEntity
8
0
100
AcDbPolyline
90
2
70
0
43
0.000000
10
-177.128398
20
-121.468496
10
-174.628398
20
-121.468496
0
LWPOLYLINE
5
1083
100
AcDbEntity
8
0
100
AcDbPolyline
90
2
70
0
43
0.000000
10
-173.556953
20
-117.718506
10
-173.556953
20
-121.468496
0
LWPOLYLINE
5
1084
100
AcDbEntity
8
0
100
AcDbPolyline
90
2
70
0
43
0.000000
10
-173.556953
20
-117.718506
10
-171.235527
20
-117.718506
0
LWPOLYLINE
5
1085
100
AcDbEntity
8
0
100
AcDbPolyline
90
2
70
0
43
0.000000
10
-173.556953
20
-119.504209
10
-172.128379
20
-119.504209
0
LWPOLYLINE
5
1086
100
AcDbEntity
8
0
100
AcDbPolyline
90
2
70
0
43
0.000000
10
-173.556953
20
-121.468496
10
-171.235527
20
-121.468496
0
LWPOLYLINE
5
1087
100
AcDbEntity
8
0
100
AcDbPolyline
90
8
70
0
43
0.000000
10
-169.985527
20
-118.968506
10
-170.164102
20
-119.147061
10
-170.164102
20
-119.147061
10
-169.985527
20
-119.325635
10
-169.985527
20
-119.325635
10
-169.806953
20
-119.147061
10
-169.806953
20
-119.147061
10
-169.985527
20
-118.968506
0
LWPOLYLINE
5
1088
100
AcDbEntity
8
0
100
AcDbPolyline
90
8
70
0
43
0.000000
10
-169.985527
20
-121.111348
10
-170.164102
20
-121.289922
10
-170.164102
20
-121.289922
10
-169.985527
20
-121.468496
10
-169.985527
20
-121.468496
10
-169.806953
20
-121.289922
10
-169.806953
20
-121.289922
10
-169.985527
20
-121.111348
0
LWPOLYLINE
5
1089
100
AcDbEntity
8
0
100
AcDbPolyline
90
26
70
0
43
0.000000
10
-168.556953
20
-118.611348
10
-168.556953
20
-118.432793
10
-168.556953
20
-118.432793
10
-168.378379
20
-118.075635
10
-168.378379
20
-118.075635
10
-168.199824
20
-117.897061
10
-168.199824
20
-117.897061
10
-167.842676
20
-117.718506
10
-167.842676
20
-117.718506
10
-167.128379
20
-117.718506
10
-167.128379
20
-117.718506
10
-166.771250
20
-117.897061
10
-166.771250
20
-117.897061
10
-166.592676
20
-118.075635
10
-166.592676
20
-118.075635
10
-166.414102
20
-118.432793
10
-166.414102
20
-118.432793
10
-166.414102
20
-118.789922
10
-166.414102
20
-118.789922
10
-166.592676
20
-119.147061
10
-166.592676
20
-119.147061
10
-166.949805
20
-119.682793
10
-166.949805
20
-119.682793
10
-168.735527
20
-121.468496
10
-168.735527
20
-121.468496
10
-166.235527
20
-121.468496
0
LWPOLYLINE
5
1090
100
AcDbEntity
8
0
100
AcDbPolyline
90
56
70
0
43
0.000000
10
-164.271250
20
-117.718506
10
-164.806953
20
-117.897061
10
-164.806953
20
-117.897061
10
-164.985527
20
-118.254219
10
-164.985527
20
-118.254219
10
-164.985527
20
-118.611348
10
-164.985527
20
-118.611348
10
-164.806953
20
-118.968506
10
-164.806953
20
-118.968506
10
-164.449805
20
-119.147061
10
-164.449805
20
-119.147061
10
-163.735527
20
-119.325635
10
-163.735527
20
-119.325635
10
-163.199814
20
-119.504209
10
-163.199814
20
-119.504209
10
-162.842676
20
-119.861348
10
-162.842676
20
-119.861348
10
-162.664102
20
-120.218496
10
-162.664102
20
-120.218496
10
-162.664102
20
-120.754209
10
-162.664102
20
-120.754209
10
-162.842676
20
-121.111348
10
-162.842676
20
-121.111348
10
-163.021240
20
-121.289922
10
-163.021240
20
-121.289922
10
-163.556963
20
-121.468496
10
-163.556963
20
-121.468496
10
-164.271250
20
-121.468496
10
-164.271250
20
-121.468496
10
-164.806953
20
-121.289922
10
-164.806953
20
-121.289922
10
-164.985527
20
-121.111348
10
-164.985527
20
-121.111348
10
-165.164102
20
-120.754209
10
-165.164102
20
-120.754209
10
-165.164102
20
-120.218496
10
-165.164102
20
-120.218496
10
-164.985527
20
-119.861348
10
-164.985527
20
-119.861348
10
-164.628379
20
-119.504209
10
-164.628379
20
-119.504209
10
-164.092676
20
-119.325635
10
-164.092676
20
-119.325635
10
-163.378389
20
-119.147061
10
-163.378389
20
-119.147061
10
-163.021240
20
-118.968506
10
-163.021240
20
-118.968506
10
-162.842676
20
-118.611348
10
-162.842676
20
-118.611348
10
-162.842676
20
-118.254219
10
-162.842676
20
-118.254219
10
-163.021240
20
-117.897061
10
-163.021240
20
-117.897061
10
-163.556963
20
-117.718506
10
-163.556963
20
-117.718506
10
-164.271250
20
-117.718506
0
LWPOLYLINE
5
1091
100
AcDbEntity
8
0
100
AcDbPolyline
90
2
70
0
43
0.000000
10
-160.699814
20
-118.789922
10
-160.699814
20
-120.932783
0
LWPOLYLINE
5
1092
100
AcDbEntity
8
0
100
AcDbPolyline
90
2
70
0
43
0.000000
10
-161.592676
20
-119.325635
10
-159.806953
20
-120.397080
0
LWPOLYLINE
5
1093
100
AcDbEntity
8
0
100
AcDbPolyline
90
2
70
0
43
0.000000
10
-159.806953
20
-119.325635
10
-161.592676
20
-120.397080
0
LWPOLYLINE
5
1094
100
AcDbEntity
8
0
100
AcDbPolyline
90
28
70
0
43
0.000000
10
-158.378389
20
-117.718506
10
-156.414111
20
-117.718506
10
-156.414111
20
-117.718506
10
-157.485527
20
-119.147061
10
-157.485527
20
-119.147061
10
-156.949814
20
-119.147061
10
-156.949814
20
-119.147061
10
-156.592666
20
-119.325635
10
-156.592666
20
-119.325635
10
-156.414111
20
-119.504209
10
-156.414111
20
-119.504209
10
-156.235527
20
-120.039922
10
-156.235527
20
-120.039922
10
-156.235527
20
-120.397080
10
-156.235527
20
-120.397080
10
-156.414111
20
-120.932783
10
-156.414111
20
-120.932783
10
-156.771240
20
-121.289922
10
-156.771240
20
-121.289922
10
-157.306953
20
-121.468496
10
-157.306953
20
-121.468496
10
-157.842666
20
-121.468496
10
-157.842666
20
-121.468496
10
-158.378389
20
-121.289922
10
-158.378389
20
-121.289922
10
-158.556953
20
-121.111348
10
-158.556953
20
-121.111348
10
-158.735527
20
-120.754209
0
LWPOLYLINE
5
1095
100
AcDbEntity
8
0
100
AcDbPolyline
90
56
70
0
43
0.000000
10
-154.271240
20
-117.718506
10
-154.806953
20
-117.897061
10
-154.806953
20
-117.897061
10
-154.985527
20
-118.254219
10
-154.985527
20
-118.254219
10
-154.985527
20
-118.611348
10
-154.985527
20
-118.611348
10
-154.806953
20
-118.968506
10
-154.806953
20
-118.968506
10
-154.449824
20
-119.147061
10
-154.449824
20
-119.147061
10
-153.735537
20
-119.325635
10
-153.735537
20
-119.325635
10
-153.199824
20
-119.504209
10
-153.199824
20
-119.504209
10
-152.842666
20
-119.861348
10
-152.842666
20
-119.861348
10
-152.664111
20
-120.218496
10
-152.664111
20
-120.218496
10
-152.664111
20
-120.754209
10
-152.664111
20
-120.754209
10
-152.842666
20
-121.111348
10
-152.842666
20
-121.111348
10
-153.021250
20
-121.289922
10
-153.021250
20
-121.289922
10
-153.556953
20
-121.468496
10
-153.556953
20
-121.468496
10
-154.271240
20
-121.468496
10
-154.271240
20
-121.468496
10
-154.806953
20
-121.289922
10
-154.806953
20
-121.289922
10
-154.985527
20
-121.111348
10
-154.985527
20
-121.111348
10
-155.164111
20
-120.754209
10
-155.164111
20
-120.754209
10
-155.164111
20
-120.218496
10
-155.164111
20
-120.218496
10
-154.985527
20
-119.861348
10
-154.985527
20
-119.861348
10
-154.628379
20
-119.504209
10
-154.628379
20
-119.504209
10
-154.092666
20
-119.325635
10
-154.092666
20
-119.325635
10
-153.378398
20
-119.147061
10
-153.378398
20
-119.147061
10
-153.021250
20
-118.968506
10
-153.021250
20
-118.968506
10
-152.842666
20
-118.611348
10
-152.842666
20
-118.611348
10
-152.842666
20
-118.254219
10
-152.842666
20
-118.254219
10
-153.021250
20
-117.897061
10
-153.021250
20
-117.897061
10
-153.556953
20
-117.718506
10
-153.556953
20
-117.718506
10
-154.271240
20
-117.718506
0
LWPOLYLINE
5
1096
100
AcDbEntity
8
0
100
AcDbPolyline
90
34
70
0
43
0.000000
10
-145.342676
20
-118.611348
10
-145.521250
20
-118.254219
10
-145.521250
20
-118.254219
10
-145.878389
20
-117.897061
10
-145.878389
20
-117.897061
10
-146.235527
20
-117.718506
10
-146.235527
20
-117.718506
10
-146.949814
20
-117.718506
10
-146.949814
20
-117.718506
10
-147.306963
20
-117.897061
10
-147.306963
20
-117.897061
10
-147.664102
20
-118.254219
10
-147.664102
20
-118.254219
10
-147.842676
20
-118.611348
10
-147.842676
20
-118.611348
10
-148.021250
20
-119.147061
10
-148.021250
20
-119.147061
10
-148.021250
20
-120.039922
10
-148.021250
20
-120.039922
10
-147.842676
20
-120.575635
10
-147.842676
20
-120.575635
10
-147.664102
20
-120.932783
10
-147.664102
20
-120.932783
10
-147.306963
20
-121.289922
10
-147.306963
20
-121.289922
10
-146.949814
20
-121.468496
10
-146.949814
20
-121.468496
10
-146.235527
20
-121.468496
10
-146.235527
20
-121.468496
10
-145.878389
20
-121.289922
10
-145.878389
20
-121.289922
10
-145.521250
20
-120.932783
10
-145.521250
20
-120.932783
10
-145.342676
20
-120.575635
0
LWPOLYLINE
5
1097
100
AcDbEntity
8
0
100
AcDbPolyline
90
2
70
0
43
0.000000
10
-144.271240
20
-117.718506
10
-144.271240
20
-121.468496
0
LWPOLYLINE
5
1098
100
AcDbEntity
8
0
100
AcDbPolyline
90
2
70
0
43
0.000000
10
-144.271240
20
-117.718506
10
-142.842676
20
-121.468496
0
LWPOLYLINE
5
1099
100
AcDbEntity
8
0
100
AcDbPolyline
90
2
70
0
43
0.000000
10
-141.414102
20
-117.718506
10
-142.842676
20
-121.468496
0
LWPOLYLINE
5
1100
100
AcDbEntity
8
0
100
AcDbPolyline
90
2
70
0
43
0.000000
10
-141.414102
20
-117.718506
10
-141.414102
20
-121.468496
0
LWPOLYLINE
5
1101
100
AcDbEntity
8
0
100
AcDbPolyline
90
2
70
0
43
0.000000
10
-131.949814
20
-117.718506
10
-131.949814
20
-121.468496
0
LWPOLYLINE
5
1102
100
AcDbEntity
8
0
100
AcDbPolyline
90
2
70
0
43
0.000000
10
-133.199814
20
-117.718506
10
-130.699814
20
-117.718506
0
LWPOLYLINE
5
1103
100
AcDbEntity
8
0
100
AcDbPolyline
90
2
70
0
43
0.000000
10
-129.628389
20
-119.325635
10
-126.414102
20
-119.325635
0
LWPOLYLINE
5
1104
100
AcDbEntity
8
0
100
AcDbPolyline
90
2
70
0
43
0.000000
10
-129.628389
20
-120.397080
10
-126.414102
20
-120.397080
0
LWPOLYLINE
5
1105
100
AcDbEntity
8
0
100
AcDbPolyline
90
32
70
0
43
0.000000
10
-124.271250
20
-117.718506
10
-124.806963
20
-117.897061
10
-124.806963
20
-117.897061
10
-125.164111
20
-118.432793
10
-125.164111
20
-118.432793
10
-125.342686
20
-119.325635
10
-125.342686
20
-119.325635
10
-125.342686
20
-119.861348
10
-125.342686
20
-119.861348
10
-125.164111
20
-120.754209
10
-125.164111
20
-120.754209
10
-124.806963
20
-121.289922
10
-124.806963
20
-121.289922
10
-124.271250
20
-121.468496
10
-124.271250
20
-121.468496
10
-123.914111
20
-121.468496
10
-123.914111
20
-121.468496
10
-123.378398
20
-121.289922
10
-123.378398
20
-121.289922
10
-123.021250
20
-120.754209
10
-123.021250
20
-120.754209
10
-122.842676
20
-119.861348
10
-122.842676
20
-119.861348
10
-122.842676
20
-119.325635
10
-122.842676
20
-119.325635
10
-123.021250
20
-118.432793
10
-123.021250
20
-118.432793
10
-123.378398
20
-117.897061
10
-123.378398
20
-117.897061
10
-123.914111
20
-117.718506
10
-123.914111
20
-117.718506
10
-124.271250
20
-117.718506
0
LWPOLYLINE
5
1106
100
AcDbEntity
8
0
100
AcDbPolyline
90
8
70
0
43
0.000000
10
-121.592676
20
-121.111348
10
-121.771250
20
-121.289922
10
-121.771250
20
-121.289922
10
-121.592676
20
-121.468496
10
-121.592676
20
-121.468496
10
-121.414111
20
-121.289922
10
-121.414111
20
-121.289922
10
-121.592676
20
-121.111348
0
LWPOLYLINE
5
1107
100
AcDbEntity
8
0
100
AcDbPolyline
90
6
70
0
43
0.000000
10
-120.342676
20
-118.432793
10
-119.985537
20
-118.254219
10
-119.985537
20
-118.254219
10
-119.449824
20
-117.718506
10
-119.449824
20
-117.718506
10
-119.449824
20
-121.468496
0
LWPOLYLINE
5
1108
100
AcDbEntity
8
0
100
AcDbPolyline
90
32
70
0
43
0.000000
10
-116.056963
20
-117.718506
10
-117.842676
20
-117.718506
10
-117.842676
20
-117.718506
10
-118.021250
20
-119.325635
10
-118.021250
20
-119.325635
10
-117.842676
20
-119.147061
10
-117.842676
20
-119.147061
10
-117.306963
20
-118.968506
10
-117.306963
20
-118.968506
10
-116.771250
20
-118.968506
10
-116.771250
20
-118.968506
10
-116.235527
20
-119.147061
10
-116.235527
20
-119.147061
10
-115.878389
20
-119.504209
10
-115.878389
20
-119.504209
10
-115.699824
20
-120.039922
10
-115.699824
20
-120.039922
10
-115.699824
20
-120.397080
10
-115.699824
20
-120.397080
10
-116.056963
20
-120.932783
10
-116.056963
20
-120.932783
10
-116.414111
20
-121.289922
10
-116.414111
20
-121.289922
10
-116.949814
20
-121.468496
10
-116.949814
20
-121.468496
10
-117.485527
20
-121.468496
10
-117.485527
20
-121.468496
10
-118.021250
20
-121.289922
10
-118.021250
20
-121.289922
10
-118.199814
20
-121.111348
10
-118.199814
20
-121.111348
10
-118.378389
20
-120.754209
0
LWPOLYLINE
5
1109
100
AcDbEntity
8
0
100
AcDbPolyline
90
2
70
0
43
0.000000
10
-111.056963
20
-117.718506
10
-111.056963
20
-121.468496
0
LWPOLYLINE
5
1110
100
AcDbEntity
8
0
100
AcDbPolyline
90
2
70
0
43
0.000000
10
-111.056963
20
-117.718506
10
-109.628398
20
-121.468496
0
LWPOLYLINE
5
1111
100
AcDbEntity
8
0
100
AcDbPolyline
90
2
70
0
43
0.000000
10
-108.199824
20
-117.718506
10
-109.628398
20
-121.468496
0
LWPOLYLINE
5
1112
100
AcDbEntity
8
0
100
AcDbPolyline
90
2
70
0
43
0.000000
10
-108.199824
20
-117.718506
10
-108.199824
20
-121.468496
0
LWPOLYLINE
5
1113
100
AcDbEntity
8
0
100
AcDbPolyline
90
2
70
0
43
0.000000
10
-107.128389
20
-117.718506
10
-107.128389
20
-121.468496
0
LWPOLYLINE
5
1114
100
AcDbEntity
8
0
100
AcDbPolyline
90
2
70
0
43
0.000000
10
-107.128389
20
-117.718506
10
-105.699824
20
-121.468496
0
LWPOLYLINE
5
1115
100
AcDbEntity
8
0
100
AcDbPolyline
90
2
70
0
43
0.000000
10
-104.271250
20
-117.718506
10
-105.699824
20
-121.468496
0
LWPOLYLINE
5
1116
100
AcDbEntity
8
0
100
AcDbPolyline
90
2
70
0
43
0.000000
10
-104.271250
20
-117.718506
10
-104.271250
20
-121.468496
0
LWPOLYLINE
5
1117
100
AcDbEntity
8
0
100
AcDbPolyline
90
2
70
0
43
0.000000
10
-181.771250
20
-123.075635
10
-181.771250
20
-126.825645
0
LWPOLYLINE
5
1118
100
AcDbEntity
8
0
100
AcDbPolyline
90
22
70
0
43
0.000000
10
-181.771250
20
-123.075635
10
-180.521250
20
-123.075635
10
-180.521250
20
-123.075635
10
-179.985527
20
-123.254209
10
-179.985527
20
-123.254209
10
-179.628379
20
-123.611357
10
-179.628379
20
-123.611357
10
-179.449805
20
-123.968496
10
-179.449805
20
-123.968496
10
-179.271250
20
-124.504209
10
-179.271250
20
-124.504209
10
-179.271250
20
-125.397070
10
-179.271250
20
-125.397070
10
-179.449805
20
-125.932783
10
-179.449805
20
-125.932783
10
-179.628379
20
-126.289932
10
-179.628379
20
-126.289932
10
-179.985527
20
-126.647070
10
-179.985527
20
-126.647070
10
-180.521250
20
-126.825645
10
-180.521250
20
-126.825645
10
-181.771250
20
-126.825645
0
LWPOLYLINE
5
1119
100
AcDbEntity
8
0
100
AcDbPolyline
90
2
70
0
43
0.000000
10
-176.771230
20
-123.075635
10
-178.199805
20
-126.825645
0
LWPOLYLINE
5
1120
100
AcDbEntity
8
0
100
AcDbPolyline
90
2
70
0
43
0.000000
10
-176.771230
20
-123.075635
10
-175.342676
20
-126.825645
0
LWPOLYLINE
5
1121
100
AcDbEntity
8
0
100
AcDbPolyline
90
2
70
0
43
0.000000
10
-177.664102
20
-125.575645
10
-175.878398
20
-125.575645
0
LWPOLYLINE
5
1122
100
AcDbEntity
8
0
100
AcDbPolyline
90
2
70
0
43
0.000000
10
-173.021250
20
-123.075635
10
-173.021250
20
-126.825645
0
LWPOLYLINE
5
1123
100
AcDbEntity
8
0
100
AcDbPolyline
90
2
70
0
43
0.000000
10
-174.271250
20
-123.075635
10
-171.771250
20
-123.075635
0
LWPOLYLINE
5
1124
100
AcDbEntity
8
0
100
AcDbPolyline
90
2
70
0
43
0.000000
10
-170.699824
20
-123.075635
10
-170.699824
20
-126.825645
0
LWPOLYLINE
5
1125
100
AcDbEntity
8
0
100
AcDbPolyline
90
2
70
0
43
0.000000
10
-170.699824
20
-123.075635
10
-168.378379
20
-123.075635
0
LWPOLYLINE
5
1126
100
AcDbEntity
8
0
100
AcDbPolyline
90
2
70
0
43
0.000000
10
-170.699824
20
-124.861357
10
-169.271250
20
-124.861357
0
LWPOLYLINE
5
1127
100
AcDbEntity
8
0
100
AcDbPolyline
90
2
70
0
43
0.000000
10
-170.699824
20
-126.825645
10
-168.378379
20
-126.825645
0
LWPOLYLINE
5
1128
100
AcDbEntity
8
0
100
AcDbPolyline
90
8
70
0
43
0.000000
10
-167.128379
20
-124.325645
10
-167.306953
20
-124.504209
10
-167.306953
20
-124.504209
10
-167.128379
20
-124.682783
10
-167.128379
20
-124.682783
10
-166.949805
20
-124.504209
10
-166.949805
20
-124.504209
10
-167.128379
20
-124.325645
0
LWPOLYLINE
5
1129
100
AcDbEntity
8
0
100
AcDbPolyline
90
8
70
0
43
0.000000
10
-167.128379
20
-126.468496
10
-167.306953
20
-126.647070
10
-167.306953
20
-126.647070
10
-167.128379
20
-126.825645
10
-167.128379
20
-126.825645
10
-166.949805
20
-126.647070
10
-166.949805
20
-126.647070
10
-167.128379
20
-126.468496
0
LWPOLYLINE
5
1130
100
AcDbEntity
8
0
100
AcDbPolyline
90
26
70
0
43
0.000000
10
-165.699805
20
-123.968496
10
-165.699805
20
-123.789922
10
-165.699805
20
-123.789922
10
-165.521250
20
-123.432783
10
-165.521250
20
-123.432783
10
-165.342676
20
-123.254209
10
-165.342676
20
-123.254209
10
-164.985527
20
-123.075635
10
-164.985527
20
-123.075635
10
-164.271250
20
-123.075635
10
-164.271250
20
-123.075635
10
-163.914102
20
-123.254209
10
-163.914102
20
-123.254209
10
-163.735527
20
-123.432783
10
-163.735527
20
-123.432783
10
-163.556963
20
-123.789922
10
-163.556963
20
-123.789922
10
-163.556963
20
-124.147070
10
-163.556963
20
-124.147070
10
-163.735527
20
-124.504209
10
-163.735527
20
-124.504209
10
-164.092676
20
-125.039922
10
-164.092676
20
-125.039922
10
-165.878379
20
-126.825645
10
-165.878379
20
-126.825645
10
-163.378389
20
-126.825645
0
LWPOLYLINE
5
1131
100
AcDbEntity
8
0
100
AcDbPolyline
90
32
70
0
43
0.000000
10
-161.235527
20
-123.075635
10
-161.771240
20
-123.254209
10
-161.771240
20
-123.254209
10
-162.128389
20
-123.789922
10
-162.128389
20
-123.789922
10
-162.306963
20
-124.682783
10
-162.306963
20
-124.682783
10
-162.306963
20
-125.218496
10
-162.306963
20
-125.218496
10
-162.128389
20
-126.111357
10
-162.128389
20
-126.111357
10
-161.771240
20
-126.647070
10
-161.771240
20
-126.647070
10
-161.235527
20
-126.825645
10
-161.235527
20
-126.825645
10
-160.878389
20
-126.825645
10
-160.878389
20
-126.825645
10
-160.342676
20
-126.647070
10
-160.342676
20
-126.647070
10
-159.985527
20
-126.111357
10
-159.985527
20
-126.111357
10
-159.806953
20
-125.218496
10
-159.806953
20
-125.218496
10
-159.806953
20
-124.682783
10
-159.806953
20
-124.682783
10
-159.985527
20
-123.789922
10
-159.985527
20
-123.789922
10
-160.342676
20
-123.254209
10
-160.342676
20
-123.254209
10
-160.878389
20
-123.075635
10
-160.878389
20
-123.075635
10
-161.235527
20
-123.075635
0
LWPOLYLINE
5
1132
100
AcDbEntity
8
0
100
AcDbPolyline
90
26
70
0
43
0.000000
10
-158.556953
20
-123.968496
10
-158.556953
20
-123.789922
10
-158.556953
20
-123.789922
10
-158.378389
20
-123.432783
10
-158.378389
20
-123.432783
10
-158.199814
20
-123.254209
10
-158.199814
20
-123.254209
10
-157.842666
20
-123.075635
10
-157.842666
20
-123.075635
10
-157.128398
20
-123.075635
10
-157.128398
20
-123.075635
10
-156.771240
20
-123.254209
10
-156.771240
20
-123.254209
10
-156.592666
20
-123.432783
10
-156.592666
20
-123.432783
10
-156.414111
20
-123.789922
10
-156.414111
20
-123.789922
10
-156.414111
20
-124.147070
10
-156.414111
20
-124.147070
10
-156.592666
20
-124.504209
10
-156.592666
20
-124.504209
10
-156.949814
20
-125.039922
10
-156.949814
20
-125.039922
10
-158.735527
20
-126.825645
10
-158.735527
20
-126.825645
10
-156.235527
20
-126.825645
0
LWPOLYLINE
5
1133
100
AcDbEntity
8
0
100
AcDbPolyline
90
28
70
0
43
0.000000
10
-154.806953
20
-123.075635
10
-152.842666
20
-123.075635
10
-152.842666
20
-123.075635
10
-153.914092
20
-124.504209
10
-153.914092
20
-124.504209
10
-153.378398
20
-124.504209
10
-153.378398
20
-124.504209
10
-153.021250
20
-124.682783
10
-153.021250
20
-124.682783
10
-152.842666
20
-124.861357
10
-152.842666
20
-124.861357
10
-152.664111
20
-125.397070
10
-152.664111
20
-125.397070
10
-152.664111
20
-125.754209
10
-152.664111
20
-125.754209
10
-152.842666
20
-126.289932
10
-152.842666
20
-126.289932
10
-153.199824
20
-126.647070
10
-153.199824
20
-126.647070
10
-153.735537
20
-126.825645
10
-153.735537
20
-126.825645
10
-154.271240
20
-126.825645
10
-154.271240
20
-126.825645
10
-154.806953
20
-126.647070
10
-154.806953
20
-126.647070
10
-154.985527
20
-126.468496
10
-154.985527
20
-126.468496
10
-155.164111
20
-126.111357
0
LWPOLYLINE
5
1134
100
AcDbEntity
8
0
100
AcDbPolyline
90
2
70
0
43
0.000000
10
-151.592676
20
-125.218496
10
-148.378389
20
-125.218496
0
LWPOLYLINE
5
1135
100
AcDbEntity
8
0
100
AcDbPolyline
90
32
70
0
43
0.000000
10
-146.235527
20
-123.075635
10
-146.771250
20
-123.254209
10
-146.771250
20
-123.254209
10
-147.128389
20
-123.789922
10
-147.128389
20
-123.789922
10
-147.306963
20
-124.682783
10
-147.306963
20
-124.682783
10
-147.306963
20
-125.218496
10
-147.306963
20
-125.218496
10
-147.128389
20
-126.111357
10
-147.128389
20
-126.111357
10
-146.771250
20
-126.647070
10
-146.771250
20
-126.647070
10
-146.235527
20
-126.825645
10
-146.235527
20
-126.825645
10
-145.878389
20
-126.825645
10
-145.878389
20
-126.825645
10
-145.342676
20
-126.647070
10
-145.342676
20
-126.647070
10
-144.985527
20
-126.111357
10
-144.985527
20
-126.111357
10
-144.806963
20
-125.218496
10
-144.806963
20
-125.218496
10
-144.806963
20
-124.682783
10
-144.806963
20
-124.682783
10
-144.985527
20
-123.789922
10
-144.985527
20
-123.789922
10
-145.342676
20
-123.254209
10
-145.342676
20
-123.254209
10
-145.878389
20
-123.075635
10
-145.878389
20
-123.075635
10
-146.235527
20
-123.075635
0
LWPOLYLINE
5
1136
100
AcDbEntity
8
0
100
AcDbPolyline
90
4
70
0
43
0.000000
10
-141.949814
20
-123.075635
10
-143.735527
20
-125.575645
10
-143.735527
20
-125.575645
10
-141.056953
20
-125.575645
0
LWPOLYLINE
5
1137
100
AcDbEntity
8
0
100
AcDbPolyline
90
2
70
0
43
0.000000
10
-141.949814
20
-123.075635
10
-141.949814
20
-126.825645
0
LWPOLYLINE
5
1138
100
AcDbEntity
8
0
100
AcDbPolyline
90
2
70
0
43
0.000000
10
-139.985527
20
-125.218496
10
-136.771250
20
-125.218496
0
LWPOLYLINE
5
1139
100
AcDbEntity
8
0
100
AcDbPolyline
90
32
70
0
43
0.000000
10
-134.628389
20
-123.075635
10
-135.164102
20
-123.254209
10
-135.164102
20
-123.254209
10
-135.521250
20
-123.789922
10
-135.521250
20
-123.789922
10
-135.699824
20
-124.682783
10
-135.699824
20
-124.682783
10
-135.699824
20
-125.218496
10
-135.699824
20
-125.218496
10
-135.521250
20
-126.111357
10
-135.521250
20
-126.111357
10
-135.164102
20
-126.647070
10
-135.164102
20
-126.647070
10
-134.628389
20
-126.825645
10
-134.628389
20
-126.825645
10
-134.271250
20
-126.825645
10
-134.271250
20
-126.825645
10
-133.735537
20
-126.647070
10
-133.735537
20
-126.647070
10
-133.378389
20
-126.111357
10
-133.378389
20
-126.111357
10
-133.199814
20
-125.218496
10
-133.199814
20
-125.218496
10
-133.199814
20
-124.682783
10
-133.199814
20
-124.682783
10
-133.378389
20
-123.789922
10
-133.378389
20
-123.789922
10
-133.735537
20
-123.254209
10
-133.735537
20
-123.254209
10
-134.271250
20
-123.075635
10
-134.271250
20
-123.075635
10
-134.628389
20
-123.075635
0
LWPOLYLINE
5
1140
100
AcDbEntity
8
0
100
AcDbPolyline
90
2
70
0
43
0.000000
10
-129.628389
20
-123.075635
10
-131.414102
20
-126.825645
0
LWPOLYLINE
5
1141
100
AcDbEntity
8
0
100
AcDbPolyline
90
2
70
0
43
0.000000
10
-132.128389
20
-123.075635
10
-129.628389
20
-123.075635
0
LWPOLYLINE
5
1142
100
AcDbEntity
8
0
100
AcDbPolyline
90
6
70
0
43
0.000000
10
-124.985537
20
-123.789922
10
-124.628398
20
-123.611357
10
-124.628398
20
-123.611357
10
-124.092676
20
-123.075635
10
-124.092676
20
-123.075635
10
-124.092676
20
-126.825645
0
LWPOLYLINE
5
1143
100
AcDbEntity
8
0
100
AcDbPolyline
90
26
70
0
43
0.000000
10
-122.842676
20
-123.968496
10
-122.842676
20
-123.789922
10
-122.842676
20
-123.789922
10
-122.664111
20
-123.432783
10
-122.664111
20
-123.432783
10
-122.485537
20
-123.254209
10
-122.485537
20
-123.254209
10
-122.128389
20
-123.075635
10
-122.128389
20
-123.075635
10
-121.414111
20
-123.075635
10
-121.414111
20
-123.075635
10
-121.056963
20
-123.254209
10
-121.056963
20
-123.254209
10
-120.878389
20
-123.432783
10
-120.878389
20
-123.432783
10
-120.699824
20
-123.789922
10
-120.699824
20
-123.789922
10
-120.699824
20
-124.147070
10
-120.699824
20
-124.147070
10
-120.878389
20
-124.504209
10
-120.878389
20
-124.504209
10
-121.235537
20
-125.039922
10
-121.235537
20
-125.039922
10
-123.021250
20
-126.825645
10
-123.021250
20
-126.825645
10
-120.521250
20
-126.825645
0
LWPOLYLINE
5
1144
100
AcDbEntity
8
0
100
AcDbPolyline
90
8
70
0
43
0.000000
10
-119.271250
20
-124.325645
10
-119.449824
20
-124.504209
10
-119.449824
20
-124.504209
10
-119.271250
20
-124.682783
10
-119.271250
20
-124.682783
10
-119.092676
20
-124.504209
10
-119.092676
20
-124.504209
10
-119.271250
20
-124.325645
0
LWPOLYLINE
5
1145
100
AcDbEntity
8
0
100
AcDbPolyline
90
8
70
0
43
0.000000
10
-119.271250
20
-126.468496
10
-119.449824
20
-126.647070
10
-119.449824
20
-126.647070
10
-119.271250
20
-126.825645
10
-119.271250
20
-126.825645
10
-119.092676
20
-126.647070
10
-119.092676
20
-126.647070
10
-119.271250
20
-126.468496
0
LWPOLYLINE
5
1146
100
AcDbEntity
8
0
100
AcDbPolyline
90
32
70
0
43
0.000000
10
-116.949814
20
-123.075635
10
-117.485527
20
-123.254209
10
-117.485527
20
-123.254209
10
-117.842676
20
-123.789922
10
-117.842676
20
-123.789922
10
-118.021250
20
-124.682783
10
-118.021250
20
-124.682783
10
-118.021250
20
-125.218496
10
-118.021250
20
-125.218496
10
-117.842676
20
-126.111357
10
-117.842676
20
-126.111357
10
-117.485527
20
-126.647070
10
-117.485527
20
-126.647070
10
-116.949814
20
-126.825645
10
-116.949814
20
-126.825645
10
-116.592676
20
-126.825645
10
-116.592676
20
-126.825645
10
-116.056963
20
-126.647070
10
-116.056963
20
-126.647070
10
-115.699824
20
-126.111357
10
-115.699824
20
-126.111357
10
-115.521250
20
-125.218496
10
-115.521250
20
-125.218496
10
-115.521250
20
-124.682783
10
-115.521250
20
-124.682783
10
-115.699824
20
-123.789922
10
-115.699824
20
-123.789922
10
-116.056963
20
-123.254209
10
-116.056963
20
-123.254209
10
-116.592676
20
-123.075635
10
-116.592676
20
-123.075635
10
-116.949814
20
-123.075635
0
LWPOLYLINE
5
1147
100
AcDbEntity
8
0
100
AcDbPolyline
90
32
70
0
43
0.000000
10
-113.378389
20
-123.075635
10
-113.914102
20
-123.254209
10
-113.914102
20
-123.254209
10
-114.271250
20
-123.789922
10
-114.271250
20
-123.789922
10
-114.449824
20
-124.682783
10
-114.449824
20
-124.682783
10
-114.449824
20
-125.218496
10
-114.449824
20
-125.218496
10
-114.271250
20
-126.111357
10
-114.271250
20
-126.111357
10
-113.914102
20
-126.647070
10
-113.914102
20
-126.647070
10
-113.378389
20
-126.825645
10
-113.378389
20
-126.825645
10
-113.021250
20
-126.825645
10
-113.021250
20
-126.825645
10
-112.485537
20
-126.647070
10
-112.485537
20
-126.647070
10
-112.128389
20
-126.111357
10
-112.128389
20
-126.111357
10
-111.949814
20
-125.218496
10
-111.949814
20
-125.218496
10
-111.949814
20
-124.682783
10
-111.949814
20
-124.682783
10
-112.128389
20
-123.789922
10
-112.128389
20
-123.789922
10
-112.485537
20
-123.254209
10
-112.485537
20
-123.254209
10
-113.021250
20
-123.075635
10
-113.021250
20
-123.075635
10
-113.378389
20
-123.075635
0
LWPOLYLINE
5
1148
100
AcDbEntity
8
0
100
AcDbPolyline
90
2
70
0
43
0.000000
10
-181.771250
20
-128.432783
10
-181.771250
20
-132.182773
0
LWPOLYLINE
5
1149
100
AcDbEntity
8
0
100
AcDbPolyline
90
2
70
0
43
0.000000
10
-181.771250
20
-128.432783
10
-179.271250
20
-132.182773
0
LWPOLYLINE
5
1150
100
AcDbEntity
8
0
100
AcDbPolyline
90
2
70
0
43
0.000000
10
-179.271250
20
-128.432783
10
-179.271250
20
-132.182773
0
LWPOLYLINE
5
1151
100
AcDbEntity
8
0
100
AcDbPolyline
90
40
70
0
43
0.000000
10
-177.128398
20
-128.432783
10
-177.485527
20
-128.611357
10
-177.485527
20
-128.611357
10
-177.842676
20
-128.968496
10
-177.842676
20
-128.968496
10
-178.021230
20
-129.325645
10
-178.021230
20
-129.325645
10
-178.199805
20
-129.861357
10
-178.199805
20
-129.861357
10
-178.199805
20
-130.754219
10
-178.199805
20
-130.754219
10
-178.021230
20
-131.289932
10
-178.021230
20
-131.289932
10
-177.842676
20
-131.647061
10
-177.842676
20
-131.647061
10
-177.485527
20
-132.004219
10
-177.485527
20
-132.004219
10
-177.128398
20
-132.182773
10
-177.128398
20
-132.182773
10
-176.414102
20
-132.182773
10
-176.414102
20
-132.182773
10
-176.056953
20
-132.004219
10
-176.056953
20
-132.004219
10
-175.699824
20
-131.647061
10
-175.699824
20
-131.647061
10
-175.521230
20
-131.289932
10
-175.521230
20
-131.289932
10
-175.342676
20
-130.754219
10
-175.342676
20
-130.754219
10
-175.342676
20
-129.861357
10
-175.342676
20
-129.861357
10
-175.521230
20
-129.325645
10
-175.521230
20
-129.325645
10
-175.699824
20
-128.968496
10
-175.699824
20
-128.968496
10
-176.056953
20
-128.611357
10
-176.056953
20
-128.611357
10
-176.414102
20
-128.432783
10
-176.414102
20
-128.432783
10
-177.128398
20
-128.432783
0
LWPOLYLINE
5
1152
100
AcDbEntity
8
0
100
AcDbPolyline
90
8
70
0
43
0.000000
10
-174.092656
20
-129.682783
10
-174.271250
20
-129.861357
10
-174.271250
20
-129.861357
10
-174.092656
20
-130.039932
10
-174.092656
20
-130.039932
10
-173.914102
20
-129.861357
10
-173.914102
20
-129.861357
10
-174.092656
20
-129.682783
0
LWPOLYLINE
5
1153
100
AcDbEntity
8
0
100
AcDbPolyline
90
8
70
0
43
0.000000
10
-174.092656
20
-131.825645
10
-174.271250
20
-132.004219
10
-174.271250
20
-132.004219
10
-174.092656
20
-132.182773
10
-174.092656
20
-132.182773
10
-173.914102
20
-132.004219
10
-173.914102
20
-132.004219
10
-174.092656
20
-131.825645
0
LWPOLYLINE
5
1154
100
AcDbEntity
8
0
100
AcDbPolyline
90
38
70
0
43
0.000000
10
-170.342676
20
-128.968496
10
-170.699824
20
-128.611357
10
-170.699824
20
-128.611357
10
-171.235527
20
-128.432783
10
-171.235527
20
-128.432783
10
-171.949824
20
-128.432783
10
-171.949824
20
-128.432783
10
-172.485527
20
-128.611357
10
-172.485527
20
-128.611357
10
-172.842676
20
-128.968496
10
-172.842676
20
-128.968496
10
-172.842676
20
-129.325645
10
-172.842676
20
-129.325645
10
-172.664102
20
-129.682783
10
-172.664102
20
-129.682783
10
-172.485527
20
-129.861357
10
-172.485527
20
-129.861357
10
-172.128379
20
-130.039932
10
-172.128379
20
-130.039932
10
-171.056953
20
-130.397070
10
-171.056953
20
-130.397070
10
-170.699824
20
-130.575645
10
-170.699824
20
-130.575645
10
-170.521250
20
-130.754219
10
-170.521250
20
-130.754219
10
-170.342676
20
-131.111357
10
-170.342676
20
-131.111357
10
-170.342676
20
-131.647061
10
-170.342676
20
-131.647061
10
-170.699824
20
-132.004219
10
-170.699824
20
-132.004219
10
-171.235527
20
-132.182773
10
-171.235527
20
-132.182773
10
-171.949824
20
-132.182773
10
-171.949824
20
-132.182773
10
-172.485527
20
-132.004219
10
-172.485527
20
-132.004219
10
-172.842676
20
-131.647061
0
LWPOLYLINE
5
1155
100
AcDbEntity
8
0
100
AcDbPolyline
90
40
70
0
43
0.000000
10
-168.199824
20
-128.432783
10
-168.556953
20
-128.611357
10
-168.556953
20
-128.611357
10
-168.914102
20
-128.968496
10
-168.914102
20
-128.968496
10
-169.092676
20
-129.325645
10
-169.092676
20
-129.325645
10
-169.271250
20
-129.861357
10
-169.271250
20
-129.861357
10
-169.271250
20
-130.754219
10
-169.271250
20
-130.754219
10
-169.092676
20
-131.289932
10
-169.092676
20
-131.289932
10
-168.914102
20
-131.647061
10
-168.914102
20
-131.647061
10
-168.556953
20
-132.004219
10
-168.556953
20
-132.004219
10
-168.199824
20
-132.182773
10
-168.199824
20
-132.182773
10
-167.485527
20
-132.182773
10
-167.485527
20
-132.182773
10
-167.128379
20
-132.004219
10
-167.128379
20
-132.004219
10
-166.771250
20
-131.647061
10
-166.771250
20
-131.647061
10
-166.592676
20
-131.289932
10
-166.592676
20
-131.289932
10
-166.414102
20
-130.754219
10
-166.414102
20
-130.754219
10
-166.414102
20
-129.861357
10
-166.414102
20
-129.861357
10
-166.592676
20
-129.325645
10
-166.592676
20
-129.325645
10
-166.771250
20
-128.968496
10
-166.771250
20
-128.968496
10
-167.128379
20
-128.611357
10
-167.128379
20
-128.611357
10
-167.485527
20
-128.432783
10
-167.485527
20
-128.432783
10
-168.199824
20
-128.432783
0
LWPOLYLINE
5
1156
100
AcDbEntity
8
0
100
AcDbPolyline
90
6
70
0
43
0.000000
10
-165.342676
20
-129.147070
10
-164.985527
20
-128.968496
10
-164.985527
20
-128.968496
10
-164.449805
20
-128.432783
10
-164.449805
20
-128.432783
10
-164.449805
20
-132.182773
0
LWPOLYLINE
5
1157
100
AcDbEntity
8
0
100
AcDbPolyline
90
26
70
0
43
0.000000
10
-163.199814
20
-129.325645
10
-163.199814
20
-129.147070
10
-163.199814
20
-129.147070
10
-163.021240
20
-128.789932
10
-163.021240
20
-128.789932
10
-162.842676
20
-128.611357
10
-162.842676
20
-128.611357
10
-162.485527
20
-128.432783
10
-162.485527
20
-128.432783
10
-161.771240
20
-128.432783
10
-161.771240
20
-128.432783
10
-161.414102
20
-128.611357
10
-161.414102
20
-128.611357
10
-161.235527
20
-128.789932
10
-161.235527
20
-128.789932
10
-161.056963
20
-129.147070
10
-161.056963
20
-129.147070
10
-161.056963
20
-129.504219
10
-161.056963
20
-129.504219
10
-161.235527
20
-129.861357
10
-161.235527
20
-129.861357
10
-161.592676
20
-130.397070
10
-161.592676
20
-130.397070
10
-163.378389
20
-132.182773
10
-163.378389
20
-132.182773
10
-160.878389
20
-132.182773
0
LWPOLYLINE
5
1158
100
AcDbEntity
8
0
100
AcDbPolyline
90
28
70
0
43
0.000000
10
-159.449814
20
-128.432783
10
-157.485527
20
-128.432783
10
-157.485527
20
-128.432783
10
-158.556953
20
-129.861357
10
-158.556953
20
-129.861357
10
-158.021240
20
-129.861357
10
-158.021240
20
-129.861357
10
-157.664102
20
-130.039932
10
-157.664102
20
-130.039932
10
-157.485527
20
-130.218486
10
-157.485527
20
-130.218486
10
-157.306953
20
-130.754219
10
-157.306953
20
-130.754219
10
-157.306953
20
-131.111357
10
-157.306953
20
-131.111357
10
-157.485527
20
-131.647061
10
-157.485527
20
-131.647061
10
-157.842666
20
-132.004219
10
-157.842666
20
-132.004219
10
-158.378389
20
-132.182773
10
-158.378389
20
-132.182773
10
-158.914102
20
-132.182773
10
-158.914102
20
-132.182773
10
-159.449814
20
-132.004219
10
-159.449814
20
-132.004219
10
-159.628389
20
-131.825645
10
-159.628389
20
-131.825645
10
-159.806953
20
-131.468506
0
LWPOLYLINE
5
1159
100
AcDbEntity
8
0
100
AcDbPolyline
90
32
70
0
43
0.000000
10
-155.164111
20
-128.432783
10
-155.699814
20
-128.611357
10
-155.699814
20
-128.611357
10
-156.056953
20
-129.147070
10
-156.056953
20
-129.147070
10
-156.235527
20
-130.039932
10
-156.235527
20
-130.039932
10
-156.235527
20
-130.575645
10
-156.235527
20
-130.575645
10
-156.056953
20
-131.468506
10
-156.056953
20
-131.468506
10
-155.699814
20
-132.004219
10
-155.699814
20
-132.004219
10
-155.164111
20
-132.182773
10
-155.164111
20
-132.182773
10
-154.806953
20
-132.182773
10
-154.806953
20
-132.182773
10
-154.271240
20
-132.004219
10
-154.271240
20
-132.004219
10
-153.914092
20
-131.468506
10
-153.914092
20
-131.468506
10
-153.735537
20
-130.575645
10
-153.735537
20
-130.575645
10
-153.735537
20
-130.039932
10
-153.735537
20
-130.039932
10
-153.914092
20
-129.147070
10
-153.914092
20
-129.147070
10
-154.271240
20
-128.611357
10
-154.271240
20
-128.611357
10
-154.806953
20
-128.432783
10
-154.806953
20
-128.432783
10
-155.164111
20
-128.432783
0
LWPOLYLINE
5
1160
100
AcDbEntity
8
0
100
AcDbPolyline
90
4
70
0
43
0.000000
10
-150.878389
20
-128.432783
10
-152.664111
20
-130.932773
10
-152.664111
20
-130.932773
10
-149.985537
20
-130.932773
0
LWPOLYLINE
5
1161
100
AcDbEntity
8
0
100
AcDbPolyline
90
2
70
0
43
0.000000
10
-150.878389
20
-128.432783
10
-150.878389
20
-132.182773
0
LWPOLYLINE
5
1162
100
AcDbEntity
8
0
100
AcDbPolyline
90
32
70
0
43
0.000000
10
-147.842676
20
-128.432783
10
-148.378389
20
-128.611357
10
-148.378389
20
-128.611357
10
-148.735537
20
-129.147070
10
-148.735537
20
-129.147070
10
-148.914102
20
-130.039932
10
-148.914102
20
-130.039932
10
-148.914102
20
-130.575645
10
-148.914102
20
-130.575645
10
-148.735537
20
-131.468506
10
-148.735537
20
-131.468506
10
-148.378389
20
-132.004219
10
-148.378389
20
-132.004219
10
-147.842676
20
-132.182773
10
-147.842676
20
-132.182773
10
-147.485537
20
-132.182773
10
-147.485537
20
-132.182773
10
-146.949814
20
-132.004219
10
-146.949814
20
-132.004219
10
-146.592676
20
-131.468506
10
-146.592676
20
-131.468506
10
-146.414102
20
-130.575645
10
-146.414102
20
-130.575645
10
-146.414102
20
-130.039932
10
-146.414102
20
-130.039932
10
-146.592676
20
-129.147070
10
-146.592676
20
-129.147070
10
-146.949814
20
-128.611357
10
-146.949814
20
-128.611357
10
-147.485537
20
-128.432783
10
-147.485537
20
-128.432783
10
-147.842676
20
-128.432783
0
LWPOLYLINE
5
1163
100
AcDbEntity
8
0
100
AcDbPolyline
90
4
70
0
43
0.000000
10
-143.556963
20
-128.432783
10
-145.342676
20
-130.932773
10
-145.342676
20
-130.932773
10
-142.664102
20
-130.932773
0
LWPOLYLINE
5
1164
100
AcDbEntity
8
0
100
AcDbPolyline
90
2
70
0
43
0.000000
10
-143.556963
20
-128.432783
10
-143.556963
20
-132.182773
0
LWPOLYLINE
5
1165
100
AcDbEntity
8
0
100
AcDbPolyline
90
44
70
0
43
0.000000
10
-139.449824
20
-128.968496
10
-139.628398
20
-128.611357
10
-139.628398
20
-128.611357
10
-140.164111
20
-128.432783
10
-140.164111
20
-128.432783
10
-140.521240
20
-128.432783
10
-140.521240
20
-128.432783
10
-141.056953
20
-128.611357
10
-141.056953
20
-128.611357
10
-141.414102
20
-129.147070
10
-141.414102
20
-129.147070
10
-141.592686
20
-130.039932
10
-141.592686
20
-130.039932
10
-141.592686
20
-130.932773
10
-141.592686
20
-130.932773
10
-141.414102
20
-131.647061
10
-141.414102
20
-131.647061
10
-141.056953
20
-132.004219
10
-141.056953
20
-132.004219
10
-140.521240
20
-132.182773
10
-140.521240
20
-132.182773
10
-140.342686
20
-132.182773
10
-140.342686
20
-132.182773
10
-139.806953
20
-132.004219
10
-139.806953
20
-132.004219
10
-139.449824
20
-131.647061
10
-139.449824
20
-131.647061
10
-139.271240
20
-131.111357
10
-139.271240
20
-131.111357
10
-139.271240
20
-130.932773
10
-139.271240
20
-130.932773
10
-139.449824
20
-130.397070
10
-139.449824
20
-130.397070
10
-139.806953
20
-130.039932
10
-139.806953
20
-130.039932
10
-140.342686
20
-129.861357
10
-140.342686
20
-129.861357
10
-140.521240
20
-129.861357
10
-140.521240
20
-129.861357
10
-141.056953
20
-130.039932
10
-141.056953
20
-130.039932
10
-141.414102
20
-130.397070
10
-141.414102
20
-130.397070
10
-141.592686
20
-130.932773
0
LWPOLYLINE
5
1166
100
AcDbEntity
8
0
100
AcDbPolyline
90
44
70
0
43
0.000000
10
-136.056963
20
-128.968496
10
-136.235537
20
-128.611357
10
-136.235537
20
-128.611357
10
-136.771250
20
-128.432783
10
-136.771250
20
-128.432783
10
-137.128379
20
-128.432783
10
-137.128379
20
-128.432783
10
-137.664111
20
-128.611357
10
-137.664111
20
-128.611357
10
-138.021250
20
-129.147070
10
-138.021250
20
-129.147070
10
-138.199824
20
-130.039932
10
-138.199824
20
-130.039932
10
-138.199824
20
-130.932773
10
-138.199824
20
-130.932773
10
-138.021250
20
-131.647061
10
-138.021250
20
-131.647061
10
-137.664111
20
-132.004219
10
-137.664111
20
-132.004219
10
-137.128379
20
-132.182773
10
-137.128379
20
-132.182773
10
-136.949824
20
-132.182773
10
-136.949824
20
-132.182773
10
-136.414111
20
-132.004219
10
-136.414111
20
-132.004219
10
-136.056963
20
-131.647061
10
-136.056963
20
-131.647061
10
-135.878389
20
-131.111357
10
-135.878389
20
-131.111357
10
-135.878389
20
-130.932773
10
-135.878389
20
-130.932773
10
-136.056963
20
-130.397070
10
-136.056963
20
-130.397070
10
-136.414111
20
-130.039932
10
-136.414111
20
-130.039932
10
-136.949824
20
-129.861357
10
-136.949824
20
-129.861357
10
-137.128379
20
-129.861357
10
-137.128379
20
-129.861357
10
-137.664111
20
-130.039932
10
-137.664111
20
-130.039932
10
-138.021250
20
-130.397070
10
-138.021250
20
-130.397070
10
-138.199824
20
-130.932773
0
LWPOLYLINE
5
1167
100
AcDbEntity
8
0
100
AcDbPolyline
90
26
70
0
43
0.000000
10
-134.628389
20
-129.325645
10
-134.628389
20
-129.147070
10
-134.628389
20
-129.147070
10
-134.449824
20
-128.789932
10
-134.449824
20
-128.789932
10
-134.271250
20
-128.611357
10
-134.271250
20
-128.611357
10
-133.914102
20
-128.432783
10
-133.914102
20
-128.432783
10
-133.199814
20
-128.432783
10
-133.199814
20
-128.432783
10
-132.842676
20
-128.611357
10
-132.842676
20
-128.611357
10
-132.664102
20
-128.789932
10
-132.664102
20
-128.789932
10
-132.485537
20
-129.147070
10
-132.485537
20
-129.147070
10
-132.485537
20
-129.504219
10
-132.485537
20
-129.504219
10
-132.664102
20
-129.861357
10
-132.664102
20
-129.861357
10
-133.021250
20
-130.397070
10
-133.021250
20
-130.397070
10
-134.806963
20
-132.182773
10
-134.806963
20
-132.182773
10
-132.306963
20
-132.182773
0
LWPOLYLINE
5
1168
100
AcDbEntity
8
0
100
AcDbPolyline
90
32
70
0
43
0.000000
10
-128.914102
20
-128.432783
10
-130.699814
20
-128.432783
10
-130.699814
20
-128.432783
10
-130.878389
20
-130.039932
10
-130.878389
20
-130.039932
10
-130.699814
20
-129.861357
10
-130.699814
20
-129.861357
10
-130.164102
20
-129.682783
10
-130.164102
20
-129.682783
10
-129.628389
20
-129.682783
10
-129.628389
20
-129.682783
10
-129.092676
20
-129.861357
10
-129.092676
20
-129.861357
10
-128.735527
20
-130.218486
10
-128.735527
20
-130.218486
10
-128.556963
20
-130.754219
10
-128.556963
20
-130.754219
10
-128.556963
20
-131.111357
10
-128.556963
20
-131.111357
10
-128.914102
20
-131.647061
10
-128.914102
20
-131.647061
10
-129.271250
20
-132.004219
10
-129.271250
20
-132.004219
10
-129.806963
20
-132.182773
10
-129.806963
20
-132.182773
10
-130.342676
20
-132.182773
10
-130.342676
20
-132.182773
10
-130.878389
20
-132.004219
10
-130.878389
20
-132.004219
10
-131.056963
20
-131.825645
10
-131.056963
20
-131.825645
10
-131.235527
20
-131.468506
0
LWPOLYLINE
5
1169
100
AcDbEntity
8
0
100
AcDbPolyline
90
4
70
0
43
0.000000
10
-111.414102
20
-128.432783
10
-113.199824
20
-130.932773
10
-113.199824
20
-130.932773
10
-110.521250
20
-130.932773
0
LWPOLYLINE
5
1170
100
AcDbEntity
8
0
100
AcDbPolyline
90
2
70
0
43
0.000000
10
-111.414102
20
-128.432783
10
-111.414102
20
-132.182773
0
LWPOLYLINE
5
1171
100
AcDbEntity
8
0
100
AcDbPolyline
90
2
70
0
43
0.000000
10
-106.949824
20
-128.432783
10
-108.735527
20
-132.182773
0
LWPOLYLINE
5
1172
100
AcDbEntity
8
0
100
AcDbPolyline
90
2
70
0
43
0.000000
10
-109.449814
20
-128.432783
10
-106.949824
20
-128.432783
0
LWPOLYLINE
5
1173
100
AcDbEntity
8
0
100
AcDbPolyline
90
32
70
0
43
0.000000
10
-103.556963
20
-128.432783
10
-105.342676
20
-128.432783
10
-105.342676
20
-128.432783
10
-105.521250
20
-130.039932
10
-105.521250
20
-130.039932
10
-105.342676
20
-129.861357
10
-105.342676
20
-129.861357
10
-104.806963
20
-129.682783
10
-104.806963
20
-129.682783
10
-104.271250
20
-129.682783
10
-104.271250
20
-129.682783
10
-103.735537
20
-129.861357
10
-103.735537
20
-129.861357
10
-103.378389
20
-130.218486
10
-103.378389
20
-130.218486
10
-103.199814
20
-130.754219
10
-103.199814
20
-130.754219
10
-103.199814
20
-131.111357
10
-103.199814
20
-131.111357
10
-103.556963
20
-131.647061
10
-103.556963
20
-131.647061
10
-103.914102
20
-132.004219
10
-103.914102
20
-132.004219
10
-104.449824
20
-132.182773
10
-104.449824
20
-132.182773
10
-104.985537
20
-132.182773
10
-104.985537
20
-132.182773
10
-105.521250
20
-132.004219
10
-105.521250
20
-132.004219
10
-105.699824
20
-131.825645
10
-105.699824
20
-131.825645
10
-105.878389
20
-131.468506
0
LWPOLYLINE
5
1174
100
AcDbEntity
8
0
100
AcDbPolyline
90
2
70
0
43
0.000000
10
-99.628389
20
-128.432783
10
-101.414111
20
-132.182773
0
LWPOLYLINE
5
1175
100
AcDbEntity
8
0
100
AcDbPolyline
90
2
70
0
43
0.000000
10
-102.128398
20
-128.432783
10
-99.628389
20
-128.432783
0
LWPOLYLINE
5
1176
100
AcDbEntity
8
0
100
AcDbPolyline
90
44
70
0
43
0.000000
10
-96.414102
20
-128.968496
10
-96.592676
20
-128.611357
10
-96.592676
20
-128.611357
10
-97.128389
20
-128.432783
10
-97.128389
20
-128.432783
10
-97.485537
20
-128.432783
10
-97.485537
20
-128.432783
10
-98.021250
20
-128.611357
10
-98.021250
20
-128.611357
10
-98.378389
20
-129.147070
10
-98.378389
20
-129.147070
10
-98.556963
20
-130.039932
10
-98.556963
20
-130.039932
10
-98.556963
20
-130.932773
10
-98.556963
20
-130.932773
10
-98.378389
20
-131.647061
10
-98.378389
20
-131.647061
10
-98.021250
20
-132.004219
10
-98.021250
20
-132.004219
10
-97.485537
20
-132.182773
10
-97.485537
20
-132.182773
10
-97.306963
20
-132.182773
10
-97.306963
20
-132.182773
10
-96.771250
20
-132.004219
10
-96.771250
20
-132.004219
10
-96.414102
20
-131.647061
10
-96.414102
20
-131.647061
10
-96.235537
20
-131.111357
10
-96.235537
20
-131.111357
10
-96.235537
20
-130.932773
10
-96.235537
20
-130.932773
10
-96.414102
20
-130.397070
10
-96.414102
20
-130.397070
10
-96.771250
20
-130.039932
10
-96.771250
20
-130.039932
10
-97.306963
20
-129.861357
10
-97.306963
20
-129.861357
10
-97.485537
20
-129.861357
10
-97.485537
20
-129.861357
10
-98.021250
20
-130.039932
10
-98.021250
20
-130.039932
10
-98.378389
20
-130.397070
10
-98.378389
20
-130.397070
10
-98.556963
20
-130.932773
0
LWPOLYLINE
5
1177
100
AcDbEntity
8
0
100
AcDbPolyline
90
32
70
0
43
0.000000
10
-92.842676
20
-128.432783
10
-94.628398
20
-128.432783
10
-94.628398
20
-128.432783
10
-94.806963
20
-130.039932
10
-94.806963
20
-130.039932
10
-94.628398
20
-129.861357
10
-94.628398
20
-129.861357
10
-94.092676
20
-129.682783
10
-94.092676
20
-129.682783
10
-93.556963
20
-129.682783
10
-93.556963
20
-129.682783
10
-93.021250
20
-129.861357
10
-93.021250
20
-129.861357
10
-92.664111
20
-130.218486
10
-92.664111
20
-130.218486
10
-92.485527
20
-130.754219
10
-92.485527
20
-130.754219
10
-92.485527
20
-131.111357
10
-92.485527
20
-131.111357
10
-92.842676
20
-131.647061
10
-92.842676
20
-131.647061
10
-93.199814
20
-132.004219
10
-93.199814
20
-132.004219
10
-93.735527
20
-132.182773
10
-93.735527
20
-132.182773
10
-94.271250
20
-132.182773
10
-94.271250
20
-132.182773
10
-94.806963
20
-132.004219
10
-94.806963
20
-132.004219
10
-94.985537
20
-131.825645
10
-94.985537
20
-131.825645
10
-95.164102
20
-131.468506
0
LWPOLYLINE
5
1178
100
AcDbEntity
8
0
100
AcDbPolyline
90
4
70
0
43
0.000000
10
-89.628389
20
-128.432783
10
-91.414111
20
-130.932773
10
-91.414111
20
-130.932773
10
-88.735537
20
-130.932773
0
LWPOLYLINE
5
1179
100
AcDbEntity
8
0
100
AcDbPolyline
90
2
70
0
43
0.000000
10
-89.628389
20
-128.432783
10
-89.628389
20
-132.182773
0
LWPOLYLINE
5
1180
100
AcDbEntity
8
0
100
AcDbPolyline
90
2
70
0
43
0.000000
10
-86.235527
20
-128.432783
10
-87.664102
20
-132.182773
0
LWPOLYLINE
5
1181
100
AcDbEntity
8
0
100
AcDbPolyline
90
2
70
0
43
0.000000
10
-86.235527
20
-128.432783
10
-84.806963
20
-132.182773
0
LWPOLYLINE
5
1182
100
AcDbEntity
8
0
100
AcDbPolyline
90
2
70
0
43
0.000000
10
-87.128389
20
-130.932773
10
-85.342676
20
-130.932773
0
LWPOLYLINE
5
1183
100
AcDbEntity
8
0
100
AcDbPolyline
90
16
70
0
43
0.000000
10
-31.597000
20
43.195000
10
-33.046997
20
43.195000
10
-33.046997
20
43.195000
10
-33.046997
20
42.068999
10
-33.046997
20
42.068999
10
-32.563999
20
42.068999
10
-32.563999
20
42.068999
10
-32.563999
20
42.445000
10
-32.563999
20
42.445000
10
-32.079998
20
42.445000
10
-32.079998
20
42.445000
10
-32.079998
20
42.068999
10
-32.079998
20
42.068999
10
-31.597000
20
42.068999
10
-31.597000
20
42.068999
10
-31.597000
20
43.195000
0
LWPOLYLINE
5
1184
100
AcDbEntity
8
0
100
AcDbPolyline
90
16
70
0
43
0.000000
10
-33.883000
20
43.195000
10
-35.333000
20
43.195000
10
-35.333000
20
43.195000
10
-35.333000
20
42.068999
10
-35.333000
20
42.068999
10
-34.850002
20
42.068999
10
-34.850002
20
42.068999
10
-34.850002
20
42.445000
10
-34.850002
20
42.445000
10
-34.366001
20
42.445000
10
-34.366001
20
42.445000
10
-34.366001
20
42.068999
10
-34.366001
20
42.068999
10
-33.883000
20
42.068999
10
-33.883000
20
42.068999
10
-33.883000
20
43.195000
0
LWPOLYLINE
5
1185
100
AcDbEntity
8
0
100
AcDbPolyline
90
8
70
0
43
0.000000
10
-10.155000
20
42.612998
10
-11.805000
20
42.612998
10
-11.805000
20
42.612998
10
-11.805000
20
41.813003
10
-11.805000
20
41.813003
10
-10.155000
20
41.813003
10
-10.155000
20
41.813003
10
-10.155000
20
42.612998
0
LWPOLYLINE
5
1186
100
AcDbEntity
8
0
100
AcDbPolyline
90
8
70
0
43
0.000000
10
-27.804001
20
42.612998
10
-29.454001
20
42.612998
10
-29.454001
20
42.612998
10
-29.454001
20
41.813003
10
-29.454001
20
41.813003
10
-27.804001
20
41.813003
10
-27.804001
20
41.813003
10
-27.804001
20
42.612998
0
LWPOLYLINE
5
1187
100
AcDbEntity
8
0
100
AcDbPolyline
90
16
70
0
43
0.000000
10
-31.597000
20
41.366997
10
-32.079998
20
41.366997
10
-32.079998
20
41.366997
10
-32.079998
20
40.993003
10
-32.079998
20
40.993003
10
-32.563999
20
40.993003
10
-32.563999
20
40.993003
10
-32.563999
20
41.366997
10
-32.563999
20
41.366997
10
-33.046997
20
41.366997
10
-33.046997
20
41.366997
10
-33.046997
20
40.243000
10
-33.046997
20
40.243000
10
-31.597000
20
40.243000
10
-31.597000
20
40.243000
10
-31.597000
20
41.366997
0
LWPOLYLINE
5
1188
100
AcDbEntity
8
0
100
AcDbPolyline
90
16
70
0
43
0.000000
10
-33.883000
20
41.366997
10
-34.366001
20
41.366997
10
-34.366001
20
41.366997
10
-34.366001
20
40.993003
10
-34.366001
20
40.993003
10
-34.850002
20
40.993003
10
-34.850002
20
40.993003
10
-34.850002
20
41.366997
10
-34.850002
20
41.366997
10
-35.333000
20
41.366997
10
-35.333000
20
41.366997
10
-35.333000
20
40.243000
10
-35.333000
20
40.243000
10
-33.883000
20
40.243000
10
-33.883000
20
40.243000
10
-33.883000
20
41.366997
0
LWPOLYLINE
5
1189
100
AcDbEntity
8
0
100
AcDbPolyline
90
16
70
0
43
0.000000
10
-40.711001
20
41.351001
10
-42.161001
20
41.351001
10
-42.161001
20
41.351001
10
-42.161001
20
40.225000
10
-42.161001
20
40.225000
10
-41.677998
20
40.225000
10
-41.677998
20
40.225000
10
-41.677998
20
40.601001
10
-41.677998
20
40.601001
10
-41.193999
20
40.601001
10
-41.193999
20
40.601001
10
-41.193999
20
40.225000
10
-41.193999
20
40.225000
10
-40.711001
20
40.225000
10
-40.711001
20
40.225000
10
-40.711001
20
41.351001
0
LWPOLYLINE
5
1190
100
AcDbEntity
8
0
100
AcDbPolyline
90
16
70
0
43
0.000000
10
-43.075000
20
41.335000
10
-44.545000
20
41.335000
10
-44.545000
20
41.335000
10
-44.545000
20
40.225000
10
-44.545000
20
40.225000
10
-44.055000
20
40.225000
10
-44.055000
20
40.225000
10
-44.055000
20
40.594998
10
-44.055000
20
40.594998
10
-43.565000
20
40.594998
10
-43.565000
20
40.594998
10
-43.565000
20
40.225000
10
-43.565000
20
40.225000
10
-43.075000
20
40.225000
10
-43.075000
20
40.225000
10
-43.075000
20
41.335000
0
LWPOLYLINE
5
1191
100
AcDbEntity
8
0
100
AcDbPolyline
90
8
70
0
43
0.000000
10
-45.300000
20
41.300000
10
-47.030000
20
41.300000
10
-47.030000
20
41.300000
10
-47.030000
20
40.199998
10
-47.030000
20
40.199998
10
-45.300000
20
40.199998
10
-45.300000
20
40.199998
10
-45.300000
20
41.300000
0
LWPOLYLINE
5
1192
100
AcDbEntity
8
0
100
AcDbPolyline
90
8
70
0
43
0.000000
10
-10.155000
20
41.342998
10
-11.805000
20
41.342998
10
-11.805000
20
41.342998
10
-11.805000
20
40.543000
10
-11.805000
20
40.543000
10
-10.155000
20
40.543000
10
-10.155000
20
40.543000
10
-10.155000
20
41.342998
0
LWPOLYLINE
5
1193
100
AcDbEntity
8
0
100
AcDbPolyline
90
8
70
0
43
0.000000
10
-27.804001
20
41.342998
10
-29.454001
20
41.342998
10
-29.454001
20
41.342998
10
-29.454001
20
40.543000
10
-29.454001
20
40.543000
10
-27.804001
20
40.543000
10
-27.804001
20
40.543000
10
-27.804001
20
41.342998
0
LWPOLYLINE
5
1194
100
AcDbEntity
8
0
100
AcDbPolyline
90
8
70
0
43
0.000000
10
-10.155000
20
40.073000
10
-11.805000
20
40.073000
10
-11.805000
20
40.073000
10
-11.805000
20
39.273000
10
-11.805000
20
39.273000
10
-10.155000
20
39.273000
10
-10.155000
20
39.273000
10
-10.155000
20
40.073000
0
LWPOLYLINE
5
1195
100
AcDbEntity
8
0
100
AcDbPolyline
90
8
70
0
43
0.000000
10
-27.804001
20
40.073000
10
-29.454001
20
40.073000
10
-29.454001
20
40.073000
10
-29.454001
20
39.273000
10
-29.454001
20
39.273000
10
-27.804001
20
39.273000
10
-27.804001
20
39.273000
10
-27.804001
20
40.073000
0
LWPOLYLINE
5
1196
100
AcDbEntity
8
0
100
AcDbPolyline
90
16
70
0
43
0.000000
10
-43.075000
20
39.524998
10
-43.565000
20
39.524998
10
-43.565000
20
39.524998
10
-43.565000
20
39.155000
10
-43.565000
20
39.155000
10
-44.055000
20
39.155000
10
-44.055000
20
39.155000
10
-44.055000
20
39.524998
10
-44.055000
20
39.524998
10
-44.545000
20
39.524998
10
-44.545000
20
39.524998
10
-44.545000
20
38.415000
10
-44.545000
20
38.415000
10
-43.075000
20
38.415000
10
-43.075000
20
38.415000
10
-43.075000
20
39.524998
0
LWPOLYLINE
5
1197
100
AcDbEntity
8
0
100
AcDbPolyline
90
16
70
0
43
0.000000
10
-40.711001
20
39.523003
10
-41.193999
20
39.523003
10
-41.193999
20
39.523003
10
-41.193999
20
39.149001
10
-41.193999
20
39.149001
10
-41.677998
20
39.149001
10
-41.677998
20
39.149001
10
-41.677998
20
39.523003
10
-41.677998
20
39.523003
10
-42.161001
20
39.523003
10
-42.161001
20
39.523003
10
-42.161001
20
38.398999
10
-42.161001
20
38.398999
10
-40.711001
20
38.398999
10
-40.711001
20
38.398999
10
-40.711001
20
39.523003
0
LWPOLYLINE
5
1198
100
AcDbEntity
8
0
100
AcDbPolyline
90
8
70
0
43
0.000000
10
-10.155000
20
38.803000
10
-11.805000
20
38.803000
10
-11.805000
20
38.803000
10
-11.805000
20
38.003000
10
-11.805000
20
38.003000
10
-10.155000
20
38.003000
10
-10.155000
20
38.003000
10
-10.155000
20
38.803000
0
LWPOLYLINE
5
1199
100
AcDbEntity
8
0
100
AcDbPolyline
90
8
70
0
43
0.000000
10
-27.804001
20
38.803000
10
-29.454001
20
38.803000
10
-29.454001
20
38.803000
10
-29.454001
20
38.003000
10
-29.454001
20
38.003000
10
-27.804001
20
38.003000
10
-27.804001
20
38.003000
10
-27.804001
20
38.803000
0
LWPOLYLINE
5
1200
100
AcDbEntity
8
0
100
AcDbPolyline
90
8
70
0
43
0.000000
10
-45.300000
20
38.280000
10
-47.030000
20
38.280000
10
-47.030000
20
38.280000
10
-47.030000
20
37.180000
10
-47.030000
20
37.180000
10
-45.300000
20
37.180000
10
-45.300000
20
37.180000
10
-45.300000
20
38.280000
0
LWPOLYLINE
5
1201
100
AcDbEntity
8
0
100
AcDbPolyline
90
8
70
0
43
0.000000
10
-10.155000
20
37.533000
10
-11.805000
20
37.533000
10
-11.805000
20
37.533000
10
-11.805000
20
36.733000
10
-11.805000
20
36.733000
10
-10.155000
20
36.733000
10
-10.155000
20
36.733000
10
-10.155000
20
37.533000
0
LWPOLYLINE
5
1202
100
AcDbEntity
8
0
100
AcDbPolyline
90
8
70
0
43
0.000000
10
-27.804001
20
37.533000
10
-29.454001
20
37.533000
10
-29.454001
20
37.533000
10
-29.454001
20
36.733000
10
-29.454001
20
36.733000
10
-27.804001
20
36.733000
10
-27.804001
20
36.733000
10
-27.804001
20
37.533000
0
LWPOLYLINE
5
1203
100
AcDbEntity
8
0
100
AcDbPolyline
90
8
70
0
43
0.000000
10
-19.454000
20
36.343000
10
-20.354000
20
36.343000
10
-20.354000
20
36.343000
10
-20.354000
20
35.443000
10
-20.354000
20
35.443000
10
-19.454000
20
35.443000
10
-19.454000
20
35.443000
10
-19.454000
20
36.343000
0
LWPOLYLINE
5
1204
100
AcDbEntity
8
0
100
AcDbPolyline
90
8
70
0
43
0.000000
10
-20.855000
20
36.343000
10
-21.754001
20
36.343000
10
-21.754001
20
36.343000
10
-21.754001
20
35.443000
10
-21.754001
20
35.443000
10
-20.855000
20
35.443000
10
-20.855000
20
35.443000
10
-20.855000
20
36.343000
0
LWPOLYLINE
5
1205
100
AcDbEntity
8
0
100
AcDbPolyline
90
8
70
0
43
0.000000
10
-22.255000
20
36.343000
10
-23.155000
20
36.343000
10
-23.155000
20
36.343000
10
-23.155000
20
35.443000
10
-23.155000
20
35.443000
10
-22.255000
20
35.443000
10
-22.255000
20
35.443000
10
-22.255000
20
36.343000
0
LWPOLYLINE
5
1206
100
AcDbEntity
8
0
100
AcDbPolyline
90
8
70
0
43
0.000000
10
-27.804001
20
36.263000
10
-29.454001
20
36.263000
10
-29.454001
20
36.263000
10
-29.454001
20
35.463000
10
-29.454001
20
35.463000
10
-27.804001
20
35.463000
10
-27.804001
20
35.463000
10
-27.804001
20
36.263000
0
LWPOLYLINE
5
1207
100
AcDbEntity
8
0
100
AcDbPolyline
90
8
70
0
43
0.000000
10
-10.155000
20
36.263000
10
-11.805000
20
36.263000
10
-11.805000
20
36.263000
10
-11.805000
20
35.463000
10
-11.805000
20
35.463000
10
-10.155000
20
35.463000
10
-10.155000
20
35.463000
10
-10.155000
20
36.263000
0
LWPOLYLINE
5
1208
100
AcDbEntity
8
0
100
AcDbPolyline
90
8
70
0
43
0.000000
10
-10.155000
20
34.993000
10
-11.805000
20
34.993000
10
-11.805000
20
34.993000
10
-11.805000
20
34.193000
10
-11.805000
20
34.193000
10
-10.155000
20
34.193000
10
-10.155000
20
34.193000
10
-10.155000
20
34.993000
0
LWPOLYLINE
5
1209
100
AcDbEntity
8
0
100
AcDbPolyline
90
8
70
0
43
0.000000
10
-27.804001
20
34.993000
10
-29.454001
20
34.993000
10
-29.454001
20
34.993000
10
-29.454001
20
34.193000
10
-29.454001
20
34.193000
10
-27.804001
20
34.193000
10
-27.804001
20
34.193000
10
-27.804001
20
34.993000
0
LWPOLYLINE
5
1210
100
AcDbEntity
8
0
100
AcDbPolyline
90
8
70
0
43
0.000000
10
-39.439998
20
34.345999
10
-40.750000
20
34.345999
10
-40.750000
20
34.345999
10
-40.750000
20
33.415999
10
-40.750000
20
33.415999
10
-39.439998
20
33.415999
10
-39.439998
20
33.415999
10
-39.439998
20
34.345999
0
LWPOLYLINE
5
1211
100
AcDbEntity
8
0
100
AcDbPolyline
90
8
70
0
43
0.000000
10
-19.454000
20
34.943000
10
-20.354000
20
34.943000
10
-20.354000
20
34.943000
10
-20.354000
20
34.042998
10
-20.354000
20
34.042998
10
-19.454000
20
34.042998
10
-19.454000
20
34.042998
10
-19.454000
20
34.943000
0
LWPOLYLINE
5
1212
100
AcDbEntity
8
0
100
AcDbPolyline
90
8
70
0
43
0.000000
10
-20.855000
20
34.943000
10
-21.754001
20
34.943000
10
-21.754001
20
34.943000
10
-21.754001
20
34.042998
10
-21.754001
20
34.042998
10
-20.855000
20
34.042998
10
-20.855000
20
34.042998
10
-20.855000
20
34.943000
0
LWPOLYLINE
5
1213
100
AcDbEntity
8
0
100
AcDbPolyline
90
8
70
0
43
0.000000
10
-22.255000
20
34.943000
10
-23.155000
20
34.943000
10
-23.155000
20
34.943000
10
-23.155000
20
34.042998
10
-23.155000
20
34.042998
10
-22.255000
20
34.042998
10
-22.255000
20
34.042998
10
-22.255000
20
34.943000
0
LWPOLYLINE
5
1214
100
AcDbEntity
8
0
100
AcDbPolyline
90
8
70
0
43
0.000000
10
-10.155000
20
33.723000
10
-11.805000
20
33.723000
10
-11.805000
20
33.723000
10
-11.805000
20
32.922998
10
-11.805000
20
32.922998
10
-10.155000
20
32.922998
10
-10.155000
20
32.922998
10
-10.155000
20
33.723000
0
LWPOLYLINE
5
1215
100
AcDbEntity
8
0
100
AcDbPolyline
90
8
70
0
43
0.000000
10
-27.804001
20
33.723000
10
-29.454001
20
33.723000
10
-29.454001
20
33.723000
10
-29.454001
20
32.922998
10
-29.454001
20
32.922998
10
-27.804001
20
32.922998
10
-27.804001
20
32.922998
10
-27.804001
20
33.723000
0
LWPOLYLINE
5
1216
100
AcDbEntity
8
0
100
AcDbPolyline
90
8
70
0
43
0.000000
10
-46.130000
20
33.211001
10
-47.440000
20
33.211001
10
-47.440000
20
33.211001
10
-47.440000
20
29.971001
10
-47.440000
20
29.971001
10
-46.130000
20
29.971001
10
-46.130000
20
29.971001
10
-46.130000
20
33.211001
0
LWPOLYLINE
5
1217
100
AcDbEntity
8
0
100
AcDbPolyline
90
8
70
0
43
0.000000
10
-19.454000
20
33.542998
10
-20.354000
20
33.542998
10
-20.354000
20
33.542998
10
-20.354000
20
32.643000
10
-20.354000
20
32.643000
10
-19.454000
20
32.643000
10
-19.454000
20
32.643000
10
-19.454000
20
33.542998
0
LWPOLYLINE
5
1218
100
AcDbEntity
8
0
100
AcDbPolyline
90
8
70
0
43
0.000000
10
-20.855000
20
33.542998
10
-21.754001
20
33.542998
10
-21.754001
20
33.542998
10
-21.754001
20
32.643000
10
-21.754001
20
32.643000
10
-20.855000
20
32.643000
10
-20.855000
20
32.643000
10
-20.855000
20
33.542998
0
LWPOLYLINE
5
1219
100
AcDbEntity
8
0
100
AcDbPolyline
90
8
70
0
43
0.000000
10
-22.255000
20
33.542998
10
-23.155000
20
33.542998
10
-23.155000
20
33.542998
10
-23.155000
20
32.643000
10
-23.155000
20
32.643000
10
-22.255000
20
32.643000
10
-22.255000
20
32.643000
10
-22.255000
20
33.542998
0
LWPOLYLINE
5
1220
100
AcDbEntity
8
0
100
AcDbPolyline
90
8
70
0
43
0.000000
10
-10.155000
20
32.453000
10
-11.805000
20
32.453000
10
-11.805000
20
32.453000
10
-11.805000
20
31.652998
10
-11.805000
20
31.652998
10
-10.155000
20
31.652998
10
-10.155000
20
31.652998
10
-10.155000
20
32.453000
0
LWPOLYLINE
5
1221
100
AcDbEntity
8
0
100
AcDbPolyline
90
8
70
0
43
0.000000
10
-27.804001
20
32.453000
10
-29.454001
20
32.453000
10
-29.454001
20
32.453000
10
-29.454001
20
31.652998
10
-29.454001
20
31.652998
10
-27.804001
20
31.652998
10
-27.804001
20
31.652998
10
-27.804001
20
32.453000
0
LWPOLYLINE
5
1222
100
AcDbEntity
8
0
100
AcDbPolyline
90
8
70
0
43
0.000000
10
-39.439998
20
32.056001
10
-40.750000
20
32.056001
10
-40.750000
20
32.056001
10
-40.750000
20
31.126001
10
-40.750000
20
31.126001
10
-39.439998
20
31.126001
10
-39.439998
20
31.126001
10
-39.439998
20
32.056001
0
LWPOLYLINE
5
1223
100
AcDbEntity
8
0
100
AcDbPolyline
90
8
70
0
43
0.000000
10
-10.155000
20
31.183000
10
-11.805000
20
31.183000
10
-11.805000
20
31.183000
10
-11.805000
20
30.383000
10
-11.805000
20
30.383000
10
-10.155000
20
30.383000
10
-10.155000
20
30.383000
10
-10.155000
20
31.183000
0
LWPOLYLINE
5
1224
100
AcDbEntity
8
0
100
AcDbPolyline
90
8
70
0
43
0.000000
10
-27.804001
20
31.183000
10
-29.454001
20
31.183000
10
-29.454001
20
31.183000
10
-29.454001
20
30.383000
10
-29.454001
20
30.383000
10
-27.804001
20
30.383000
10
-27.804001
20
30.383000
10
-27.804001
20
31.183000
0
LWPOLYLINE
5
1225
100
AcDbEntity
8
0
100
AcDbPolyline
90
8
70
0
43
0.000000
10
-10.155000
20
29.913000
10
-11.805000
20
29.913000
10
-11.805000
20
29.913000
10
-11.805000
20
29.113000
10
-11.805000
20
29.113000
10
-10.155000
20
29.113000
10
-10.155000
20
29.113000
10
-10.155000
20
29.913000
0
LWPOLYLINE
5
1226
100
AcDbEntity
8
0
100
AcDbPolyline
90
8
70
0
43
0.000000
10
-27.804001
20
29.913000
10
-29.454001
20
29.913000
10
-29.454001
20
29.913000
10
-29.454001
20
29.113000
10
-29.454001
20
29.113000
10
-27.804001
20
29.113000
10
-27.804001
20
29.113000
10
-27.804001
20
29.913000
0
LWPOLYLINE
5
1227
100
AcDbEntity
8
0
100
AcDbPolyline
90
8
70
0
43
0.000000
10
-39.439998
20
29.766001
10
-40.750000
20
29.766001
10
-40.750000
20
29.766001
10
-40.750000
20
28.836001
10
-40.750000
20
28.836001
10
-39.439998
20
28.836001
10
-39.439998
20
28.836001
10
-39.439998
20
29.766001
0
LWPOLYLINE
5
1228
100
AcDbEntity
8
0
100
AcDbPolyline
90
8
70
0
43
0.000000
10
-10.155000
20
28.642998
10
-11.805000
20
28.642998
10
-11.805000
20
28.642998
10
-11.805000
20
27.843000
10
-11.805000
20
27.843000
10
-10.155000
20
27.843000
10
-10.155000
20
27.843000
10
-10.155000
20
28.642998
0
LWPOLYLINE
5
1229
100
AcDbEntity
8
0
100
AcDbPolyline
90
8
70
0
43
0.000000
10
-27.804001
20
28.642998
10
-29.454001
20
28.642998
10
-29.454001
20
28.642998
10
-29.454001
20
27.843000
10
-29.454001
20
27.843000
10
-27.804001
20
27.843000
10
-27.804001
20
27.843000
10
-27.804001
20
28.642998
0
LWPOLYLINE
5
1230
100
AcDbEntity
8
0
100
AcDbPolyline
90
8
70
0
43
0.000000
10
-10.155000
20
27.372998
10
-11.805000
20
27.372998
10
-11.805000
20
27.372998
10
-11.805000
20
26.573000
10
-11.805000
20
26.573000
10
-10.155000
20
26.573000
10
-10.155000
20
26.573000
10
-10.155000
20
27.372998
0
LWPOLYLINE
5
1231
100
AcDbEntity
8
0
100
AcDbPolyline
90
8
70
0
43
0.000000
10
-27.804001
20
27.372998
10
-29.454001
20
27.372998
10
-29.454001
20
27.372998
10
-29.454001
20
26.573000
10
-29.454001
20
26.573000
10
-27.804001
20
26.573000
10
-27.804001
20
26.573000
10
-27.804001
20
27.372998
0
LWPOLYLINE
5
1232
100
AcDbEntity
8
0
100
AcDbPolyline
90
8
70
0
43
0.000000
10
-10.155000
20
26.102998
10
-11.805000
20
26.102998
10
-11.805000
20
26.102998
10
-11.805000
20
25.303000
10
-11.805000
20
25.303000
10
-10.155000
20
25.303000
10
-10.155000
20
25.303000
10
-10.155000
20
26.102998
0
LWPOLYLINE
5
1233
100
AcDbEntity
8
0
100
AcDbPolyline
90
8
70
0
43
0.000000
10
-27.804001
20
26.102998
10
-29.454001
20
26.102998
10
-29.454001
20
26.102998
10
-29.454001
20
25.303000
10
-29.454001
20
25.303000
10
-27.804001
20
25.303000
10
-27.804001
20
25.303000
10
-27.804001
20
26.102998
0
LWPOLYLINE
5
1234
100
AcDbEntity
8
0
100
AcDbPolyline
90
8
70
0
43
0.000000
10
-13.685000
20
25.203000
10
-14.485000
20
25.203000
10
-14.485000
20
25.203000
10
-14.485000
20
23.553000
10
-14.485000
20
23.553000
10
-13.685000
20
23.553000
10
-13.685000
20
23.553000
10
-13.685000
20
25.203000
0
LWPOLYLINE
5
1235
100
AcDbEntity
8
0
100
AcDbPolyline
90
8
70
0
43
0.000000
10
-14.955000
20
25.203000
10
-15.755000
20
25.203000
10
-15.755000
20
25.203000
10
-15.755000
20
23.553000
10
-15.755000
20
23.553000
10
-14.955000
20
23.553000
10
-14.955000
20
23.553000
10
-14.955000
20
25.203000
0
LWPOLYLINE
5
1236
100
AcDbEntity
8
0
100
AcDbPolyline
90
8
70
0
43
0.000000
10
-16.225001
20
25.203000
10
-17.025000
20
25.203000
10
-17.025000
20
25.203000
10
-17.025000
20
23.553000
10
-17.025000
20
23.553000
10
-16.225001
20
23.553000
10
-16.225001
20
23.553000
10
-16.225001
20
25.203000
0
LWPOLYLINE
5
1237
100
AcDbEntity
8
0
100
AcDbPolyline
90
8
70
0
43
0.000000
10
-17.495001
20
25.203000
10
-18.294999
20
25.203000
10
-18.294999
20
25.203000
10
-18.294999
20
23.553000
10
-18.294999
20
23.553000
10
-17.495001
20
23.553000
10
-17.495001
20
23.553000
10
-17.495001
20
25.203000
0
LWPOLYLINE
5
1238
100
AcDbEntity
8
0
100
AcDbPolyline
90
8
70
0
43
0.000000
10
-18.765001
20
25.203000
10
-19.564999
20
25.203000
10
-19.564999
20
25.203000
10
-19.564999
20
23.553000
10
-19.564999
20
23.553000
10
-18.765001
20
23.553000
10
-18.765001
20
23.553000
10
-18.765001
20
25.203000
0
LWPOLYLINE
5
1239
100
AcDbEntity
8
0
100
AcDbPolyline
90
8
70
0
43
0.000000
10
-20.035000
20
25.203000
10
-20.835000
20
25.203000
10
-20.835000
20
25.203000
10
-20.835000
20
23.553000
10
-20.835000
20
23.553000
10
-20.035000
20
23.553000
10
-20.035000
20
23.553000
10
-20.035000
20
25.203000
0
LWPOLYLINE
5
1240
100
AcDbEntity
8
0
100
AcDbPolyline
90
8
70
0
43
0.000000
10
-21.305000
20
25.203000
10
-22.105000
20
25.203000
10
-22.105000
20
25.203000
10
-22.105000
20
23.553000
10
-22.105000
20
23.553000
10
-21.305000
20
23.553000
10
-21.305000
20
23.553000
10
-21.305000
20
25.203000
0
LWPOLYLINE
5
1241
100
AcDbEntity
8
0
100
AcDbPolyline
90
8
70
0
43
0.000000
10
-22.575000
20
25.203000
10
-23.375000
20
25.203000
10
-23.375000
20
25.203000
10
-23.375000
20
23.553000
10
-23.375000
20
23.553000
10
-22.575000
20
23.553000
10
-22.575000
20
23.553000
10
-22.575000
20
25.203000
0
LWPOLYLINE
5
1242
100
AcDbEntity
8
0
100
AcDbPolyline
90
8
70
0
43
0.000000
10
-23.845000
20
25.203000
10
-24.645000
20
25.203000
10
-24.645000
20
25.203000
10
-24.645000
20
23.553000
10
-24.645000
20
23.553000
10
-23.845000
20
23.553000
10
-23.845000
20
23.553000
10
-23.845000
20
25.203000
0
LWPOLYLINE
5
1243
100
AcDbEntity
8
0
100
AcDbPolyline
90
8
70
0
43
0.000000
10
-25.115000
20
25.203000
10
-25.915000
20
25.203000
10
-25.915000
20
25.203000
10
-25.915000
20
23.553000
10
-25.915000
20
23.553000
10
-25.115000
20
23.553000
10
-25.115000
20
23.553000
10
-25.115000
20
25.203000
0
LWPOLYLINE
5
1244
100
AcDbEntity
8
0
100
AcDbPolyline
90
8
70
0
43
0.000000
10
-32.905000
20
23.417000
10
-34.405000
20
23.417000
10
-34.405000
20
23.417000
10
-34.405000
20
21.417000
10
-34.405000
20
21.417000
10
-32.905000
20
21.417000
10
-32.905000
20
21.417000
10
-32.905000
20
23.417000
0
LWPOLYLINE
5
1245
100
AcDbEntity
8
0
100
AcDbPolyline
90
16
70
0
43
0.000000
10
-36.286001
20
23.113000
10
-37.755999
20
23.113000
10
-37.755999
20
23.113000
10
-37.755999
20
22.003000
10
-37.755999
20
22.003000
10
-37.266001
20
22.003000
10
-37.266001
20
22.003000
10
-37.266001
20
22.373000
10
-37.266001
20
22.373000
10
-36.775999
20
22.373000
10
-36.775999
20
22.373000
10
-36.775999
20
22.003000
10
-36.775999
20
22.003000
10
-36.286001
20
22.003000
10
-36.286001
20
22.003000
10
-36.286001
20
23.113000
0
LWPOLYLINE
5
1246
100
AcDbEntity
8
0
100
AcDbPolyline
90
8
70
0
43
0.000000
10
-5.219000
20
23.290000
10
-6.719000
20
23.290000
10
-6.719000
20
23.290000
10
-6.719000
20
21.290000
10
-6.719000
20
21.290000
10
-5.219000
20
21.290000
10
-5.219000
20
21.290000
10
-5.219000
20
23.290000
0
LWPOLYLINE
5
1247
100
AcDbEntity
8
0
100
AcDbPolyline
90
16
70
0
43
0.000000
10
-29.565000
20
23.130000
10
-31.015000
20
23.130000
10
-31.015000
20
23.130000
10
-31.015000
20
22.004001
10
-31.015000
20
22.004001
10
-30.532000
20
22.004001
10
-30.532000
20
22.004001
10
-30.532000
20
22.380000
10
-30.532000
20
22.380000
10
-30.048000
20
22.380000
10
-30.048000
20
22.380000
10
-30.048000
20
22.004001
10
-30.048000
20
22.004001
10
-29.565000
20
22.004001
10
-29.565000
20
22.004001
10
-29.565000
20
23.130000
0
LWPOLYLINE
5
1248
100
AcDbEntity
8
0
100
AcDbPolyline
90
16
70
0
43
0.000000
10
-36.286001
20
21.303000
10
-36.775999
20
21.303000
10
-36.775999
20
21.303000
10
-36.775999
20
20.933000
10
-36.775999
20
20.933000
10
-37.266001
20
20.933000
10
-37.266001
20
20.933000
10
-37.266001
20
21.303000
10
-37.266001
20
21.303000
10
-37.755999
20
21.303000
10
-37.755999
20
21.303000
10
-37.755999
20
20.192999
10
-37.755999
20
20.192999
10
-36.286001
20
20.192999
10
-36.286001
20
20.192999
10
-36.286001
20
21.303000
0
LWPOLYLINE
5
1249
100
AcDbEntity
8
0
100
AcDbPolyline
90
16
70
0
43
0.000000
10
-29.565000
20
21.302000
10
-30.048000
20
21.302000
10
-30.048000
20
21.302000
10
-30.048000
20
20.927998
10
-30.048000
20
20.927998
10
-30.532000
20
20.927998
10
-30.532000
20
20.927998
10
-30.532000
20
21.302000
10
-30.532000
20
21.302000
10
-31.015000
20
21.302000
10
-31.015000
20
21.302000
10
-31.015000
20
20.177999
10
-31.015000
20
20.177999
10
-29.565000
20
20.177999
10
-29.565000
20
20.177999
10
-29.565000
20
21.302000
0
LWPOLYLINE
5
1250
100
AcDbEntity
8
0
100
AcDbPolyline
90
16
70
0
43
0.000000
10
-1.625000
20
22.876001
10
-3.075000
20
22.876001
10
-3.075000
20
22.876001
10
-3.075000
20
21.750000
10
-3.075000
20
21.750000
10
-2.592000
20
21.750000
10
-2.592000
20
21.750000
10
-2.592000
20
22.126001
10
-2.592000
20
22.126001
10
-2.108000
20
22.126001
10
-2.108000
20
22.126001
10
-2.108000
20
21.750000
10
-2.108000
20
21.750000
10
-1.625000
20
21.750000
10
-1.625000
20
21.750000
10
-1.625000
20
22.876001
0
LWPOLYLINE
5
1251
100
AcDbEntity
8
0
100
AcDbPolyline
90
16
70
0
43
0.000000
10
16.673000
20
22.605000
10
15.203000
20
22.605000
10
15.203000
20
22.605000
10
15.203000
20
21.495000
10
15.203000
20
21.495000
10
15.692999
20
21.495000
10
15.692999
20
21.495000
10
15.692999
20
21.865000
10
15.692999
20
21.865000
10
16.183000
20
21.865000
10
16.183000
20
21.865000
10
16.183000
20
21.495000
10
16.183000
20
21.495000
10
16.673000
20
21.495000
10
16.673000
20
21.495000
10
16.673000
20
22.605000
0
LWPOLYLINE
5
1252
100
AcDbEntity
8
0
100
AcDbPolyline
90
16
70
0
43
0.000000
10
14.132999
20
22.605000
10
12.663000
20
22.605000
10
12.663000
20
22.605000
10
12.663000
20
21.495000
10
12.663000
20
21.495000
10
13.152999
20
21.495000
10
13.152999
20
21.495000
10
13.152999
20
21.865000
10
13.152999
20
21.865000
10
13.643000
20
21.865000
10
13.643000
20
21.865000
10
13.643000
20
21.495000
10
13.643000
20
21.495000
10
14.132999
20
21.495000
10
14.132999
20
21.495000
10
14.132999
20
22.605000
0
LWPOLYLINE
5
1253
100
AcDbEntity
8
0
100
AcDbPolyline
90
16
70
0
43
0.000000
10
-1.625000
20
21.047000
10
-2.108000
20
21.047000
10
-2.108000
20
21.047000
10
-2.108000
20
20.673000
10
-2.108000
20
20.673000
10
-2.592000
20
20.673000
10
-2.592000
20
20.673000
10
-2.592000
20
21.047000
10
-2.592000
20
21.047000
10
-3.075000
20
21.047000
10
-3.075000
20
21.047000
10
-3.075000
20
19.922999
10
-3.075000
20
19.922999
10
-1.625000
20
19.922999
10
-1.625000
20
19.922999
10
-1.625000
20
21.047000
0
LWPOLYLINE
5
1254
100
AcDbEntity
8
0
100
AcDbPolyline
90
16
70
0
43
0.000000
10
16.673000
20
20.795000
10
16.183000
20
20.795000
10
16.183000
20
20.795000
10
16.183000
20
20.424999
10
16.183000
20
20.424999
10
15.692999
20
20.424999
10
15.692999
20
20.424999
10
15.692999
20
20.795000
10
15.692999
20
20.795000
10
15.203000
20
20.795000
10
15.203000
20
20.795000
10
15.203000
20
19.685000
10
15.203000
20
19.685000
10
16.673000
20
19.685000
10
16.673000
20
19.685000
10
16.673000
20
20.795000
0
LWPOLYLINE
5
1255
100
AcDbEntity
8
0
100
AcDbPolyline
90
16
70
0
43
0.000000
10
14.132999
20
20.795000
10
13.643000
20
20.795000
10
13.643000
20
20.795000
10
13.643000
20
20.424999
10
13.643000
20
20.424999
10
13.152999
20
20.424999
10
13.152999
20
20.424999
10
13.152999
20
20.795000
10
13.152999
20
20.795000
10
12.663000
20
20.795000
10
12.663000
20
20.795000
10
12.663000
20
19.685000
10
12.663000
20
19.685000
10
14.132999
20
19.685000
10
14.132999
20
19.685000
10
14.132999
20
20.795000
0
LWPOLYLINE
5
1256
100
AcDbEntity
8
0
100
AcDbPolyline
90
8
70
0
43
0.000000
10
-32.905000
20
19.217000
10
-34.405000
20
19.217000
10
-34.405000
20
19.217000
10
-34.405000
20
17.217000
10
-34.405000
20
17.217000
10
-32.905000
20
17.217000
10
-32.905000
20
17.217000
10
-32.905000
20
19.217000
0
LWPOLYLINE
5
1257
100
AcDbEntity
8
0
100
AcDbPolyline
90
8
70
0
43
0.000000
10
-5.219000
20
19.090000
10
-6.719000
20
19.090000
10
-6.719000
20
19.090000
10
-6.719000
20
17.090000
10
-6.719000
20
17.090000
10
-5.219000
20
17.090000
10
-5.219000
20
17.090000
10
-5.219000
20
19.090000
0
LWPOLYLINE
5
1258
100
AcDbEntity
8
0
100
AcDbPolyline
90
16
70
0
43
0.000000
10
4.735000
20
18.160000
10
3.265000
20
18.160000
10
3.265000
20
18.160000
10
3.265000
20
17.050000
10
3.265000
20
17.050000
10
3.755000
20
17.050000
10
3.755000
20
17.050000
10
3.755000
20
17.420000
10
3.755000
20
17.420000
10
4.245000
20
17.420000
10
4.245000
20
17.420000
10
4.245000
20
17.050000
10
4.245000
20
17.050000
10
4.735000
20
17.050000
10
4.735000
20
17.050000
10
4.735000
20
18.160000
0
LWPOLYLINE
5
1259
100
AcDbEntity
8
0
100
AcDbPolyline
90
8
70
0
43
0.000000
10
2.452000
20
18.125000
10
0.722000
20
18.125000
10
0.722000
20
18.125000
10
0.722000
20
17.025000
10
0.722000
20
17.025000
10
2.452000
20
17.025000
10
2.452000
20
17.025000
10
2.452000
20
18.125000
0
LWPOLYLINE
5
1260
100
AcDbEntity
8
0
100
AcDbPolyline
90
16
70
0
43
0.000000
10
4.735000
20
16.349999
10
4.245000
20
16.349999
10
4.245000
20
16.349999
10
4.245000
20
15.980000
10
4.245000
20
15.980000
10
3.755000
20
15.980000
10
3.755000
20
15.980000
10
3.755000
20
16.349999
10
3.755000
20
16.349999
10
3.265000
20
16.349999
10
3.265000
20
16.349999
10
3.265000
20
15.240000
10
3.265000
20
15.240000
10
4.735000
20
15.240000
10
4.735000
20
15.240000
10
4.735000
20
16.349999
0
LWPOLYLINE
5
1261
100
AcDbEntity
8
0
100
AcDbPolyline
90
8
70
0
43
0.000000
10
2.452000
20
15.105000
10
0.722000
20
15.105000
10
0.722000
20
15.105000
10
0.722000
20
14.005000
10
0.722000
20
14.005000
10
2.452000
20
14.005000
10
2.452000
20
14.005000
10
2.452000
20
15.105000
0
LWPOLYLINE
5
1262
100
AcDbEntity
8
0
100
AcDbPolyline
90
16
70
0
43
0.000000
10
-40.768000
20
4.989000
10
-41.877998
20
4.989000
10
-41.877998
20
4.989000
10
-41.877998
20
4.499000
10
-41.877998
20
4.499000
10
-41.507998
20
4.499000
10
-41.507998
20
4.499000
10
-41.507998
20
4.009000
10
-41.507998
20
4.009000
10
-41.877998
20
4.009000
10
-41.877998
20
4.009000
10
-41.877998
20
3.519000
10
-41.877998
20
3.519000
10
-40.768000
20
3.519000
10
-40.768000
20
3.519000
10
-40.768000
20
4.989000
0
LWPOLYLINE
5
1263
100
AcDbEntity
8
0
100
AcDbPolyline
90
16
70
0
43
0.000000
10
-42.578003
20
4.989000
10
-43.687998
20
4.989000
10
-43.687998
20
4.989000
10
-43.687998
20
3.519000
10
-43.687998
20
3.519000
10
-42.578003
20
3.519000
10
-42.578003
20
3.519000
10
-42.578003
20
4.009000
10
-42.578003
20
4.009000
10
-42.947998
20
4.009000
10
-42.947998
20
4.009000
10
-42.947998
20
4.499000
10
-42.947998
20
4.499000
10
-42.578003
20
4.499000
10
-42.578003
20
4.499000
10
-42.578003
20
4.989000
0
LWPOLYLINE
5
1264
100
AcDbEntity
8
0
100
AcDbPolyline
90
16
70
0
43
0.000000
10
-33.910000
20
4.227000
10
-35.020002
20
4.227000
10
-35.020002
20
4.227000
10
-35.020002
20
3.737000
10
-35.020002
20
3.737000
10
-34.650002
20
3.737000
10
-34.650002
20
3.737000
10
-34.650002
20
3.247000
10
-34.650002
20
3.247000
10
-35.020002
20
3.247000
10
-35.020002
20
3.247000
10
-35.020002
20
2.757000
10
-35.020002
20
2.757000
10
-33.910000
20
2.757000
10
-33.910000
20
2.757000
10
-33.910000
20
4.227000
0
LWPOLYLINE
5
1265
100
AcDbEntity
8
0
100
AcDbPolyline
90
16
70
0
43
0.000000
10
-35.719998
20
4.227000
10
-36.830000
20
4.227000
10
-36.830000
20
4.227000
10
-36.830000
20
2.757000
10
-36.830000
20
2.757000
10
-35.719998
20
2.757000
10
-35.719998
20
2.757000
10
-35.719998
20
3.247000
10
-35.719998
20
3.247000
10
-36.090002
20
3.247000
10
-36.090002
20
3.247000
10
-36.090002
20
3.737000
10
-36.090002
20
3.737000
10
-35.719998
20
3.737000
10
-35.719998
20
3.737000
10
-35.719998
20
4.227000
0
LWPOLYLINE
5
1266
100
AcDbEntity
8
0
100
AcDbPolyline
90
16
70
0
43
0.000000
10
-46.572998
20
3.428000
10
-48.043003
20
3.428000
10
-48.043003
20
3.428000
10
-48.043003
20
2.318000
10
-48.043003
20
2.318000
10
-47.552998
20
2.318000
10
-47.552998
20
2.318000
10
-47.552998
20
2.688000
10
-47.552998
20
2.688000
10
-47.063003
20
2.688000
10
-47.063003
20
2.688000
10
-47.063003
20
2.318000
10
-47.063003
20
2.318000
10
-46.572998
20
2.318000
10
-46.572998
20
2.318000
10
-46.572998
20
3.428000
0
LWPOLYLINE
5
1267
100
AcDbEntity
8
0
100
AcDbPolyline
90
8
70
0
43
0.000000
10
23.292000
20
3.111000
10
21.792000
20
3.111000
10
21.792000
20
3.111000
10
21.792000
20
0.991000
10
21.792000
20
0.991000
10
23.292000
20
0.991000
10
23.292000
20
0.991000
10
23.292000
20
3.111000
0
LWPOLYLINE
5
1268
100
AcDbEntity
8
0
100
AcDbPolyline
90
16
70
0
43
0.000000
10
19.937999
20
2.957000
10
18.828000
20
2.957000
10
18.828000
20
2.957000
10
18.828000
20
2.467000
10
18.828000
20
2.467000
10
19.198000
20
2.467000
10
19.198000
20
2.467000
10
19.198000
20
1.977000
10
19.198000
20
1.977000
10
18.828000
20
1.977000
10
18.828000
20
1.977000
10
18.828000
20
1.487000
10
18.828000
20
1.487000
10
19.937999
20
1.487000
10
19.937999
20
1.487000
10
19.937999
20
2.957000
0
LWPOLYLINE
5
1269
100
AcDbEntity
8
0
100
AcDbPolyline
90
16
70
0
43
0.000000
10
18.128000
20
2.957000
10
17.017999
20
2.957000
10
17.017999
20
2.957000
10
17.017999
20
1.487000
10
17.017999
20
1.487000
10
18.128000
20
1.487000
10
18.128000
20
1.487000
10
18.128000
20
1.977000
10
18.128000
20
1.977000
10
17.758000
20
1.977000
10
17.758000
20
1.977000
10
17.758000
20
2.467000
10
17.758000
20
2.467000
10
18.128000
20
2.467000
10
18.128000
20
2.467000
10
18.128000
20
2.957000
0
LWPOLYLINE
5
1270
100
AcDbEntity
8
0
100
AcDbPolyline
90
8
70
0
43
0.000000
10
-38.513999
20
2.141000
10
-40.483999
20
2.141000
10
-40.483999
20
2.141000
10
-40.483999
20
1.541000
10
-40.483999
20
1.541000
10
-38.513999
20
1.541000
10
-38.513999
20
1.541000
10
-38.513999
20
2.141000
0
LWPOLYLINE
5
1271
100
AcDbEntity
8
0
100
AcDbPolyline
90
8
70
0
43
0.000000
10
-43.463999
20
2.141000
10
-45.433999
20
2.141000
10
-45.433999
20
2.141000
10
-45.433999
20
1.541000
10
-45.433999
20
1.541000
10
-43.463999
20
1.541000
10
-43.463999
20
1.541000
10
-43.463999
20
2.141000
0
LWPOLYLINE
5
1272
100
AcDbEntity
8
0
100
AcDbPolyline
90
16
70
0
43
0.000000
10
-46.572998
20
1.618000
10
-47.063003
20
1.618000
10
-47.063003
20
1.618000
10
-47.063003
20
1.248000
10
-47.063003
20
1.248000
10
-47.552998
20
1.248000
10
-47.552998
20
1.248000
10
-47.552998
20
1.618000
10
-47.552998
20
1.618000
10
-48.043003
20
1.618000
10
-48.043003
20
1.618000
10
-48.043003
20
0.508000
10
-48.043003
20
0.508000
10
-46.572998
20
0.508000
10
-46.572998
20
0.508000
10
-46.572998
20
1.618000
0
LWPOLYLINE
5
1273
100
AcDbEntity
8
0
100
AcDbPolyline
90
16
70
0
43
0.000000
10
-33.910000
20
1.941000
10
-35.020002
20
1.941000
10
-35.020002
20
1.941000
10
-35.020002
20
1.451000
10
-35.020002
20
1.451000
10
-34.650002
20
1.451000
10
-34.650002
20
1.451000
10
-34.650002
20
0.961000
10
-34.650002
20
0.961000
10
-35.020002
20
0.961000
10
-35.020002
20
0.961000
10
-35.020002
20
0.471000
10
-35.020002
20
0.471000
10
-33.910000
20
0.471000
10
-33.910000
20
0.471000
10
-33.910000
20
1.941000
0
LWPOLYLINE
5
1274
100
AcDbEntity
8
0
100
AcDbPolyline
90
16
70
0
43
0.000000
10
-35.719998
20
1.941000
10
-36.830000
20
1.941000
10
-36.830000
20
1.941000
10
-36.830000
20
0.471000
10
-36.830000
20
0.471000
10
-35.719998
20
0.471000
10
-35.719998
20
0.471000
10
-35.719998
20
0.961000
10
-35.719998
20
0.961000
10
-36.090002
20
0.961000
10
-36.090002
20
0.961000
10
-36.090002
20
1.451000
10
-36.090002
20
1.451000
10
-35.719998
20
1.451000
10
-35.719998
20
1.451000
10
-35.719998
20
1.941000
0
LWPOLYLINE
5
1275
100
AcDbEntity
8
0
100
AcDbPolyline
90
8
70
0
43
0.000000
10
-38.513999
20
0.871000
10
-40.483999
20
0.871000
10
-40.483999
20
0.871000
10
-40.483999
20
0.271000
10
-40.483999
20
0.271000
10
-38.513999
20
0.271000
10
-38.513999
20
0.271000
10
-38.513999
20
0.871000
0
LWPOLYLINE
5
1276
100
AcDbEntity
8
0
100
AcDbPolyline
90
8
70
0
43
0.000000
10
-43.463999
20
0.871000
10
-45.433999
20
0.871000
10
-45.433999
20
0.871000
10
-45.433999
20
0.271000
10
-45.433999
20
0.271000
10
-43.463999
20
0.271000
10
-43.463999
20
0.271000
10
-43.463999
20
0.871000
0
LWPOLYLINE
5
1277
100
AcDbEntity
8
0
100
AcDbPolyline
90
16
70
0
43
0.000000
10
15.276000
20
0.507000
10
13.806000
20
0.507000
10
13.806000
20
0.507000
10
13.806000
20
-0.603000
10
13.806000
20
-0.603000
10
14.296000
20
-0.603000
10
14.296000
20
-0.603000
10
14.296000
20
-0.233000
10
14.296000
20
-0.233000
10
14.786000
20
-0.233000
10
14.786000
20
-0.233000
10
14.786000
20
-0.603000
10
14.786000
20
-0.603000
10
15.276000
20
-0.603000
10
15.276000
20
-0.603000
10
15.276000
20
0.507000
0
LWPOLYLINE
5
1278
100
AcDbEntity
8
0
100
AcDbPolyline
90
16
70
0
43
0.000000
10
-33.910000
20
-0.345000
10
-35.020002
20
-0.345000
10
-35.020002
20
-0.345000
10
-35.020002
20
-0.835000
10
-35.020002
20
-0.835000
10
-34.650002
20
-0.835000
10
-34.650002
20
-0.835000
10
-34.650002
20
-1.325000
10
-34.650002
20
-1.325000
10
-35.020002
20
-1.325000
10
-35.020002
20
-1.325000
10
-35.020002
20
-1.815000
10
-35.020002
20
-1.815000
10
-33.910000
20
-1.815000
10
-33.910000
20
-1.815000
10
-33.910000
20
-0.345000
0
LWPOLYLINE
5
1279
100
AcDbEntity
8
0
100
AcDbPolyline
90
16
70
0
43
0.000000
10
-35.719998
20
-0.345000
10
-36.830000
20
-0.345000
10
-36.830000
20
-0.345000
10
-36.830000
20
-1.815000
10
-36.830000
20
-1.815000
10
-35.719998
20
-1.815000
10
-35.719998
20
-1.815000
10
-35.719998
20
-1.325000
10
-35.719998
20
-1.325000
10
-36.090002
20
-1.325000
10
-36.090002
20
-1.325000
10
-36.090002
20
-0.835000
10
-36.090002
20
-0.835000
10
-35.719998
20
-0.835000
10
-35.719998
20
-0.835000
10
-35.719998
20
-0.345000
0
LWPOLYLINE
5
1280
100
AcDbEntity
8
0
100
AcDbPolyline
90
16
70
0
43
0.000000
10
-46.572998
20
-0.382000
10
-48.043003
20
-0.382000
10
-48.043003
20
-0.382000
10
-48.043003
20
-1.492000
10
-48.043003
20
-1.492000
10
-47.552998
20
-1.492000
10
-47.552998
20
-1.492000
10
-47.552998
20
-1.122000
10
-47.552998
20
-1.122000
10
-47.063003
20
-1.122000
10
-47.063003
20
-1.122000
10
-47.063003
20
-1.492000
10
-47.063003
20
-1.492000
10
-46.572998
20
-1.492000
10
-46.572998
20
-1.492000
10
-46.572998
20
-0.382000
0
LWPOLYLINE
5
1281
100
AcDbEntity
8
0
100
AcDbPolyline
90
8
70
0
43
0.000000
10
-38.513999
20
-0.399000
10
-40.483999
20
-0.399000
10
-40.483999
20
-0.399000
10
-40.483999
20
-0.999000
10
-40.483999
20
-0.999000
10
-38.513999
20
-0.999000
10
-38.513999
20
-0.999000
10
-38.513999
20
-0.399000
0
LWPOLYLINE
5
1282
100
AcDbEntity
8
0
100
AcDbPolyline
90
8
70
0
43
0.000000
10
-43.463999
20
-0.399000
10
-45.433999
20
-0.399000
10
-45.433999
20
-0.399000
10
-45.433999
20
-0.999000
10
-45.433999
20
-0.999000
10
-43.463999
20
-0.999000
10
-43.463999
20
-0.999000
10
-43.463999
20
-0.399000
0
LWPOLYLINE
5
1283
100
AcDbEntity
8
0
100
AcDbPolyline
90
8
70
0
43
0.000000
10
-38.513999
20
-1.669000
10
-40.483999
20
-1.669000
10
-40.483999
20
-1.669000
10
-40.483999
20
-2.269000
10
-40.483999
20
-2.269000
10
-38.513999
20
-2.269000
10
-38.513999
20
-2.269000
10
-38.513999
20
-1.669000
0
LWPOLYLINE
5
1284
100
AcDbEntity
8
0
100
AcDbPolyline
90
8
70
0
43
0.000000
10
-43.463999
20
-1.669000
10
-45.433999
20
-1.669000
10
-45.433999
20
-1.669000
10
-45.433999
20
-2.269000
10
-45.433999
20
-2.269000
10
-43.463999
20
-2.269000
10
-43.463999
20
-2.269000
10
-43.463999
20
-1.669000
0
LWPOLYLINE
5
1285
100
AcDbEntity
8
0
100
AcDbPolyline
90
16
70
0
43
0.000000
10
-46.572998
20
-2.192000
10
-47.063003
20
-2.192000
10
-47.063003
20
-2.192000
10
-47.063003
20
-2.562000
10
-47.063003
20
-2.562000
10
-47.552998
20
-2.562000
10
-47.552998
20
-2.562000
10
-47.552998
20
-2.192000
10
-47.552998
20
-2.192000
10
-48.043003
20
-2.192000
10
-48.043003
20
-2.192000
10
-48.043003
20
-3.302000
10
-48.043003
20
-3.302000
10
-46.572998
20
-3.302000
10
-46.572998
20
-3.302000
10
-46.572998
20
-2.192000
0
LWPOLYLINE
5
1286
100
AcDbEntity
8
0
100
AcDbPolyline
90
8
70
0
43
0.000000
10
17.996000
20
0.292000
10
16.676000
20
0.292000
10
16.676000
20
0.292000
10
16.676000
20
-0.298000
10
16.676000
20
-0.298000
10
17.996000
20
-0.298000
10
17.996000
20
-0.298000
10
17.996000
20
0.292000
0
LWPOLYLINE
5
1287
100
AcDbEntity
8
0
100
AcDbPolyline
90
8
70
0
43
0.000000
10
20.026000
20
-0.658000
10
18.706000
20
-0.658000
10
18.706000
20
-0.658000
10
18.706000
20
-1.248000
10
18.706000
20
-1.248000
10
20.026000
20
-1.248000
10
20.026000
20
-1.248000
10
20.026000
20
-0.658000
0
LWPOLYLINE
5
1288
100
AcDbEntity
8
0
100
AcDbPolyline
90
8
70
0
43
0.000000
10
23.292000
20
-1.119000
10
21.792000
20
-1.119000
10
21.792000
20
-1.119000
10
21.792000
20
-3.239000
10
21.792000
20
-3.239000
10
23.292000
20
-3.239000
10
23.292000
20
-3.239000
10
23.292000
20
-1.119000
0
LWPOLYLINE
5
1289
100
AcDbEntity
8
0
100
AcDbPolyline
90
16
70
0
43
0.000000
10
15.276000
20
-1.303000
10
14.786000
20
-1.303000
10
14.786000
20
-1.303000
10
14.786000
20
-1.673000
10
14.786000
20
-1.673000
10
14.296000
20
-1.673000
10
14.296000
20
-1.673000
10
14.296000
20
-1.303000
10
14.296000
20
-1.303000
10
13.806000
20
-1.303000
10
13.806000
20
-1.303000
10
13.806000
20
-2.413000
10
13.806000
20
-2.413000
10
15.276000
20
-2.413000
10
15.276000
20
-2.413000
10
15.276000
20
-1.303000
0
LWPOLYLINE
5
1290
100
AcDbEntity
8
0
100
AcDbPolyline
90
8
70
0
43
0.000000
10
17.996000
20
-1.608000
10
16.676000
20
-1.608000
10
16.676000
20
-1.608000
10
16.676000
20
-2.198000
10
16.676000
20
-2.198000
10
17.996000
20
-2.198000
10
17.996000
20
-2.198000
10
17.996000
20
-1.608000
0
LWPOLYLINE
5
1291
100
AcDbEntity
8
0
100
AcDbPolyline
90
16
70
0
43
0.000000
10
-33.910000
20
-2.631000
10
-35.020002
20
-2.631000
10
-35.020002
20
-2.631000
10
-35.020002
20
-3.121000
10
-35.020002
20
-3.121000
10
-34.650002
20
-3.121000
10
-34.650002
20
-3.121000
10
-34.650002
20
-3.611000
10
-34.650002
20
-3.611000
10
-35.020002
20
-3.611000
10
-35.020002
20
-3.611000
10
-35.020002
20
-4.101000
10
-35.020002
20
-4.101000
10
-33.910000
20
-4.101000
10
-33.910000
20
-4.101000
10
-33.910000
20
-2.631000
0
LWPOLYLINE
5
1292
100
AcDbEntity
8
0
100
AcDbPolyline
90
16
70
0
43
0.000000
10
-35.719998
20
-2.631000
10
-36.830000
20
-2.631000
10
-36.830000
20
-2.631000
10
-36.830000
20
-4.101000
10
-36.830000
20
-4.101000
10
-35.719998
20
-4.101000
10
-35.719998
20
-4.101000
10
-35.719998
20
-3.611000
10
-35.719998
20
-3.611000
10
-36.090002
20
-3.611000
10
-36.090002
20
-3.611000
10
-36.090002
20
-3.121000
10
-36.090002
20
-3.121000
10
-35.719998
20
-3.121000
10
-35.719998
20
-3.121000
10
-35.719998
20
-2.631000
0
LWPOLYLINE
5
1293
100
AcDbEntity
8
0
100
AcDbPolyline
90
16
70
0
43
0.000000
10
-41.962998
20
-4.214000
10
-43.763003
20
-4.214000
10
-43.763003
20
-4.214000
10
-43.763003
20
-5.814000
10
-43.763003
20
-5.814000
10
-43.163003
20
-5.814000
10
-43.163003
20
-5.814000
10
-43.163003
20
-5.281000
10
-43.163003
20
-5.281000
10
-42.562998
20
-5.281000
10
-42.562998
20
-5.281000
10
-42.562998
20
-5.814000
10
-42.562998
20
-5.814000
10
-41.962998
20
-5.814000
10
-41.962998
20
-5.814000
10
-41.962998
20
-4.214000
0
LWPOLYLINE
5
1294
100
AcDbEntity
8
0
100
AcDbPolyline
90
16
70
0
43
0.000000
10
-39.778000
20
-4.650000
10
-41.227998
20
-4.650000
10
-41.227998
20
-4.650000
10
-41.227998
20
-5.776000
10
-41.227998
20
-5.776000
10
-40.745002
20
-5.776000
10
-40.745002
20
-5.776000
10
-40.745002
20
-5.400000
10
-40.745002
20
-5.400000
10
-40.261001
20
-5.400000
10
-40.261001
20
-5.400000
10
-40.261001
20
-5.776000
10
-40.261001
20
-5.776000
10
-39.778000
20
-5.776000
10
-39.778000
20
-5.776000
10
-39.778000
20
-4.650000
0
LWPOLYLINE
5
1295
100
AcDbEntity
8
0
100
AcDbPolyline
90
8
70
0
43
0.000000
10
23.292000
20
-5.652000
10
21.792000
20
-5.652000
10
21.792000
20
-5.652000
10
21.792000
20
-7.772000
10
21.792000
20
-7.772000
10
23.292000
20
-7.772000
10
23.292000
20
-7.772000
10
23.292000
20
-5.652000
0
LWPOLYLINE
5
1296
100
AcDbEntity
8
0
100
AcDbPolyline
90
16
70
0
43
0.000000
10
19.684000
20
-5.679000
10
18.573999
20
-5.679000
10
18.573999
20
-5.679000
10
18.573999
20
-6.169000
10
18.573999
20
-6.169000
10
18.944000
20
-6.169000
10
18.944000
20
-6.169000
10
18.944000
20
-6.659000
10
18.944000
20
-6.659000
10
18.573999
20
-6.659000
10
18.573999
20
-6.659000
10
18.573999
20
-7.149000
10
18.573999
20
-7.149000
10
19.684000
20
-7.149000
10
19.684000
20
-7.149000
10
19.684000
20
-5.679000
0
LWPOLYLINE
5
1297
100
AcDbEntity
8
0
100
AcDbPolyline
90
16
70
0
43
0.000000
10
17.874000
20
-5.679000
10
16.764000
20
-5.679000
10
16.764000
20
-5.679000
10
16.764000
20
-7.149000
10
16.764000
20
-7.149000
10
17.874000
20
-7.149000
10
17.874000
20
-7.149000
10
17.874000
20
-6.659000
10
17.874000
20
-6.659000
10
17.503999
20
-6.659000
10
17.503999
20
-6.659000
10
17.503999
20
-6.169000
10
17.503999
20
-6.169000
10
17.874000
20
-6.169000
10
17.874000
20
-6.169000
10
17.874000
20
-5.679000
0
LWPOLYLINE
5
1298
100
AcDbEntity
8
0
100
AcDbPolyline
90
16
70
0
43
0.000000
10
-39.778000
20
-6.478000
10
-40.261001
20
-6.478000
10
-40.261001
20
-6.478000
10
-40.261001
20
-6.852000
10
-40.261001
20
-6.852000
10
-40.745002
20
-6.852000
10
-40.745002
20
-6.852000
10
-40.745002
20
-6.478000
10
-40.745002
20
-6.478000
10
-41.227998
20
-6.478000
10
-41.227998
20
-6.478000
10
-41.227998
20
-7.602000
10
-41.227998
20
-7.602000
10
-39.778000
20
-7.602000
10
-39.778000
20
-7.602000
10
-39.778000
20
-6.478000
0
LWPOLYLINE
5
1299
100
AcDbEntity
8
0
100
AcDbPolyline
90
16
70
0
43
0.000000
10
-41.962998
20
-7.014000
10
-42.562998
20
-7.014000
10
-42.562998
20
-7.014000
10
-42.562998
20
-7.547000
10
-42.562998
20
-7.547000
10
-43.163003
20
-7.547000
10
-43.163003
20
-7.547000
10
-43.163003
20
-7.014000
10
-43.163003
20
-7.014000
10
-43.763003
20
-7.014000
10
-43.763003
20
-7.014000
10
-43.763003
20
-8.614000
10
-43.763003
20
-8.614000
10
-41.962998
20
-8.614000
10
-41.962998
20
-8.614000
10
-41.962998
20
-7.014000
0
LWPOLYLINE
5
1300
100
AcDbEntity
8
0
100
AcDbPolyline
90
16
70
0
43
0.000000
10
15.276000
20
-8.002000
10
13.806000
20
-8.002000
10
13.806000
20
-8.002000
10
13.806000
20
-9.112000
10
13.806000
20
-9.112000
10
14.296000
20
-9.112000
10
14.296000
20
-9.112000
10
14.296000
20
-8.742000
10
14.296000
20
-8.742000
10
14.786000
20
-8.742000
10
14.786000
20
-8.742000
10
14.786000
20
-9.112000
10
14.786000
20
-9.112000
10
15.276000
20
-9.112000
10
15.276000
20
-9.112000
10
15.276000
20
-8.002000
0
LWPOLYLINE
5
1301
100
AcDbEntity
8
0
100
AcDbPolyline
90
8
70
0
43
0.000000
10
17.802000
20
-8.265000
10
16.482000
20
-8.265000
10
16.482000
20
-8.265000
10
16.482000
20
-8.855000
10
16.482000
20
-8.855000
10
17.802000
20
-8.855000
10
17.802000
20
-8.855000
10
17.802000
20
-8.265000
0
LWPOLYLINE
5
1302
100
AcDbEntity
8
0
100
AcDbPolyline
90
8
70
0
43
0.000000
10
19.832001
20
-9.215000
10
18.512000
20
-9.215000
10
18.512000
20
-9.215000
10
18.512000
20
-9.805001
10
18.512000
20
-9.805001
10
19.832001
20
-9.805001
10
19.832001
20
-9.805001
10
19.832001
20
-9.215000
0
LWPOLYLINE
5
1303
100
AcDbEntity
8
0
100
AcDbPolyline
90
16
70
0
43
0.000000
10
15.276000
20
-9.812000
10
14.786000
20
-9.812000
10
14.786000
20
-9.812000
10
14.786000
20
-10.182000
10
14.786000
20
-10.182000
10
14.296000
20
-10.182000
10
14.296000
20
-10.182000
10
14.296000
20
-9.812000
10
14.296000
20
-9.812000
10
13.806000
20
-9.812000
10
13.806000
20
-9.812000
10
13.806000
20
-10.922000
10
13.806000
20
-10.922000
10
15.276000
20
-10.922000
10
15.276000
20
-10.922000
10
15.276000
20
-9.812000
0
LWPOLYLINE
5
1304
100
AcDbEntity
8
0
100
AcDbPolyline
90
8
70
0
43
0.000000
10
23.292000
20
-9.882000
10
21.792000
20
-9.882000
10
21.792000
20
-9.882000
10
21.792000
20
-12.002000
10
21.792000
20
-12.002000
10
23.292000
20
-12.002000
10
23.292000
20
-12.002000
10
23.292000
20
-9.882000
0
LWPOLYLINE
5
1305
100
AcDbEntity
8
0
100
AcDbPolyline
90
8
70
0
43
0.000000
10
17.802000
20
-10.165001
10
16.482000
20
-10.165001
10
16.482000
20
-10.165001
10
16.482000
20
-10.755000
10
16.482000
20
-10.755000
10
17.802000
20
-10.755000
10
17.802000
20
-10.755000
10
17.802000
20
-10.165001
0
LWPOLYLINE
5
1306
100
AcDbEntity
8
0
100
AcDbPolyline
90
16
70
0
43
0.000000
10
19.557000
20
-15.077000
10
18.447001
20
-15.077000
10
18.447001
20
-15.077000
10
18.447001
20
-15.567000
10
18.447001
20
-15.567000
10
18.817000
20
-15.567000
10
18.817000
20
-15.567000
10
18.817000
20
-16.057000
10
18.817000
20
-16.057000
10
18.447001
20
-16.057000
10
18.447001
20
-16.057000
10
18.447001
20
-16.547000
10
18.447001
20
-16.547000
10
19.557000
20
-16.547000
10
19.557000
20
-16.547000
10
19.557000
20
-15.077000
0
LWPOLYLINE
5
1307
100
AcDbEntity
8
0
100
AcDbPolyline
90
16
70
0
43
0.000000
10
17.747000
20
-15.077000
10
16.637000
20
-15.077000
10
16.637000
20
-15.077000
10
16.637000
20
-16.547000
10
16.637000
20
-16.547000
10
17.747000
20
-16.547000
10
17.747000
20
-16.547000
10
17.747000
20
-16.057000
10
17.747000
20
-16.057000
10
17.377001
20
-16.057000
10
17.377001
20
-16.057000
10
17.377001
20
-15.567000
10
17.377001
20
-15.567000
10
17.747000
20
-15.567000
10
17.747000
20
-15.567000
10
17.747000
20
-15.077000
0
LWPOLYLINE
5
1308
100
AcDbEntity
8
0
100
AcDbPolyline
90
8
70
0
43
0.000000
10
23.292000
20
-15.177001
10
21.792000
20
-15.177001
10
21.792000
20
-15.177001
10
21.792000
20
-17.297000
10
21.792000
20
-17.297000
10
23.292000
20
-17.297000
10
23.292000
20
-17.297000
10
23.292000
20
-15.177001
0
LWPOLYLINE
5
1309
100
AcDbEntity
8
0
100
AcDbPolyline
90
16
70
0
43
0.000000
10
15.149000
20
-17.400000
10
13.678999
20
-17.400000
10
13.678999
20
-17.400000
10
13.678999
20
-18.510001
10
13.678999
20
-18.510001
10
14.169000
20
-18.510001
10
14.169000
20
-18.510001
10
14.169000
20
-18.139999
10
14.169000
20
-18.139999
10
14.658999
20
-18.139999
10
14.658999
20
-18.139999
10
14.658999
20
-18.510001
10
14.658999
20
-18.510001
10
15.149000
20
-18.510001
10
15.149000
20
-18.510001
10
15.149000
20
-17.400000
0
LWPOLYLINE
5
1310
100
AcDbEntity
8
0
100
AcDbPolyline
90
8
70
0
43
0.000000
10
17.674999
20
-17.663000
10
16.355000
20
-17.663000
10
16.355000
20
-17.663000
10
16.355000
20
-18.253000
10
16.355000
20
-18.253000
10
17.674999
20
-18.253000
10
17.674999
20
-18.253000
10
17.674999
20
-17.663000
0
LWPOLYLINE
5
1311
100
AcDbEntity
8
0
100
AcDbPolyline
90
8
70
0
43
0.000000
10
19.705000
20
-18.612999
10
18.385000
20
-18.612999
10
18.385000
20
-18.612999
10
18.385000
20
-19.202999
10
18.385000
20
-19.202999
10
19.705000
20
-19.202999
10
19.705000
20
-19.202999
10
19.705000
20
-18.612999
0
LWPOLYLINE
5
1312
100
AcDbEntity
8
0
100
AcDbPolyline
90
16
70
0
43
0.000000
10
15.149000
20
-19.210000
10
14.658999
20
-19.210000
10
14.658999
20
-19.210000
10
14.658999
20
-19.579999
10
14.658999
20
-19.579999
10
14.169000
20
-19.579999
10
14.169000
20
-19.579999
10
14.169000
20
-19.210000
10
14.169000
20
-19.210000
10
13.678999
20
-19.210000
10
13.678999
20
-19.210000
10
13.678999
20
-20.320000
10
13.678999
20
-20.320000
10
15.149000
20
-20.320000
10
15.149000
20
-20.320000
10
15.149000
20
-19.210000
0
LWPOLYLINE
5
1313
100
AcDbEntity
8
0
100
AcDbPolyline
90
8
70
0
43
0.000000
10
23.292000
20
-19.407001
10
21.792000
20
-19.407001
10
21.792000
20
-19.407001
10
21.792000
20
-21.527000
10
21.792000
20
-21.527000
10
23.292000
20
-21.527000
10
23.292000
20
-21.527000
10
23.292000
20
-19.407001
0
LWPOLYLINE
5
1314
100
AcDbEntity
8
0
100
AcDbPolyline
90
8
70
0
43
0.000000
10
17.674999
20
-19.563000
10
16.355000
20
-19.563000
10
16.355000
20
-19.563000
10
16.355000
20
-20.152999
10
16.355000
20
-20.152999
10
17.674999
20
-20.152999
10
17.674999
20
-20.152999
10
17.674999
20
-19.563000
0
LWPOLYLINE
5
1315
100
AcDbEntity
8
0
100
AcDbPolyline
90
8
70
0
43
0.000000
10
-25.267000
20
-22.922000
10
-26.517000
20
-22.922000
10
-26.517000
20
-22.922000
10
-26.517000
20
-24.442000
10
-26.517000
20
-24.442000
10
-25.267000
20
-24.442000
10
-25.267000
20
-24.442000
10
-25.267000
20
-22.922000
0
LWPOLYLINE
5
1316
100
AcDbEntity
8
0
100
AcDbPolyline
90
8
70
0
43
0.000000
10
-27.077000
20
-22.922000
10
-28.327000
20
-22.922000
10
-28.327000
20
-22.922000
10
-28.327000
20
-24.442000
10
-28.327000
20
-24.442000
10
-27.077000
20
-24.442000
10
-27.077000
20
-24.442000
10
-27.077000
20
-22.922000
0
LWPOLYLINE
5
1317
100
AcDbEntity
8
0
100
AcDbPolyline
90
8
70
0
43
0.000000
10
-28.887000
20
-22.922000
10
-30.137000
20
-22.922000
10
-30.137000
20
-22.922000
10
-30.137000
20
-24.442000
10
-30.137000
20
-24.442000
10
-28.887000
20
-24.442000
10
-28.887000
20
-24.442000
10
-28.887000
20
-22.922000
0
LWPOLYLINE
5
1318
100
AcDbEntity
8
0
100
AcDbPolyline
90
8
70
0
43
0.000000
10
-30.697000
20
-22.922000
10
-31.946997
20
-22.922000
10
-31.946997
20
-22.922000
10
-31.946997
20
-24.442000
10
-31.946997
20
-24.442000
10
-30.697000
20
-24.442000
10
-30.697000
20
-24.442000
10
-30.697000
20
-22.922000
0
LWPOLYLINE
5
1319
100
AcDbEntity
8
0
100
AcDbPolyline
90
8
70
0
43
0.000000
10
-32.507000
20
-22.922000
10
-33.757002
20
-22.922000
10
-33.757002
20
-22.922000
10
-33.757002
20
-24.442000
10
-33.757002
20
-24.442000
10
-32.507000
20
-24.442000
10
-32.507000
20
-24.442000
10
-32.507000
20
-22.922000
0
LWPOLYLINE
5
1320
100
AcDbEntity
8
0
100
AcDbPolyline
90
8
70
0
43
0.000000
10
-34.317002
20
-22.922000
10
-35.567000
20
-22.922000
10
-35.567000
20
-22.922000
10
-35.567000
20
-24.442000
10
-35.567000
20
-24.442000
10
-34.317002
20
-24.442000
10
-34.317002
20
-24.442000
10
-34.317002
20
-22.922000
0
LWPOLYLINE
5
1321
100
AcDbEntity
8
0
100
AcDbPolyline
90
8
70
0
43
0.000000
10
23.292000
20
-23.432000
10
21.792000
20
-23.432000
10
21.792000
20
-23.432000
10
21.792000
20
-25.552002
10
21.792000
20
-25.552002
10
23.292000
20
-25.552002
10
23.292000
20
-25.552002
10
23.292000
20
-23.432000
0
LWPOLYLINE
5
1322
100
AcDbEntity
8
0
100
AcDbPolyline
90
16
70
0
43
0.000000
10
19.430000
20
-23.967000
10
18.320000
20
-23.967000
10
18.320000
20
-23.967000
10
18.320000
20
-24.457000
10
18.320000
20
-24.457000
10
18.689999
20
-24.457000
10
18.689999
20
-24.457000
10
18.689999
20
-24.947000
10
18.689999
20
-24.947000
10
18.320000
20
-24.947000
10
18.320000
20
-24.947000
10
18.320000
20
-25.437000
10
18.320000
20
-25.437000
10
19.430000
20
-25.437000
10
19.430000
20
-25.437000
10
19.430000
20
-23.967000
0
LWPOLYLINE
5
1323
100
AcDbEntity
8
0
100
AcDbPolyline
90
16
70
0
43
0.000000
10
17.619999
20
-23.967000
10
16.510000
20
-23.967000
10
16.510000
20
-23.967000
10
16.510000
20
-25.437000
10
16.510000
20
-25.437000
10
17.619999
20
-25.437000
10
17.619999
20
-25.437000
10
17.619999
20
-24.947000
10
17.619999
20
-24.947000
10
17.250000
20
-24.947000
10
17.250000
20
-24.947000
10
17.250000
20
-24.457000
10
17.250000
20
-24.457000
10
17.619999
20
-24.457000
10
17.619999
20
-24.457000
10
17.619999
20
-23.967000
0
LWPOLYLINE
5
1324
100
AcDbEntity
8
0
100
AcDbPolyline
90
16
70
0
43
0.000000
10
-17.004000
20
-25.373999
10
-18.128000
20
-25.373999
10
-18.128000
20
-25.373999
10
-18.128000
20
-25.857000
10
-18.128000
20
-25.857000
10
-17.752999
20
-25.857000
10
-17.752999
20
-25.857000
10
-17.752999
20
-26.341001
10
-17.752999
20
-26.341001
10
-18.128000
20
-26.341001
10
-18.128000
20
-26.341001
10
-18.128000
20
-26.823999
10
-18.128000
20
-26.823999
10
-17.004000
20
-26.823999
10
-17.004000
20
-26.823999
10
-17.004000
20
-25.373999
0
LWPOLYLINE
5
1325
100
AcDbEntity
8
0
100
AcDbPolyline
90
16
70
0
43
0.000000
10
-18.830000
20
-25.373999
10
-19.956000
20
-25.373999
10
-19.956000
20
-25.373999
10
-19.956000
20
-26.823999
10
-19.956000
20
-26.823999
10
-18.830000
20
-26.823999
10
-18.830000
20
-26.823999
10
-18.830000
20
-26.341001
10
-18.830000
20
-26.341001
10
-19.205000
20
-26.341001
10
-19.205000
20
-26.341001
10
-19.205000
20
-25.857000
10
-19.205000
20
-25.857000
10
-18.830000
20
-25.857000
10
-18.830000
20
-25.857000
10
-18.830000
20
-25.373999
0
LWPOLYLINE
5
1326
100
AcDbEntity
8
0
100
AcDbPolyline
90
8
70
0
43
0.000000
10
-25.267000
20
-25.552002
10
-26.517000
20
-25.552002
10
-26.517000
20
-25.552002
10
-26.517000
20
-27.072000
10
-26.517000
20
-27.072000
10
-25.267000
20
-27.072000
10
-25.267000
20
-27.072000
10
-25.267000
20
-25.552002
0
LWPOLYLINE
5
1327
100
AcDbEntity
8
0
100
AcDbPolyline
90
8
70
0
43
0.000000
10
-27.077000
20
-25.552002
10
-28.327000
20
-25.552002
10
-28.327000
20
-25.552002
10
-28.327000
20
-27.072000
10
-28.327000
20
-27.072000
10
-27.077000
20
-27.072000
10
-27.077000
20
-27.072000
10
-27.077000
20
-25.552002
0
LWPOLYLINE
5
1328
100
AcDbEntity
8
0
100
AcDbPolyline
90
8
70
0
43
0.000000
10
-28.887000
20
-25.552002
10
-30.137000
20
-25.552002
10
-30.137000
20
-25.552002
10
-30.137000
20
-27.072000
10
-30.137000
20
-27.072000
10
-28.887000
20
-27.072000
10
-28.887000
20
-27.072000
10
-28.887000
20
-25.552002
0
LWPOLYLINE
5
1329
100
AcDbEntity
8
0
100
AcDbPolyline
90
8
70
0
43
0.000000
10
-30.697000
20
-25.552002
10
-31.946997
20
-25.552002
10
-31.946997
20
-25.552002
10
-31.946997
20
-27.072000
10
-31.946997
20
-27.072000
10
-30.697000
20
-27.072000
10
-30.697000
20
-27.072000
10
-30.697000
20
-25.552002
0
LWPOLYLINE
5
1330
100
AcDbEntity
8
0
100
AcDbPolyline
90
8
70
0
43
0.000000
10
-32.507000
20
-25.552002
10
-33.757002
20
-25.552002
10
-33.757002
20
-25.552002
10
-33.757002
20
-27.072000
10
-33.757002
20
-27.072000
10
-32.507000
20
-27.072000
10
-32.507000
20
-27.072000
10
-32.507000
20
-25.552002
0
LWPOLYLINE
5
1331
100
AcDbEntity
8
0
100
AcDbPolyline
90
8
70
0
43
0.000000
10
-34.317002
20
-25.552002
10
-35.567000
20
-25.552002
10
-35.567000
20
-25.552002
10
-35.567000
20
-27.072000
10
-35.567000
20
-27.072000
10
-34.317002
20
-27.072000
10
-34.317002
20
-27.072000
10
-34.317002
20
-25.552002
0
LWPOLYLINE
5
1332
100
AcDbEntity
8
0
100
AcDbPolyline
90
16
70
0
43
0.000000
10
-21.045999
20
-26.417000
10
-22.515999
20
-26.417000
10
-22.515999
20
-26.417000
10
-22.515999
20
-27.527002
10
-22.515999
20
-27.527002
10
-22.026001
20
-27.527002
10
-22.026001
20
-27.527002
10
-22.026001
20
-27.157000
10
-22.026001
20
-27.157000
10
-21.536001
20
-27.157000
10
-21.536001
20
-27.157000
10
-21.536001
20
-27.527002
10
-21.536001
20
-27.527002
10
-21.045999
20
-27.527002
10
-21.045999
20
-27.527002
10
-21.045999
20
-26.417000
0
LWPOLYLINE
5
1333
100
AcDbEntity
8
0
100
AcDbPolyline
90
16
70
0
43
0.000000
10
15.022001
20
-26.290000
10
13.552000
20
-26.290000
10
13.552000
20
-26.290000
10
13.552000
20
-27.400000
10
13.552000
20
-27.400000
10
14.042001
20
-27.400000
10
14.042001
20
-27.400000
10
14.042001
20
-27.030000
10
14.042001
20
-27.030000
10
14.532000
20
-27.030000
10
14.532000
20
-27.030000
10
14.532000
20
-27.400000
10
14.532000
20
-27.400000
10
15.022001
20
-27.400000
10
15.022001
20
-27.400000
10
15.022001
20
-26.290000
0
LWPOLYLINE
5
1334
100
AcDbEntity
8
0
100
AcDbPolyline
90
8
70
0
43
0.000000
10
17.548000
20
-26.553000
10
16.227999
20
-26.553000
10
16.227999
20
-26.553000
10
16.227999
20
-27.143000
10
16.227999
20
-27.143000
10
17.548000
20
-27.143000
10
17.548000
20
-27.143000
10
17.548000
20
-26.553000
0
LWPOLYLINE
5
1335
100
AcDbEntity
8
0
100
AcDbPolyline
90
8
70
0
43
0.000000
10
19.578000
20
-27.503000
10
18.257999
20
-27.503000
10
18.257999
20
-27.503000
10
18.257999
20
-28.092998
10
18.257999
20
-28.092998
10
19.578000
20
-28.092998
10
19.578000
20
-28.092998
10
19.578000
20
-27.503000
0
LWPOLYLINE
5
1336
100
AcDbEntity
8
0
100
AcDbPolyline
90
16
70
0
43
0.000000
10
-17.010000
20
-27.875000
10
-18.120000
20
-27.875000
10
-18.120000
20
-27.875000
10
-18.120000
20
-28.365000
10
-18.120000
20
-28.365000
10
-17.750000
20
-28.365000
10
-17.750000
20
-28.365000
10
-17.750000
20
-28.855000
10
-17.750000
20
-28.855000
10
-18.120000
20
-28.855000
10
-18.120000
20
-28.855000
10
-18.120000
20
-29.345000
10
-18.120000
20
-29.345000
10
-17.010000
20
-29.345000
10
-17.010000
20
-29.345000
10
-17.010000
20
-27.875000
0
LWPOLYLINE
5
1337
100
AcDbEntity
8
0
100
AcDbPolyline
90
16
70
0
43
0.000000
10
-18.820001
20
-27.875000
10
-19.930000
20
-27.875000
10
-19.930000
20
-27.875000
10
-19.930000
20
-29.345000
10
-19.930000
20
-29.345000
10
-18.820001
20
-29.345000
10
-18.820001
20
-29.345000
10
-18.820001
20
-28.855000
10
-18.820001
20
-28.855000
10
-19.190000
20
-28.855000
10
-19.190000
20
-28.855000
10
-19.190000
20
-28.365000
10
-19.190000
20
-28.365000
10
-18.820001
20
-28.365000
10
-18.820001
20
-28.365000
10
-18.820001
20
-27.875000
0
LWPOLYLINE
5
1338
100
AcDbEntity
8
0
100
AcDbPolyline
90
8
70
0
43
0.000000
10
-25.267000
20
-28.182000
10
-26.517000
20
-28.182000
10
-26.517000
20
-28.182000
10
-26.517000
20
-29.702000
10
-26.517000
20
-29.702000
10
-25.267000
20
-29.702000
10
-25.267000
20
-29.702000
10
-25.267000
20
-28.182000
0
LWPOLYLINE
5
1339
100
AcDbEntity
8
0
100
AcDbPolyline
90
8
70
0
43
0.000000
10
-27.077000
20
-28.182000
10
-28.327000
20
-28.182000
10
-28.327000
20
-28.182000
10
-28.327000
20
-29.702000
10
-28.327000
20
-29.702000
10
-27.077000
20
-29.702000
10
-27.077000
20
-29.702000
10
-27.077000
20
-28.182000
0
LWPOLYLINE
5
1340
100
AcDbEntity
8
0
100
AcDbPolyline
90
8
70
0
43
0.000000
10
-28.887000
20
-28.182000
10
-30.137000
20
-28.182000
10
-30.137000
20
-28.182000
10
-30.137000
20
-29.702000
10
-30.137000
20
-29.702000
10
-28.887000
20
-29.702000
10
-28.887000
20
-29.702000
10
-28.887000
20
-28.182000
0
LWPOLYLINE
5
1341
100
AcDbEntity
8
0
100
AcDbPolyline
90
8
70
0
43
0.000000
10
-30.697000
20
-28.182000
10
-31.946997
20
-28.182000
10
-31.946997
20
-28.182000
10
-31.946997
20
-29.702000
10
-31.946997
20
-29.702000
10
-30.697000
20
-29.702000
10
-30.697000
20
-29.702000
10
-30.697000
20
-28.182000
0
LWPOLYLINE
5
1342
100
AcDbEntity
8
0
100
AcDbPolyline
90
8
70
0
43
0.000000
10
-32.507000
20
-28.182000
10
-33.757002
20
-28.182000
10
-33.757002
20
-28.182000
10
-33.757002
20
-29.702000
10
-33.757002
20
-29.702000
10
-32.507000
20
-29.702000
10
-32.507000
20
-29.702000
10
-32.507000
20
-28.182000
0
LWPOLYLINE
5
1343
100
AcDbEntity
8
0
100
AcDbPolyline
90
8
70
0
43
0.000000
10
-34.317002
20
-28.182000
10
-35.567000
20
-28.182000
10
-35.567000
20
-28.182000
10
-35.567000
20
-29.702000
10
-35.567000
20
-29.702000
10
-34.317002
20
-29.702000
10
-34.317002
20
-29.702000
10
-34.317002
20
-28.182000
0
LWPOLYLINE
5
1344
100
AcDbEntity
8
0
100
AcDbPolyline
90
16
70
0
43
0.000000
10
-21.045999
20
-28.227000
10
-21.536001
20
-28.227000
10
-21.536001
20
-28.227000
10
-21.536001
20
-28.597000
10
-21.536001
20
-28.597000
10
-22.026001
20
-28.597000
10
-22.026001
20
-28.597000
10
-22.026001
20
-28.227000
10
-22.026001
20
-28.227000
10
-22.515999
20
-28.227000
10
-22.515999
20
-28.227000
10
-22.515999
20
-29.337000
10
-22.515999
20
-29.337000
10
-21.045999
20
-29.337000
10
-21.045999
20
-29.337000
10
-21.045999
20
-28.227000
0
LWPOLYLINE
5
1345
100
AcDbEntity
8
0
100
AcDbPolyline
90
8
70
0
43
0.000000
10
23.292000
20
-27.662000
10
21.792000
20
-27.662000
10
21.792000
20
-27.662000
10
21.792000
20
-29.782000
10
21.792000
20
-29.782000
10
23.292000
20
-29.782000
10
23.292000
20
-29.782000
10
23.292000
20
-27.662000
0
LWPOLYLINE
5
1346
100
AcDbEntity
8
0
100
AcDbPolyline
90
16
70
0
43
0.000000
10
15.022001
20
-28.100000
10
14.532000
20
-28.100000
10
14.532000
20
-28.100000
10
14.532000
20
-28.470000
10
14.532000
20
-28.470000
10
14.042001
20
-28.470000
10
14.042001
20
-28.470000
10
14.042001
20
-28.100000
10
14.042001
20
-28.100000
10
13.552000
20
-28.100000
10
13.552000
20
-28.100000
10
13.552000
20
-29.210000
10
13.552000
20
-29.210000
10
15.022001
20
-29.210000
10
15.022001
20
-29.210000
10
15.022001
20
-28.100000
0
LWPOLYLINE
5
1347
100
AcDbEntity
8
0
100
AcDbPolyline
90
8
70
0
43
0.000000
10
17.548000
20
-28.453000
10
16.227999
20
-28.453000
10
16.227999
20
-28.453000
10
16.227999
20
-29.043000
10
16.227999
20
-29.043000
10
17.548000
20
-29.043000
10
17.548000
20
-29.043000
10
17.548000
20
-28.453000
0
LWPOLYLINE
5
1348
100
AcDbEntity
8
0
100
AcDbPolyline
90
8
70
0
43
0.000000
10
-42.702002
20
-33.601001
10
-44.801997
20
-33.601001
10
-44.801997
20
-33.601001
10
-44.801997
20
-37.450999
10
-44.801997
20
-37.450999
10
-42.702002
20
-37.450999
10
-42.702002
20
-37.450999
10
-42.702002
20
-33.601001
0
LWPOLYLINE
5
1349
100
AcDbEntity
8
0
100
AcDbPolyline
90
8
70
0
43
0.000000
10
-5.618000
20
-33.625000
10
-7.718000
20
-33.625000
10
-7.718000
20
-33.625000
10
-7.718000
20
-37.475000
10
-7.718000
20
-37.475000
10
-5.618000
20
-37.475000
10
-5.618000
20
-37.475000
10
-5.618000
20
-33.625000
0
LWPOLYLINE
5
1350
100
AcDbEntity
8
0
100
AcDbPolyline
90
16
70
0
43
0.000000
10
-37.058000
20
-33.767000
10
-38.508003
20
-33.767000
10
-38.508003
20
-33.767000
10
-38.508003
20
-34.892998
10
-38.508003
20
-34.892998
10
-38.025000
20
-34.892998
10
-38.025000
20
-34.892998
10
-38.025000
20
-34.517002
10
-38.025000
20
-34.517002
10
-37.540999
20
-34.517002
10
-37.540999
20
-34.517002
10
-37.540999
20
-34.892998
10
-37.540999
20
-34.892998
10
-37.058000
20
-34.892998
10
-37.058000
20
-34.892998
10
-37.058000
20
-33.767000
0
LWPOLYLINE
5
1351
100
AcDbEntity
8
0
100
AcDbPolyline
90
8
70
0
43
0.000000
10
-15.144000
20
-34.150000
10
-17.643999
20
-34.150000
10
-17.643999
20
-34.150000
10
-17.643999
20
-36.950000
10
-17.643999
20
-36.950000
10
-15.144000
20
-36.950000
10
-15.144000
20
-36.950000
10
-15.144000
20
-34.150000
0
LWPOLYLINE
5
1352
100
AcDbEntity
8
0
100
AcDbPolyline
90
8
70
0
43
0.000000
10
-18.044000
20
-34.150000
10
-20.543999
20
-34.150000
10
-20.543999
20
-34.150000
10
-20.543999
20
-36.950000
10
-20.543999
20
-36.950000
10
-18.044000
20
-36.950000
10
-18.044000
20
-36.950000
10
-18.044000
20
-34.150000
0
LWPOLYLINE
5
1353
100
AcDbEntity
8
0
100
AcDbPolyline
90
8
70
0
43
0.000000
10
-26.522000
20
-35.167002
10
-27.512000
20
-35.167002
10
-27.512000
20
-35.167002
10
-27.512000
20
-38.957000
10
-27.512000
20
-38.957000
10
-26.522000
20
-38.957000
10
-26.522000
20
-38.957000
10
-26.522000
20
-35.167002
0
LWPOLYLINE
5
1354
100
AcDbEntity
8
0
100
AcDbPolyline
90
8
70
0
43
0.000000
10
-28.222000
20
-35.167002
10
-29.212000
20
-35.167002
10
-29.212000
20
-35.167002
10
-29.212000
20
-38.957000
10
-29.212000
20
-38.957000
10
-28.222000
20
-38.957000
10
-28.222000
20
-38.957000
10
-28.222000
20
-35.167002
0
LWPOLYLINE
5
1355
100
AcDbEntity
8
0
100
AcDbPolyline
90
8
70
0
43
0.000000
10
-29.922000
20
-35.167002
10
-30.912000
20
-35.167002
10
-30.912000
20
-35.167002
10
-30.912000
20
-38.957000
10
-30.912000
20
-38.957000
10
-29.922000
20
-38.957000
10
-29.922000
20
-38.957000
10
-29.922000
20
-35.167002
0
LWPOLYLINE
5
1356
100
AcDbEntity
8
0
100
AcDbPolyline
90
8
70
0
43
0.000000
10
-31.622000
20
-35.167002
10
-32.612000
20
-35.167002
10
-32.612000
20
-35.167002
10
-32.612000
20
-38.957000
10
-32.612000
20
-38.957000
10
-31.622000
20
-38.957000
10
-31.622000
20
-38.957000
10
-31.622000
20
-35.167002
0
LWPOLYLINE
5
1357
100
AcDbEntity
8
0
100
AcDbPolyline
90
8
70
0
43
0.000000
10
-33.322000
20
-35.167002
10
-34.312000
20
-35.167002
10
-34.312000
20
-35.167002
10
-34.312000
20
-38.957000
10
-34.312000
20
-38.957000
10
-33.322000
20
-38.957000
10
-33.322000
20
-38.957000
10
-33.322000
20
-35.167002
0
LWPOLYLINE
5
1358
100
AcDbEntity
8
0
100
AcDbPolyline
90
16
70
0
43
0.000000
10
-37.058000
20
-35.595000
10
-37.540999
20
-35.595000
10
-37.540999
20
-35.595000
10
-37.540999
20
-35.969001
10
-37.540999
20
-35.969001
10
-38.025000
20
-35.969001
10
-38.025000
20
-35.969001
10
-38.025000
20
-35.595000
10
-38.025000
20
-35.595000
10
-38.508003
20
-35.595000
10
-38.508003
20
-35.595000
10
-38.508003
20
-36.718999
10
-38.508003
20
-36.718999
10
-37.058000
20
-36.718999
10
-37.058000
20
-36.718999
10
-37.058000
20
-35.595000
0
LWPOLYLINE
5
1359
100
AcDbEntity
8
0
100
AcDbPolyline
90
8
70
0
43
0.000000
10
45.758999
20
-39.152000
10
44.028999
20
-39.152000
10
44.028999
20
-39.152000
10
44.028999
20
-40.252000
10
44.028999
20
-40.252000
10
45.758999
20
-40.252000
10
45.758999
20
-40.252000
10
45.758999
20
-39.152000
0
LWPOLYLINE
5
1360
100
AcDbEntity
8
0
100
AcDbPolyline
90
8
70
0
43
0.000000
10
43.092002
20
-39.152000
10
41.361997
20
-39.152000
10
41.361997
20
-39.152000
10
41.361997
20
-40.252000
10
41.361997
20
-40.252000
10
43.092002
20
-40.252000
10
43.092002
20
-40.252000
10
43.092002
20
-39.152000
0
LWPOLYLINE
5
1361
100
AcDbEntity
8
0
100
AcDbPolyline
90
8
70
0
43
0.000000
10
40.425000
20
-39.152000
10
38.695000
20
-39.152000
10
38.695000
20
-39.152000
10
38.695000
20
-40.252000
10
38.695000
20
-40.252000
10
40.425000
20
-40.252000
10
40.425000
20
-40.252000
10
40.425000
20
-39.152000
0
LWPOLYLINE
5
1362
100
AcDbEntity
8
0
100
AcDbPolyline
90
8
70
0
43
0.000000
10
37.758000
20
-39.152000
10
36.028000
20
-39.152000
10
36.028000
20
-39.152000
10
36.028000
20
-40.252000
10
36.028000
20
-40.252000
10
37.758000
20
-40.252000
10
37.758000
20
-40.252000
10
37.758000
20
-39.152000
0
LWPOLYLINE
5
1363
100
AcDbEntity
8
0
100
AcDbPolyline
90
8
70
0
43
0.000000
10
-42.702002
20
-40.401001
10
-44.801997
20
-40.401001
10
-44.801997
20
-40.401001
10
-44.801997
20
-44.251001
10
-44.801997
20
-44.251001
10
-42.702002
20
-44.251001
10
-42.702002
20
-44.251001
10
-42.702002
20
-40.401001
0
LWPOLYLINE
5
1364
100
AcDbEntity
8
0
100
AcDbPolyline
90
8
70
0
43
0.000000
10
-5.618000
20
-40.425000
10
-7.718000
20
-40.425000
10
-7.718000
20
-40.425000
10
-7.718000
20
-44.275000
10
-7.718000
20
-44.275000
10
-5.618000
20
-44.275000
10
-5.618000
20
-44.275000
10
-5.618000
20
-40.425000
0
LWPOLYLINE
5
1365
100
AcDbEntity
8
0
100
AcDbPolyline
90
8
70
0
43
0.000000
10
-28.763999
20
-41.937998
10
-31.053999
20
-41.937998
10
-31.053999
20
-41.937998
10
-31.053999
20
-45.058003
10
-31.053999
20
-45.058003
10
-28.763999
20
-45.058003
10
-28.763999
20
-45.058003
10
-28.763999
20
-41.937998
0
LWPOLYLINE
5
1366
100
AcDbEntity
8
0
100
AcDbPolyline
90
8
70
0
43
0.000000
10
-34.098000
20
-41.937998
10
-36.387998
20
-41.937998
10
-36.387998
20
-41.937998
10
-36.387998
20
-45.058003
10
-36.387998
20
-45.058003
10
-34.098000
20
-45.058003
10
-34.098000
20
-45.058003
10
-34.098000
20
-41.937998
0
LWPOLYLINE
5
1367
100
AcDbEntity
8
0
100
AcDbPolyline
90
8
70
0
43
0.000000
10
-15.144000
20
-43.950000
10
-17.643999
20
-43.950000
10
-17.643999
20
-43.950000
10
-17.643999
20
-46.750000
10
-17.643999
20
-46.750000
10
-15.144000
20
-46.750000
10
-15.144000
20
-46.750000
10
-15.144000
20
-43.950000
0
LWPOLYLINE
5
1368
100
AcDbEntity
8
0
100
AcDbPolyline
90
8
70
0
43
0.000000
10
-18.044000
20
-43.950000
10
-20.543999
20
-43.950000
10
-20.543999
20
-43.950000
10
-20.543999
20
-46.750000
10
-20.543999
20
-46.750000
10
-18.044000
20
-46.750000
10
-18.044000
20
-46.750000
10
-18.044000
20
-43.950000
0
LWPOLYLINE
5
1369
100
AcDbEntity
8
0
100
AcDbPolyline
90
8
70
0
43
0.000000
10
45.758999
20
-42.172002
10
44.028999
20
-42.172002
10
44.028999
20
-42.172002
10
44.028999
20
-43.272002
10
44.028999
20
-43.272002
10
45.758999
20
-43.272002
10
45.758999
20
-43.272002
10
45.758999
20
-42.172002
0
LWPOLYLINE
5
1370
100
AcDbEntity
8
0
100
AcDbPolyline
90
8
70
0
43
0.000000
10
43.092002
20
-42.172002
10
41.361997
20
-42.172002
10
41.361997
20
-42.172002
10
41.361997
20
-43.272002
10
41.361997
20
-43.272002
10
43.092002
20
-43.272002
10
43.092002
20
-43.272002
10
43.092002
20
-42.172002
0
LWPOLYLINE
5
1371
100
AcDbEntity
8
0
100
AcDbPolyline
90
8
70
0
43
0.000000
10
40.425000
20
-42.172002
10
38.695000
20
-42.172002
10
38.695000
20
-42.172002
10
38.695000
20
-43.272002
10
38.695000
20
-43.272002
10
40.425000
20
-43.272002
10
40.425000
20
-43.272002
10
40.425000
20
-42.172002
0
LWPOLYLINE
5
1372
100
AcDbEntity
8
0
100
AcDbPolyline
90
8
70
0
43
0.000000
10
37.758000
20
-42.172002
10
36.028000
20
-42.172002
10
36.028000
20
-42.172002
10
36.028000
20
-43.272002
10
36.028000
20
-43.272002
10
37.758000
20
-43.272002
10
37.758000
20
-43.272002
10
37.758000
20
-42.172002
0
LWPOLYLINE
5
1373
100
AcDbEntity
8
0
100
AcDbPolyline
90
26
70
0
43
0.000000
10
-161.909717
20
-106.055977
10
-161.909717
20
-107.808574
10
-161.909717
20
-107.808574
10
-161.884307
20
-108.621377
10
-161.884307
20
-108.621377
10
-162.189111
20
-108.773770
10
-162.189111
20
-108.773770
10
-162.163701
20
-107.910176
10
-162.163701
20
-107.910176
10
-162.163701
20
-105.039971
10
-162.163701
20
-105.039971
10
-162.189111
20
-104.227168
10
-162.189111
20
-104.227168
10
-161.706504
20
-104.430361
10
-161.706504
20
-104.430361
10
-161.909717
20
-104.582773
10
-161.909717
20
-104.582773
10
-161.909717
20
-105.954365
10
-161.909717
20
-105.954365
10
-160.919111
20
-106.360762
10
-160.919111
20
-106.360762
10
-160.715908
20
-106.843369
10
-160.715908
20
-106.843369
10
-160.995303
20
-106.817979
10
-160.995303
20
-106.817979
10
-161.909717
20
-106.055977
0
LWPOLYLINE
5
1374
100
AcDbEntity
8
0
100
AcDbPolyline
90
44
70
0
43
0.000000
10
-163.916309
20
-104.227168
10
-163.459111
20
-104.481172
10
-163.459111
20
-104.481172
10
-163.611514
20
-104.582773
10
-163.611514
20
-104.582773
10
-163.916309
20
-105.370166
10
-163.916309
20
-105.370166
10
-163.078115
20
-105.370166
10
-163.078115
20
-105.370166
10
-162.925703
20
-105.141563
10
-162.925703
20
-105.141563
10
-162.519307
20
-105.471777
10
-162.519307
20
-105.471777
10
-163.001914
20
-106.309961
10
-163.001914
20
-106.309961
10
-163.814707
20
-107.757764
10
-163.814707
20
-107.757764
10
-165.008516
20
-108.621377
10
-165.008516
20
-108.621377
10
-165.059316
20
-108.570576
10
-165.059316
20
-108.570576
10
-163.713115
20
-107.249766
10
-163.713115
20
-107.249766
10
-163.052705
20
-105.471777
10
-163.052705
20
-105.471777
10
-163.967109
20
-105.471777
10
-163.967109
20
-105.471777
10
-164.271914
20
-106.132168
10
-164.271914
20
-106.132168
10
-163.611514
20
-106.513174
10
-163.611514
20
-106.513174
10
-163.636904
20
-106.817979
10
-163.636904
20
-106.817979
10
-163.840117
20
-106.767158
10
-163.840117
20
-106.767158
10
-164.322695
20
-106.208369
10
-164.322695
20
-106.208369
10
-164.983105
20
-107.021172
10
-164.983105
20
-107.021172
10
-165.033906
20
-106.970371
10
-165.033906
20
-106.970371
10
-164.322695
20
-105.624170
10
-164.322695
20
-105.624170
10
-163.916309
20
-104.227168
0
LWPOLYLINE
5
1375
100
AcDbEntity
8
0
100
AcDbPolyline
90
26
70
0
43
0.000000
10
-156.016914
20
-106.614766
10
-155.991514
20
-107.757764
10
-155.991514
20
-107.757764
10
-156.270908
20
-107.859375
10
-156.270908
20
-107.859375
10
-156.270908
20
-106.563975
10
-156.270908
20
-106.563975
10
-158.429902
20
-106.563975
10
-158.429902
20
-106.563975
10
-158.429902
20
-107.808574
10
-158.429902
20
-107.808574
10
-158.683906
20
-107.935566
10
-158.683906
20
-107.935566
10
-158.683906
20
-107.148174
10
-158.683906
20
-107.148174
10
-158.683906
20
-106.309961
10
-158.683906
20
-106.309961
10
-158.429902
20
-106.436973
10
-158.429902
20
-106.436973
10
-156.296309
20
-106.436973
10
-156.296309
20
-106.436973
10
-156.143906
20
-106.233779
10
-156.143906
20
-106.233779
10
-155.864512
20
-106.487764
10
-155.864512
20
-106.487764
10
-156.016914
20
-106.614766
0
LWPOLYLINE
5
1376
100
AcDbEntity
8
0
100
AcDbPolyline
90
18
70
0
43
0.000000
10
-157.515508
20
-106.716367
10
-157.032910
20
-106.944961
10
-157.032910
20
-106.944961
10
-157.236113
20
-107.071963
10
-157.236113
20
-107.071963
10
-157.490107
20
-107.960967
10
-157.490107
20
-107.960967
10
-158.201309
20
-108.519766
10
-158.201309
20
-108.519766
10
-159.420508
20
-108.773770
10
-159.420508
20
-108.773770
10
-159.445908
20
-108.697559
10
-159.445908
20
-108.697559
10
-158.150508
20
-108.265771
10
-158.150508
20
-108.265771
10
-157.642510
20
-107.630771
10
-157.642510
20
-107.630771
10
-157.515508
20
-106.716367
0
LWPOLYLINE
5
1377
100
AcDbEntity
8
0
100
AcDbPolyline
90
12
70
0
43
0.000000
10
-157.236113
20
-107.833965
10
-157.210703
20
-107.757764
10
-157.210703
20
-107.757764
10
-155.889912
20
-108.138770
10
-155.889912
20
-108.138770
10
-155.559707
20
-108.570576
10
-155.559707
20
-108.570576
10
-155.788301
20
-108.646768
10
-155.788301
20
-108.646768
10
-156.397910
20
-108.214971
10
-156.397910
20
-108.214971
10
-157.236113
20
-107.833965
0
LWPOLYLINE
5
1378
100
AcDbEntity
8
0
100
AcDbPolyline
90
38
70
0
43
0.000000
10
-158.912510
20
-105.776563
10
-157.921914
20
-105.471777
10
-157.921914
20
-105.471777
10
-158.302900
20
-104.989170
10
-158.302900
20
-104.989170
10
-158.252109
20
-104.938369
10
-158.252109
20
-104.938369
10
-157.642510
20
-105.370166
10
-157.642510
20
-105.370166
10
-157.591719
20
-105.751172
10
-157.591719
20
-105.751172
10
-157.794912
20
-105.801973
10
-157.794912
20
-105.801973
10
-157.896504
20
-105.547969
10
-157.896504
20
-105.547969
10
-158.531514
20
-105.852764
10
-158.531514
20
-105.852764
10
-159.039512
20
-106.208369
10
-159.039512
20
-106.208369
10
-159.242705
20
-105.928975
10
-159.242705
20
-105.928975
10
-159.166514
20
-105.624170
10
-159.166514
20
-105.624170
10
-159.191904
20
-104.506563
10
-159.191904
20
-104.506563
10
-158.912510
20
-104.709775
10
-158.912510
20
-104.709775
10
-158.302900
20
-104.481172
10
-158.302900
20
-104.481172
10
-157.896504
20
-104.150967
10
-157.896504
20
-104.150967
10
-157.566309
20
-104.506563
10
-157.566309
20
-104.506563
10
-158.150508
20
-104.608164
10
-158.150508
20
-104.608164
10
-158.912510
20
-104.811367
10
-158.912510
20
-104.811367
10
-158.912510
20
-105.776563
0
LWPOLYLINE
5
1379
100
AcDbEntity
8
0
100
AcDbPolyline
90
36
70
0
43
0.000000
10
-157.591719
20
-104.633574
10
-155.762910
20
-104.633574
10
-155.762910
20
-104.633574
10
-155.585107
20
-104.430361
10
-155.585107
20
-104.430361
10
-155.280303
20
-104.709775
10
-155.280303
20
-104.709775
10
-155.458105
20
-104.811367
10
-155.458105
20
-104.811367
10
-155.712109
20
-105.903564
10
-155.712109
20
-105.903564
10
-156.118516
20
-106.208369
10
-156.118516
20
-106.208369
10
-156.601113
20
-105.801973
10
-156.601113
20
-105.801973
10
-156.575713
20
-105.725762
10
-156.575713
20
-105.725762
10
-156.067715
20
-105.801973
10
-156.067715
20
-105.801973
10
-155.864512
20
-105.547969
10
-155.864512
20
-105.547969
10
-155.737500
20
-104.760576
10
-155.737500
20
-104.760576
10
-156.550303
20
-104.760576
10
-156.550303
20
-104.760576
10
-157.921914
20
-106.309961
10
-157.921914
20
-106.309961
10
-157.947314
20
-106.259170
10
-157.947314
20
-106.259170
10
-156.829717
20
-104.760576
10
-156.829717
20
-104.760576
10
-156.956699
20
-104.760576
10
-156.956699
20
-104.760576
10
-157.413916
20
-104.811367
10
-157.413916
20
-104.811367
10
-157.591719
20
-104.633574
0
LWPOLYLINE
5
1380
100
AcDbEntity
8
0
100
AcDbPolyline
90
16
70
0
43
0.000000
10
-190.000156
20
134.999756
42
-0.414214
10
-185.000176
20
139.999746
10
-185.000176
20
139.999746
10
184.999844
20
139.999746
10
184.999844
20
139.999746
42
-0.414214
10
189.999824
20
134.999756
10
189.999824
20
134.999756
10
189.999824
20
-135.000244
10
189.999824
20
-135.000244
42
-0.414214
10
184.999844
20
-140.000234
10
184.999844
20
-140.000234
10
-185.000176
20
-140.000234
10
-185.000176
20
-140.000234
42
-0.414214
10
-190.000156
20
-135.000244
10
-190.000156
20
-135.000244
10
-190.000156
20
134.999756
  0
ENDSEC
  0
SECTION
  2
OBJECTS
  0
DICTIONARY
  5
C
330
0
100
AcDbDictionary
  3
ACAD_GROUP
350
D
  3
ACAD_PLOTSTYLENAME
350
E
  3
ACAD_MLINESTYLE
350
17
  3
ACAD_PLOTSETTINGS
350
19
  3
ACAD_LAYOUT
350
1A
  3
ACDBHEADERROUNDTRIPXREC
350
2C
  0
DICTIONARY
  5
4E
330
1F
100
AcDbDictionary
280
     1
  3
ACAD_LAYOUTSELFREF
360
4F
  0
DICTIONARY
  5
4C
330
1B
100
AcDbDictionary
280
     1
  3
ACAD_LAYOUTSELFREF
360
4D
  0
DICTIONARY
  5
D
102
{ACAD_REACTORS
330
C
102
}
330
C
100
AcDbDictionary
  0
ACDBDICTIONARYWDFLT
  5
E
102
{ACAD_REACTORS
330
C
102
}
330
C
100
AcDbDictionary
281
     1
  3
Normal
350
F
100
AcDbDictionaryWithDefault
340
F
  0
DICTIONARY
  5
17
102
{ACAD_REACTORS
330
C
102
}
330
C
100
AcDbDictionary
  3
STANDARD
350
18
  0
DICTIONARY
  5
19
102
{ACAD_REACTORS
330
C
102
}
330
C
100
AcDbDictionary
  0
DICTIONARY
  5
1A
102
{ACAD_REACTORS
330
C
102
}
330
C
100
AcDbDictionary
  0
DICTIONARY
  5
2C
102
{ACAD_REACTORS
330
C
102
}
330
C
100
AcDbDictionary
  3
TSTACKALIGN
350
2D
  3
TSTACKSIZE
350
2E
  3
HYPERLINKBASE
350
2F
  3
STYLESHEET
350
30
  3
LAYOUTDICT
350
31
  3
PLOTSETDICT
350
32
  3
PLOTSTYLNAMDICT
350
33
  3
LWETCUNION
350
34
  3
INSUNITS
350
35
  3
CEPSNTYPE
350
36
  3
FINGERPRINTGUID
350
37
  3
VERSIONGUID
350
38
  3
PSVPSCALE
350
39
  3
PUCSORTHOREF
350
3A
  3
PUCSORTHOVIEW
350
3B
  3
PUCSBASE
350
3C
  3
PUCSORGTOP
350
3D
  3
PUCSORGBOTTOM
350
3E
  3
PUCSORGLEFT
350
3F
  3
PUCSORGRIGHT
350
40
  3
PUCSORGFRONT
350
41
  3
PUCSORGBACK
350
42
  3
UCSORTHOREF
350
43
  3
UCSORTHOVIEW
350
44
  3
UCSBASE
350
45
  3
UCSORGTOP
350
46
  3
UCSORGBOTTOM
350
47
  3
UCSORGLEFT
350
48
  3
UCSORGRIGHT
350
49
  3
UCSORGFRONT
350
4A
  3
UCSORGBACK
350
4B
  0
XRECORD
  5
4F
102
{ACAD_REACTORS
330
4E
102
}
330
4E
100
AcDbXrecord
340
1F
  0
XRECORD
  5
4D
102
{ACAD_REACTORS
330
4C
102
}
330
4C
100
AcDbXrecord
340
1B
  0
ACDBPLACEHOLDER
  5
F
102
{ACAD_REACTORS
330
E
102
}
330
E
100
AcDbPlaceHolder
280
     0
  0
MLINESTYLE
  5
18
102
{ACAD_REACTORS
330
17
102
}
330
17
100
AcDbMlineStyle
  2
STANDARD
 70
     0
  3

 62
   256
 51
90.0
 52
90.0
 71
     2
 49
0.5
 62
   256
  6
BYLAYER
 49
-0.5
 62
   256
  6
BYLAYER
  0
XRECORD
  5
2D
102
{ACAD_REACTORS
330
2C
102
}
330
2C
100
AcDbXrecord
 90
        1
  0
XRECORD
  5
2E
102
{ACAD_REACTORS
330
2C
102
}
330
2C
100
AcDbXrecord
 90
       70
  0
XRECORD
  5
2F
102
{ACAD_REACTORS
330
2C
102
}
330
2C
100
AcDbXrecord
  1

  0
XRECORD
  5
30
102
{ACAD_REACTORS
330
2C
102
}
330
2C
100
AcDbXrecord
  1

  0
XRECORD
  5
31
102
{ACAD_REACTORS
330
2C
102
}
330
2C
100
AcDbXrecord
340
1A
  0
XRECORD
  5
32
102
{ACAD_REACTORS
330
2C
102
}
330
2C
100
AcDbXrecord
340
19
  0
XRECORD
  5
33
102
{ACAD_REACTORS
330
2C
102
}
330
2C
100
AcDbXrecord
340
E
  0
XRECORD
  5
34
102
{ACAD_REACTORS
330
2C
102
}
330
2C
100
AcDbXrecord
 90
    10781
  0
XRECORD
  5
35
102
{ACAD_REACTORS
330
2C
102
}
330
2C
100
AcDbXrecord
 90
        1
  0
XRECORD
  5
36
102
{ACAD_REACTORS
330
2C
102
}
330
2C
100
AcDbXrecord
 90
        0
  0
XRECORD
  5
37
102
{ACAD_REACTORS
330
2C
102
}
330
2C
100
AcDbXrecord
  1
{52E71EDF-FFAA-4562-8346-3267B235A6A4}
  0
XRECORD
  5
38
102
{ACAD_REACTORS
330
2C
102
}
330
2C
100
AcDbXrecord
  1
{9F761B99-1ECE-458C-A54E-C2AD2766E43A}
  0
XRECORD
  5
39
102
{ACAD_REACTORS
330
2C
102
}
330
2C
100
AcDbXrecord
 40
0.0
  0
XRECORD
  5
3A
102
{ACAD_REACTORS
330
2C
102
}
330
2C
100
AcDbXrecord
340
0
  0
XRECORD
  5
3B
102
{ACAD_REACTORS
330
2C
102
}
330
2C
100
AcDbXrecord
 70
     0
  0
XRECORD
  5
3C
102
{ACAD_REACTORS
330
2C
102
}
330
2C
100
AcDbXrecord
340
0
  0
XRECORD
  5
3D
102
{ACAD_REACTORS
330
2C
102
}
330
2C
100
AcDbXrecord
 10
0.0
 20
0.0
 30
0.0
  0
XRECORD
  5
3E
102
{ACAD_REACTORS
330
2C
102
}
330
2C
100
AcDbXrecord
 10
0.0
 20
0.0
 30
0.0
  0
XRECORD
  5
3F
102
{ACAD_REACTORS
330
2C
102
}
330
2C
100
AcDbXrecord
 10
0.0
 20
0.0
 30
0.0
  0
XRECORD
  5
40
102
{ACAD_REACTORS
330
2C
102
}
330
2C
100
AcDbXrecord
 10
0.0
 20
0.0
 30
0.0
  0
XRECORD
  5
41
102
{ACAD_REACTORS
330
2C
102
}
330
2C
100
AcDbXrecord
 10
0.0
 20
0.0
 30
0.0
  0
XRECORD
  5
42
102
{ACAD_REACTORS
330
2C
102
}
330
2C
100
AcDbXrecord
 10
0.0
 20
0.0
 30
0.0
  0
XRECORD
  5
43
102
{ACAD_REACTORS
330
2C
102
}
330
2C
100
AcDbXrecord
340
0
  0
XRECORD
  5
44
102
{ACAD_REACTORS
330
2C
102
}
330
2C
100
AcDbXrecord
 70
     0
  0
XRECORD
  5
45
102
{ACAD_REACTORS
330
2C
102
}
330
2C
100
AcDbXrecord
340
0
  0
XRECORD
  5
46
102
{ACAD_REACTORS
330
2C
102
}
330
2C
100
AcDbXrecord
 10
0.0
 20
0.0
 30
0.0
  0
XRECORD
  5
47
102
{ACAD_REACTORS
330
2C
102
}
330
2C
100
AcDbXrecord
 10
0.0
 20
0.0
 30
0.0
  0
XRECORD
  5
48
102
{ACAD_REACTORS
330
2C
102
}
330
2C
100
AcDbXrecord
 10
0.0
 20
0.0
 30
0.0
  0
XRECORD
  5
49
102
{ACAD_REACTORS
330
2C
102
}
330
2C
100
AcDbXrecord
 10
0.0
 20
0.0
 30
0.0
  0
XRECORD
  5
4A
102
{ACAD_REACTORS
330
2C
102
}
330
2C
100
AcDbXrecord
 10
0.0
 20
0.0
 30
0.0
  0
XRECORD
  5
4B
102
{ACAD_REACTORS
330
2C
102
}
330
2C
100
AcDbXrecord
 10
0.0
 20
0.0
 30
0.0
  0
ENDSEC
  0
EOF
